<svg xmlns="http://www.w3.org/2000/svg" xmlns:xlink="http://www.w3.org/1999/xlink" width="1482" height="870" viewBox="0 0 1482 870">
    <defs>
        <linearGradient id="45wiqcx4hc" x1="99.975%" x2="-.452%" y1="33.592%" y2="66.565%">
            <stop offset="32%" stop-color="#C8EAC0"/>
            <stop offset="42%" stop-color="#BFE8C4"/>
            <stop offset="57%" stop-color="#A7E1CE"/>
            <stop offset="76%" stop-color="#80D7E0"/>
            <stop offset="96%" stop-color="#51CAF4"/>
        </linearGradient>
        <linearGradient id="cb0isagome" x1="50%" x2="50%" y1="100%" y2="-.002%">
            <stop offset="0%" stop-color="#3BD4C3"/>
            <stop offset="100%" stop-color="#187A93"/>
        </linearGradient>
        <linearGradient id="wlfqtn2n1f" x1="50.001%" x2="50.001%" y1="99.984%" y2="-.001%">
            <stop offset="0%" stop-color="#3BD4C3"/>
            <stop offset="100%" stop-color="#187A93"/>
        </linearGradient>
        <linearGradient id="4m1zu9qm0g" x1="49.926%" x2="49.926%" y1="100.038%" y2="-.005%">
            <stop offset="0%" stop-color="#3C3461"/>
            <stop offset="16%" stop-color="#3A3A63"/>
            <stop offset="37%" stop-color="#354B69"/>
            <stop offset="61%" stop-color="#2D6672"/>
            <stop offset="87%" stop-color="#228C7F"/>
            <stop offset="100%" stop-color="#1CA286"/>
        </linearGradient>
        <linearGradient id="0mms1a7kph" x1="50%" x2="50%" y1="118.34%" y2="0%">
            <stop offset="0%" stop-color="#18A0B2"/>
            <stop offset="44%" stop-color="#18A6B2"/>
            <stop offset="100%" stop-color="#18B6B2"/>
        </linearGradient>
        <linearGradient id="3fsu0e04wi" x1="49.892%" x2="49.892%" y1="100%" y2=".008%">
            <stop offset="0%" stop-color="#1C548E"/>
            <stop offset="100%" stop-color="#3CA773"/>
        </linearGradient>
        <linearGradient id="lzh30rcr0j" x1="49.921%" x2="49.921%" y1="100.01%" y2="-.003%">
            <stop offset="0%" stop-color="#1C548E"/>
            <stop offset="100%" stop-color="#3CA773"/>
        </linearGradient>
        <linearGradient id="pw0ym7ktek" x1="49.998%" x2="49.998%" y1="128.793%" y2="-.041%">
            <stop offset="0%" stop-color="#3C3461"/>
            <stop offset="16%" stop-color="#3A3A63"/>
            <stop offset="37%" stop-color="#354B69"/>
            <stop offset="61%" stop-color="#2D6672"/>
            <stop offset="87%" stop-color="#228C7F"/>
            <stop offset="100%" stop-color="#1CA286"/>
        </linearGradient>
        <linearGradient id="dho5tdezfl" x1="49.816%" x2="49.816%" y1="100%" y2="-.002%">
            <stop offset="0%" stop-color="#1C548E"/>
            <stop offset="100%" stop-color="#3CA773"/>
        </linearGradient>
        <linearGradient id="ml3vsr1rlm" x1="49.871%" x2="49.871%" y1="100.074%" y2=".039%">
            <stop offset="0%" stop-color="#1C548E"/>
            <stop offset="100%" stop-color="#3CA773"/>
        </linearGradient>
        <linearGradient id="mmi99gpctn" x1="49.934%" x2="49.934%" y1="100%" y2="-.007%">
            <stop offset="0%" stop-color="#3C778E"/>
            <stop offset="100%" stop-color="#A9D99F"/>
        </linearGradient>
        <linearGradient id="6rdhl2tlco" x1="49.878%" x2="49.878%" y1="100%" y2="0%">
            <stop offset="0%" stop-color="#3C778E"/>
            <stop offset="100%" stop-color="#A9D99F"/>
        </linearGradient>
        <linearGradient id="06lecplqbp" x1="49.875%" x2="49.875%" y1="100%" y2=".009%">
            <stop offset="0%" stop-color="#3C778E"/>
            <stop offset="100%" stop-color="#A9D99F"/>
        </linearGradient>
        <linearGradient id="u2wohuhs9q" x1="18.768%" x2="81.179%" y1="107.046%" y2=".111%">
            <stop offset="0%" stop-color="#44757A" stop-opacity="0"/>
            <stop offset="43%" stop-color="#44757A" stop-opacity=".48"/>
            <stop offset="81%" stop-color="#44757A" stop-opacity=".86"/>
            <stop offset="100%" stop-color="#44757A"/>
        </linearGradient>
        <linearGradient id="09yujc82jr" x1="77.154%" x2="17.702%" y1="82.875%" y2="10.893%">
            <stop offset="0%" stop-color="#44757A" stop-opacity="0"/>
            <stop offset="43%" stop-color="#44757A" stop-opacity=".48"/>
            <stop offset="81%" stop-color="#44757A" stop-opacity=".86"/>
            <stop offset="100%" stop-color="#44757A"/>
        </linearGradient>
        <linearGradient id="xadrjxq7as" x1="77.171%" x2="17.706%" y1="82.873%" y2="10.876%">
            <stop offset="0%" stop-color="#44757A" stop-opacity="0"/>
            <stop offset="43%" stop-color="#44757A" stop-opacity=".48"/>
            <stop offset="81%" stop-color="#44757A" stop-opacity=".86"/>
            <stop offset="100%" stop-color="#44757A"/>
        </linearGradient>
        <linearGradient id="tgh7z804mt" x1="76.73%" x2="18.217%" y1="81.527%" y2="12.498%">
            <stop offset="0%" stop-color="#44757A" stop-opacity="0"/>
            <stop offset="43%" stop-color="#44757A" stop-opacity=".48"/>
            <stop offset="81%" stop-color="#44757A" stop-opacity=".86"/>
            <stop offset="100%" stop-color="#44757A"/>
        </linearGradient>
        <linearGradient id="2rha8yyhgu" x1="21.398%" x2="84.027%" y1="94.428%" y2="-2.859%">
            <stop offset="0%" stop-color="#44757A" stop-opacity="0"/>
            <stop offset="43%" stop-color="#44757A" stop-opacity=".48"/>
            <stop offset="81%" stop-color="#44757A" stop-opacity=".86"/>
            <stop offset="100%" stop-color="#44757A"/>
        </linearGradient>
        <linearGradient id="h6ihn5u85v" x1="21.286%" x2="84.153%" y1="94.477%" y2="-2.883%">
            <stop offset="0%" stop-color="#44757A" stop-opacity="0"/>
            <stop offset="43%" stop-color="#44757A" stop-opacity=".48"/>
            <stop offset="81%" stop-color="#44757A" stop-opacity=".86"/>
            <stop offset="100%" stop-color="#44757A"/>
        </linearGradient>
        <linearGradient id="x4ly68ceuw" x1="20.252%" x2="85.359%" y1="94.864%" y2="-3.367%">
            <stop offset="0%" stop-color="#44757A" stop-opacity="0"/>
            <stop offset="43%" stop-color="#44757A" stop-opacity=".48"/>
            <stop offset="81%" stop-color="#44757A" stop-opacity=".86"/>
            <stop offset="100%" stop-color="#44757A"/>
        </linearGradient>
        <linearGradient id="zzcvjpc6qx" x1="49.975%" x2="49.975%" y1="153.823%" y2="-.003%">
            <stop offset="0%" stop-color="#1C548E"/>
            <stop offset="100%" stop-color="#3CA773"/>
        </linearGradient>
        <linearGradient id="rcl3kbxy9y" x1="49.842%" x2="49.842%" y1="99.998%" y2="-.005%">
            <stop offset="0%" stop-color="#3C778E"/>
            <stop offset="100%" stop-color="#A9D99F"/>
        </linearGradient>
        <linearGradient id="wdx412pagz" x1="49.903%" x2="49.903%" y1="99.889%" y2=".004%">
            <stop offset="0%" stop-color="#1C548E"/>
            <stop offset="100%" stop-color="#6DA77D"/>
        </linearGradient>
        <linearGradient id="napva2x09A" x1="49.875%" x2="49.875%" y1="99.917%" y2=".005%">
            <stop offset="0%" stop-color="#1C548E"/>
            <stop offset="100%" stop-color="#6DA77D"/>
        </linearGradient>
        <linearGradient id="8b0fkh7s5B" x1="50%" x2="50%" y1="100.107%" y2=".128%">
            <stop offset="0%" stop-color="#3C778E"/>
            <stop offset="100%" stop-color="#BDD98E"/>
        </linearGradient>
        <linearGradient id="b9t2qpm6cC" x1="49.961%" x2="49.961%" y1="100%" y2="0%">
            <stop offset="0%" stop-color="#44757A" stop-opacity="0"/>
            <stop offset="43%" stop-color="#44757A" stop-opacity=".48"/>
            <stop offset="81%" stop-color="#44757A" stop-opacity=".86"/>
            <stop offset="100%" stop-color="#44757A"/>
        </linearGradient>
        <linearGradient id="mqwr6kcwaD" x1="50.038%" x2="50.038%" y1="99.935%" y2="0%">
            <stop offset="0%" stop-color="#44757A" stop-opacity="0"/>
            <stop offset="43%" stop-color="#44757A" stop-opacity=".48"/>
            <stop offset="81%" stop-color="#44757A" stop-opacity=".86"/>
            <stop offset="100%" stop-color="#44757A"/>
        </linearGradient>
        <linearGradient id="tn2k71kztE" x1="50%" x2="50%" y1="100%" y2="0%">
            <stop offset="0%" stop-color="#44757A" stop-opacity="0"/>
            <stop offset="43%" stop-color="#44757A" stop-opacity=".48"/>
            <stop offset="81%" stop-color="#44757A" stop-opacity=".86"/>
            <stop offset="100%" stop-color="#44757A"/>
        </linearGradient>
        <linearGradient id="rnwv3iljpF" x1="50%" x2="50%" y1="100%" y2="0%">
            <stop offset="0%" stop-color="#44757A" stop-opacity="0"/>
            <stop offset="43%" stop-color="#44757A" stop-opacity=".48"/>
            <stop offset="81%" stop-color="#44757A" stop-opacity=".86"/>
            <stop offset="100%" stop-color="#44757A"/>
        </linearGradient>
        <linearGradient id="pl17tuh1bG" x1="50.039%" x2="50.039%" y1="100%" y2="0%">
            <stop offset="0%" stop-color="#44757A" stop-opacity="0"/>
            <stop offset="43%" stop-color="#44757A" stop-opacity=".48"/>
            <stop offset="81%" stop-color="#44757A" stop-opacity=".86"/>
            <stop offset="100%" stop-color="#44757A"/>
        </linearGradient>
        <linearGradient id="m1u7ec335H" x1="13.447%" x2="95.612%" y1="27.132%" y2="75.243%">
            <stop offset="0%" stop-color="#7EA596"/>
            <stop offset="39%" stop-color="#4E8C95"/>
            <stop offset="79%" stop-color="#217493"/>
            <stop offset="100%" stop-color="#0F6B93"/>
        </linearGradient>
        <filter id="7ckp1tdmka" width="103.2%" height="105.5%" x="-1.6%" y="-2.8%" filterUnits="objectBoundingBox">
            <feOffset dy="2" in="SourceAlpha" result="shadowOffsetOuter1"/>
            <feGaussianBlur in="shadowOffsetOuter1" result="shadowBlurOuter1" stdDeviation="5"/>
            <feColorMatrix in="shadowBlurOuter1" result="shadowMatrixOuter1" values="0 0 0 0 0 0 0 0 0 0 0 0 0 0 0 0 0 0 0.5 0"/>
            <feMerge>
                <feMergeNode in="shadowMatrixOuter1"/>
                <feMergeNode in="SourceGraphic"/>
            </feMerge>
        </filter>
        <path id="8fduowobrb" d="M0 0.133H1448V835.678H0z"/>
    </defs>
    <g fill="none" fill-rule="evenodd" filter="url(#7ckp1tdmka)" opacity=".878" transform="translate(17 17)">
        <mask id="bkrl38f00d" fill="#fff">
            <use xlink:href="#8fduowobrb"/>
        </mask>
        <use fill="url(#45wiqcx4hc)" fill-rule="nonzero" xlink:href="#8fduowobrb"/>
        <g fill-rule="nonzero" mask="url(#bkrl38f00d)" opacity=".38">
            <g transform="translate(5 217.679)">
                <path fill="url(#cb0isagome)" d="M1437.083 37.27s-83.58-3.82-114.277 57.913c-30.696 61.733-102.435 24.135-112.533 97.172-10.098 73.038-92.49 131.465-92.49 131.465h319.3V37.27z"/>
                <ellipse cx="973.212" cy="245.832" fill="#F3FCD0" rx="128.015" ry="114.438"/>
                <path fill="url(#wlfqtn2n1f)" d="M0 2.208S135.162-16.84 205.944 57.465c70.78 74.306 132.211 20.555 183.333 23.98 51.122 3.427 89.52 78.794 163.693 80.027 74.173 1.233 98.47-59.437 158.559-54.812 60.089 4.624 111.268 178.345 309.47 217.21H0V2.209z"/>
                <path fill="url(#4m1zu9qm0g)" d="M1437.083 222.536c-5.748-3.597-15.463-1.455-16.363 6.527v.29c-.128 1.059-.346 2.107-.652 3.135-7.166-25.573-24.105-54.812-25.408-68.6v-.549c-2.222-20.006-35.064-20.006-37.287 0v.548c-1.035 10.946-11.822 31.466-19.85 52.192-4.274-9.866-8.087-18.62-8.604-24.152-.01-.137-.01-.274 0-.41-1.706-15.194-26.653-15.194-28.34 0-.009.136-.009.273 0 .41-.651 6.852-6.342 18.688-11.745 31.466-3.354-7.81-6.055-14.611-6.477-19.184v-.412c-1.705-15.193-26.634-15.193-28.339 0v.412c-.498 5.395-4.158 13.891-8.316 23.483-10.366-26.104-23.53-51.523-24.91-65.312v-.72c-2.912-26.138-45.852-26.138-48.764 0v.72c-1.265 13.703-14.199 38.711-24.507 64.541-4.14-9.609-7.665-18.036-8.086-23.62v-.48c-1.917-17.557-30.812-17.557-32.766 0v.48c-1.073 11.442-14.275 34.754-21.077 56.148-1.448-3.186-2.464-6.516-3.028-9.917v-.292c-1.226-10.98-19.16-10.98-20.464 0v.292c-.862 9.335-14.696 31.363-15.635 46.813v27.406h390.618V222.536z"/>
                <path fill="url(#0mms1a7kph)" d="M0 323.82H1437.083V612.322H0z"/>
                <path fill="url(#3fsu0e04wi)" d="M1257.85 230.758v-.668c-2.72-24.408-42.806-24.408-45.527 0v.668c-2.069 22.268-37.345 76.995-34.758 111.338 2.587 34.343 38.322 39.396 57.598 39.396 19.276 0 54.993-5.138 57.58-39.396 2.586-34.258-32.804-89.07-34.893-111.338z"/>
                <path fill="#2F2833" d="M1236.811 331.014c-.287-12.881-.306-14.286-.575-25.694 10.138-.608 19.623-4.688 26.481-11.39l5.748-5.619-5.614 5.02c-7.144 6.363-16.743 10.04-26.825 10.276-.518-23.226-1.17-52.91-1.17-52.91l-1.436 64.558c-9.955-.318-19.408-3.99-26.462-10.277l-5.614-5.019 5.748 5.601c6.818 6.633 16.219 10.679 26.27 11.305l-.575 25.693c-9.741-.448-18.951-4.11-25.848-10.277l-5.614-5.019 5.748 5.619c6.673 6.494 15.828 10.516 25.657 11.27l-1.552 60.226h7.262s-.9-31.415-1.801-71.942c9.957-.622 19.278-4.602 26.078-11.133l5.748-5.602-5.614 5.02c-6.949 6.202-16.231 9.871-26.04 10.294z"/>
                <path fill="url(#lzh30rcr0j)" d="M1352.314 268.545v-.651c-2.72-24.409-42.786-24.409-45.507 0v.65c-2.07 22.268-37.345 76.995-34.758 111.338 2.586 34.344 38.322 39.397 57.598 39.397 19.276 0 54.992-5.139 57.483-39.397 2.491-34.257-32.746-89.07-34.816-111.337z"/>
                <path fill="#2F2833" d="M1331.276 368.8c-.288-12.881-.326-14.286-.575-25.693 10.146-.582 19.65-4.637 26.538-11.323l5.748-5.618-5.614 5.019c-7.12 6.344-16.68 10.02-26.73 10.277-.517-23.21-1.169-52.91-1.169-52.91l-1.456 64.558c-9.953-.325-19.403-3.995-26.461-10.277l-5.595-5.02 5.748 5.602c6.823 6.637 16.23 10.689 26.289 11.322l-.575 25.693c-9.746-.453-18.96-4.114-25.867-10.277l-5.595-5.019 5.748 5.619c6.68 6.496 15.841 10.517 25.676 11.27l-1.437 60.226h7.262s-.9-31.398-1.801-71.856c9.923-.712 19.18-4.743 25.925-11.288l5.748-5.618-5.614 5.018c-6.983 6.241-16.329 9.914-26.193 10.295z"/>
                <path fill="url(#pw0ym7ktek)" d="M0 323.82h580.18c-4.772-20.247-19.162-44.536-20.292-55.79.01-.136.01-.273 0-.41-1.706-15.262-26.826-15.262-28.455 0 .01.137.01.274 0 .41-.383 4.129-2.606 10.073-5.499 16.924-8.277-25.06-23.357-51.918-24.603-65.244v-.565c-2.337-20.983-36.77-20.983-39.127 0v.565c-1.284 13.806-17.398 42.154-25.446 67.95-2.95-6.851-5.326-12.863-5.748-16.871.01-.12.01-.24 0-.36-1.456-13.155-22.993-13.155-24.526 0-.01.12-.01.24 0 .36-.535 3.422-1.506 6.778-2.894 10.003-9.197-34.703-32.803-75.042-34.49-93.986v-.72c-2.989-26.755-46.925-26.755-49.818 0v.72c-1.342 14.25-15.061 40.646-25.695 67.642-1.714-4.233-2.896-8.622-3.526-13.087v-.548c-2.28-20.4-35.774-20.4-38.035 0v.548c-.479 4.985-2.95 11.99-6.246 19.972-12.34-30.832-27.707-60.687-29.221-76.994 0-.291 0-.565-.096-.856-3.487-31.363-54.992-31.363-58.48 0v.856c-1.533 16.512-17.245 46.933-29.68 78.176-7.377-17.403-15.08-33.435-15.942-42.822v-.565c-2.338-20.983-36.79-20.983-39.127 0v.565c-.575 6.047-3.986 14.868-8.316 25.042-12.455-33.555-30.773-67.573-32.42-85.284v-.84c-1.917-16.477-17.246-23.98-31.56-22.85L0 323.82z"/>
                <path fill="url(#dho5tdezfl)" d="M191.611 211.317v-.89c-3.679-32.974-57.809-32.974-61.488 0v.89c-2.797 30.078-50.451 104.007-46.945 150.374 3.507 46.368 51.85 53.254 77.794 53.254 25.945 0 74.288-6.851 77.795-53.254 3.506-46.402-44.454-120.296-47.156-150.374z"/>
                <path fill="#2F2833" d="M163.1 346.824c-.384-17.403-.441-19.288-.786-34.79 13.712-.78 26.557-6.266 35.85-15.312l7.78-7.571-7.665 6.851c-9.61 8.58-22.523 13.555-36.1 13.909-.708-31.363-1.59-71.479-1.59-71.479l-1.916 87.22c-13.448-.439-26.213-5.407-35.735-13.908l-7.665-6.852 7.78 7.571c9.219 8.959 21.922 14.425 35.505 15.279l-.785 34.806c-13.13-.671-25.519-5.662-34.778-14.012l-7.664-6.765 7.78 7.57c9.027 8.77 21.399 14.202 34.68 15.228l-2.011 81.38h9.81s-1.226-42.412-2.452-97.07c13.409-.95 25.92-6.395 35.026-15.245l7.78-7.57-7.665 6.765c-9.37 8.416-21.913 13.406-35.18 13.995z"/>
                <path fill="url(#ml3vsr1rlm)" d="M384.66 297.15v-.72c-2.97-26.566-46.581-26.566-49.532 0v.72c-2.261 24.22-40.66 83.777-37.824 121.118 2.836 37.341 41.771 42.822 62.657 42.822 20.885 0 59.84-5.55 62.676-42.822 2.835-37.272-35.736-96.83-37.978-121.118z"/>
                <path fill="#2F2833" d="M361.762 406.295c-.307-14.011-.345-15.536-.633-28.023 11.045-.628 21.39-5.046 28.876-12.333l6.266-6.097-6.093 5.464c-7.748 6.906-18.15 10.912-29.087 11.202-.556-25.265-1.284-57.57-1.284-57.57l-1.57 70.228c-10.82-.353-21.09-4.356-28.743-11.202l-6.15-5.447 6.265 6.098c7.42 7.22 17.65 11.626 28.589 12.315l-.613 28.04c-10.6-.495-20.62-4.48-28.129-11.185l-6.112-5.464 6.227 6.167c7.27 7.066 17.237 11.441 27.937 12.264l-1.686 65.535h7.894s-.977-34.172-1.916-78.193c10.799-.766 20.874-5.153 28.205-12.282l6.266-6.115-6.093 5.464c-7.591 6.745-17.724 10.715-28.416 11.134z"/>
                <path fill="url(#mmi99gpctn)" d="M1178.255 282.813c.01-.165.01-.331 0-.497-2.05-18.328-32.133-18.328-34.183 0v.497c-1.553 16.718-28.033 57.81-26.098 83.572 1.935 25.762 28.742 29.598 43.19 29.598 14.447 0 41.291-3.836 43.227-29.598 1.935-25.762-24.565-66.854-26.136-83.572z"/>
                <path fill="#2F2833" d="M1162.466 358.077c-.21-9.66-.23-10.722-.421-19.338 7.622-.455 14.754-3.523 19.908-8.565l4.33-4.196-4.215 3.768c-5.343 4.764-12.518 7.527-20.062 7.725-.383-17.42-.881-39.722-.881-39.722l-1.092 48.475c-7.475-.24-14.57-3.007-19.851-7.742l-4.216-3.769 4.33 4.214c5.106 5.004 12.162 8.069 19.718 8.565l-.422 19.338c-7.313-.336-14.228-3.082-19.41-7.708l-4.216-3.768 4.33 4.196c4.986 4.859 11.817 7.882 19.162 8.48l-1.15 45.202h5.442s-.67-23.57-1.36-53.939c7.452-.532 14.405-3.56 19.467-8.478l4.33-4.214-4.215 3.768c-5.208 4.643-12.16 7.39-19.506 7.708z"/>
                <path fill="url(#6rdhl2tlco)" d="M280.691 320.993v-.736c-2.97-26.584-46.619-26.584-49.589 0v.736c-2.26 24.255-40.698 83.932-37.881 121.273 2.816 37.34 41.828 42.959 62.752 42.959s59.917-5.567 62.753-42.96c2.836-37.392-35.774-97.017-38.035-121.272z"/>
                <path fill="#2F2833" d="M257.774 430.207c-.325-14.029-.344-15.553-.632-28.057 11.058-.634 21.415-5.058 28.914-12.35l6.285-6.098-6.132 5.464c-7.744 6.924-18.157 10.938-29.105 11.22-.556-25.3-1.284-57.656-1.284-57.656l-1.571 70.348c-10.819-.373-21.082-4.38-28.742-11.22l-6.131-5.463 6.284 6.115c7.433 7.223 17.675 11.63 28.627 12.315l-.632 28.074c-10.609-.497-20.635-4.488-28.148-11.202l-6.131-5.464 6.284 6.098c7.271 7.077 17.247 11.46 27.956 12.281l-1.686 65.621h7.914s-.977-34.258-1.916-78.296c10.813-.767 20.902-5.16 28.243-12.299l6.285-6.115-6.132 5.482c-7.61 6.8-17.799 10.797-28.55 11.202z"/>
                <path fill="url(#06lecplqbp)" d="M504.071 401.088v-.565c-2.337-20.983-36.77-20.983-39.108 0v.565c-1.782 19.133-32.114 66.152-29.872 95.648 2.242 29.495 32.977 33.88 49.474 33.88 16.498 0 47.252-4.385 49.493-33.88 2.242-29.496-28.205-76.515-29.987-95.648z"/>
                <path fill="#2F2833" d="M486.002 487.28c-.249-11.065-.287-12.281-.498-22.13 8.718-.499 16.886-3.983 22.802-9.73l4.943-4.83-4.828 4.317c-6.123 5.462-14.347 8.63-22.993 8.855-.441-19.955-1.016-45.46-1.016-45.46l-1.226 55.464c-8.558-.276-16.682-3.433-22.745-8.839l-4.828-4.316 4.963 4.813c5.86 5.699 13.934 9.18 22.571 9.73l-.498 22.13c-8.368-.397-16.278-3.545-22.208-8.839l-4.828-4.316 4.963 4.83c5.74 5.575 13.608 9.028 22.054 9.678l-1.341 51.746h6.246s-.766-26.978-1.552-61.664c8.533-.607 16.494-4.077 22.285-9.712l4.943-4.813-4.828 4.316c-5.981 5.31-13.96 8.436-22.38 8.77z"/>
                <path fill="url(#u2wohuhs9q)" d="M448.485 612.321L487.574 550.332 481.327 550.332 434.267 612.321z"/>
                <path fill="url(#09yujc82jr)" d="M1333.115 442.249L1411.925 512.957 1396.577 512.957 1325.872 442.249z"/>
                <path fill="url(#xadrjxq7as)" d="M1238.632 404.462L1317.422 475.17 1302.074 475.17 1231.389 404.462z"/>
                <path fill="url(#tgh7z804mt)" d="M1163.846 413.215L1246.737 483.94 1231.389 483.94 1158.385 413.215z"/>
                <path fill="url(#2rha8yyhgu)" d="M355.898 486.218L296.556 556.926 311.905 556.926 363.64 486.218z"/>
                <path fill="url(#h6ihn5u85v)" d="M251.854 510.233L192.512 580.941 207.841 580.941 259.767 510.233z"/>
                <path fill="url(#x4ly68ceuw)" d="M155.876 445.948L96.534 516.656 111.882 516.656 165.59 445.948z"/>
                <path fill="url(#zzcvjpc6qx)" d="M193.316 612.321c-9.58-44.33-42.154-98.68-44.492-123.413v-.891c-3.679-32.973-57.809-32.973-61.488 0 0 .291 0 .6-.095.89-2.3 24.735-34.912 79.085-44.493 123.414h150.568z"/>
                <path fill="#2F2833" d="M116.001 605.247l-.172 7.074h4.311c-.172-7.64-.268-11.819-.498-22.781 13.706-.783 26.543-6.27 35.831-15.313l7.78-7.571-7.665 6.851c-9.612 8.58-22.522 13.56-36.1 13.926-.708-31.38-1.59-71.496-1.59-71.496l-1.916 87.22c-13.449-.436-26.216-5.405-35.735-13.908l-7.665-6.852 7.895 7.657c9.239 8.93 21.948 14.366 35.524 15.193z"/>
                <path fill="url(#rcl3kbxy9y)" d="M1437.083 464.636c-2.562-5.876-4.356-11.998-5.346-18.242v-.634c-2.567-22.918-40.238-22.918-42.767 0v.634c-1.916 20.914-35.103 72.335-32.67 104.589 2.433 32.253 36.08 37.032 54.11 37.032 9.136.08 18.216-1.277 26.826-4.008l-.153-119.371z"/>
                <path fill="#2F2833" d="M1437.083 530.77v-.376l-.575.514c-6.54 5.846-15.287 9.298-24.526 9.677-.268-12.11-.306-13.429-.536-24.203 9.528-.55 18.451-4.366 24.91-10.654l.708-.685v-.377l-.575.514c-6.678 5.972-15.659 9.435-25.1 9.678-.499-21.805-1.112-49.674-1.112-49.674l-1.36 60.653c-9.374-.295-18.274-3.752-24.91-9.677l-5.27-4.71 5.404 5.275c6.416 6.227 15.252 10.026 24.699 10.62l-.498 24.169c-9.15-.43-17.797-3.871-24.278-9.661l-5.269-4.71 5.404 5.275c6.285 6.101 14.898 9.878 24.143 10.586l-1.457 56.525h6.822s-.843-29.496-1.706-67.505c9.333-.662 18.04-4.456 24.373-10.62l.71-.633z"/>
                <path fill="url(#wdx412pagz)" d="M710.992 327.708c-18.893.496-33.474 15.244-33.474 32.134v10.79c0 10.407 9.436 18.842 21.077 18.842h27.036c11.64 0 21.078-8.435 21.078-18.841v-11.99c.037-8.389-3.751-16.429-10.49-22.266-6.74-5.837-15.849-8.968-25.227-8.67z"/>
                <path fill="#2F2833" d="M713.426 373.528c-.23-5.704-.25-4.745-.441-9.832 7.664-.257 14.984-3.632 20.234-6.595l4.407-2.484-4.292 2.227c-6.27 3-13.275 4.566-20.387 4.556-.384-10.277-.901-23.432-.901-23.432l-1.092 28.605c-7.05-.024-13.984-1.594-20.196-4.573l-4.273-2.227 4.388 2.5c5.212 2.93 12.397 6.304 20.042 6.578l-.421 9.832c-6.895-.066-13.668-1.63-19.736-4.556l-4.273-2.21 4.388 2.484c5.116 2.878 12.09 6.235 19.583 6.56l-.441 14.029h4.043c-.192-4.488-.402-13.703-.613-19.184 7.664-.309 14.639-3.666 19.774-6.578l4.407-2.484-4.292 2.227c-6.123 2.944-12.956 4.508-19.908 4.557z"/>
                <path fill="url(#napva2x09A)" d="M562.647 313.08c-18.893.514-33.455 15.244-33.455 32.133v10.792c0 10.406 9.436 18.841 21.077 18.841h27.036c11.64 0 21.077-8.435 21.077-18.841v-12.076c.012-8.377-3.79-16.397-10.531-22.216-6.74-5.82-15.84-8.936-25.204-8.633z"/>
                <path fill="#2F2833" d="M565.08 358.9c-.23-5.704-.249-4.745-.44-9.833 7.664-.256 14.984-3.614 20.234-6.594l4.407-2.484-4.292 2.227c-6.262 3.026-13.27 4.61-20.388 4.608-.383-10.278-.9-23.45-.9-23.45l-1.093 28.605c-7.05-.018-13.986-1.588-20.195-4.573l-4.273-2.295 4.388 2.483c5.211 2.947 12.397 6.304 20.061 6.578l-.44 9.849c-6.894-.075-13.665-1.638-19.736-4.556l-4.273-2.227 4.388 2.484c5.116 2.877 12.11 6.235 19.582 6.577l-.44 14.029h4.043c-.192-4.488-.403-13.703-.614-19.185 7.57-.325 14.64-3.682 19.775-6.577l4.407-2.484-4.292 2.21c-6.114 2.971-12.95 4.554-19.909 4.607z"/>
                <path fill="url(#8b0fkh7s5B)" d="M661.786 350.25c-14.658.393-25.944 11.818-25.944 24.922v8.376c0 8.04 7.292 14.56 16.287 14.56h20.962c8.991-.01 16.277-6.523 16.287-14.56v-9.318c.003-6.48-2.928-12.686-8.126-17.204-5.197-4.517-12.22-6.962-19.466-6.777z"/>
                <path fill="#2F2833" d="M663.664 385.843c-.172-4.42-.191-3.683-.345-7.622 5.638-.48 11.042-2.25 15.693-5.139l3.41-1.918-3.314 1.713c-4.857 2.34-10.29 3.558-15.808 3.545-.306-7.982-.69-18.173-.69-18.173l-.862 22.181c-5.465-.013-10.842-1.231-15.655-3.545l-3.314-1.713 3.41 1.935c4.606 2.868 9.955 4.637 15.54 5.14l-.345 7.621c-5.354-.048-10.614-1.26-15.329-3.528l-3.315-1.713 3.41 1.936c4.496 2.826 9.715 4.593 15.177 5.138l-.269 10.791h3.143c-.154-3.425-.307-10.585-.48-14.885 5.516-.518 10.793-2.287 15.33-5.138l3.41-1.919-3.315 1.713c-4.756 2.306-10.071 3.536-15.482 3.58z"/>
                <path fill="url(#8b0fkh7s5B)" d="M763.57 350.25c-14.658.393-25.944 11.818-25.944 24.922v8.376c0 8.04 7.292 14.56 16.287 14.56h20.962c8.99-.01 16.277-6.523 16.287-14.56v-9.318c.003-6.48-2.928-12.686-8.126-17.204-5.198-4.517-12.22-6.962-19.466-6.777z"/>
                <path fill="#2F2833" d="M765.448 385.843c-.172-4.42-.192-3.683-.345-7.622 5.643-.484 11.052-2.253 15.712-5.139l3.41-1.918-3.333 1.713c-4.857 2.34-10.29 3.558-15.808 3.545-.307-7.982-.69-18.173-.69-18.173l-.862 22.181c-5.465-.013-10.842-1.231-15.655-3.545l-3.315-1.713 3.411 1.935c4.606 2.868 9.955 4.637 15.54 5.14l-.345 7.621c-5.354-.048-10.615-1.26-15.33-3.528l-3.314-1.713 3.41 1.936c4.496 2.826 9.715 4.593 15.176 5.138l-.345 10.894h3.143c-.153-3.426-.307-10.585-.48-14.885 5.515-.526 10.789-2.294 15.33-5.138l3.41-1.919-3.334 1.713c-4.737 2.257-10.018 3.45-15.386 3.477z"/>
                <path fill="url(#8b0fkh7s5B)" d="M1076.299 350.25c-14.659.393-25.944 11.818-25.944 24.922v8.376c0 8.04 7.291 14.56 16.286 14.56h20.963c8.99-.01 16.276-6.523 16.287-14.56v-9.318c.003-6.48-2.929-12.686-8.126-17.204-5.198-4.517-12.22-6.962-19.466-6.777z"/>
                <path fill="#2F2833" d="M1078.176 385.843c-.172-4.42-.191-3.683-.344-7.622 5.642-.484 11.052-2.253 15.712-5.139l3.41-1.918-3.334 1.713c-4.857 2.34-10.29 3.558-15.808 3.545-.306-7.982-.69-18.173-.69-18.173l-.862 22.181c-5.465-.013-10.841-1.231-15.654-3.545l-3.315-1.713 3.41 1.935c4.606 2.868 9.955 4.637 15.54 5.14l-.326 7.621c-5.353-.05-10.614-1.26-15.328-3.528l-3.315-1.713 3.41 1.936c4.497 2.823 9.715 4.59 15.176 5.138l-.345 10.894h3.257c-.153-3.426-.306-10.585-.479-14.885 5.514-.526 10.788-2.294 15.33-5.138l3.41-1.919-3.334 1.713c-4.778 2.276-10.107 3.47-15.52 3.477z"/>
                <path fill="url(#b9t2qpm6cC)" d="M661.02 402.492L639.77 428.665 646.879 428.665 664.162 402.492z"/>
                <path fill="url(#mqwr6kcwaD)" d="M561.746 380.379L540.477 406.569 547.605 406.569 565.713 380.379z"/>
                <path fill="url(#tn2k71kztE)" d="M710.015 394.99L688.765 421.18 695.874 421.18 714.058 394.99z"/>
                <path fill="url(#rnwv3iljpF)" d="M762.785 402.492L741.535 428.665 748.644 428.665 765.946 402.492z"/>
                <path fill="url(#pl17tuh1bG)" d="M1078.617 402.492L1099.886 428.665 1092.758 428.665 1075.456 402.492z"/>
                <path fill="url(#m1u7ec335H)" d="M841.824 377.33c11.976 12.367 27.726 20.28 43.266 26.755 15.555 6.2 31.521 11.543 47.807 15.999 32.114 9.078 64.228 16.58 95.384 25.282 31.156 8.701 61.43 18.414 88.812 31.106 27.38 12.693 51.524 28.417 68.06 47.704 8.185 9.391 14.753 19.824 19.487 30.952 5.1 11.849 8.948 24.098 11.496 36.587 1.332 6.79 2.062 13.663 2.185 20.555h81.128c-1.672-12.739-4.7-25.306-9.044-37.53-5.817-16.131-13.323-31.736-22.419-46.607-9.486-15.637-21.524-29.925-35.716-42.394-28.033-24.751-61.775-40.339-94.962-51.164-66.93-21.463-134.128-26.259-198.356-36.553-15.906-2.416-31.634-5.688-47.098-9.798-15.08-4.265-29.834-9.763-41.062-18.722-5.622-4.44-10.111-9.907-13.164-16.032-2.956-5.964-2.73-12.804.613-18.602 2.62-4.284 6.17-8.058 10.443-11.1h-7.07c-3.358 2.333-6.309 5.098-8.757 8.205-2.668 3.466-4.412 7.433-5.097 11.596-.631 4.2-.315 8.469.939 12.556 2.593 7.84 7.072 15.077 13.125 21.205z"/>
                <path fill="#0D5770" d="M1229.243 488.257c14.093 12.56 26.02 26.922 35.39 42.616 8.965 14.94 16.349 30.595 22.055 46.762 3.905 11.323 6.694 22.929 8.335 34.686h4.522c-1.672-12.738-4.7-25.305-9.044-37.53-5.817-16.13-13.323-31.736-22.419-46.607-9.486-15.637-21.524-29.925-35.716-42.394-28.033-24.751-61.776-40.338-94.963-51.164-66.91-21.462-134.127-26.258-198.279-36.553 63.826 10.603 129.204 16.65 195.559 38.403 33.11 11.048 66.719 26.824 94.56 51.78zM848.703 369.57c11.152 9.028 25.868 14.629 40.909 18.98 15.041 4.35 32.344 6.646 48.363 9.352l.996.154c-15.878-2.418-31.58-5.684-47.021-9.78-15.08-4.266-29.834-9.764-41.063-18.722-5.621-4.44-10.11-9.908-13.163-16.033-2.956-5.964-2.73-12.804.613-18.602 2.62-4.284 6.17-8.057 10.443-11.1h-1.916c-4.297 3.012-7.874 6.763-10.52 11.032-3.401 5.775-3.683 12.618-.766 18.601 3.031 6.152 7.508 11.65 13.125 16.119z"/>
            </g>
        </g>
        <g fill="#FFF" fill-rule="nonzero" mask="url(#bkrl38f00d)">
            <g>
                <path d="M1261.123 66.443L1258.015 66.012 1256.617 63.374 1255.238 66.012 1252.129 66.443 1254.373 68.494 1253.84 71.408 1256.617 70.029 1259.413 71.408 1258.879 68.494zM261.818 87.872L258.71 87.44 257.312 84.797 255.932 87.44 252.824 87.872 255.068 89.928 254.535 92.83 257.312 91.465 260.107 92.83 259.574 89.928zM765.468 22.706L762.359 22.275 760.98 19.637 759.582 22.275 756.474 22.706 758.718 24.757 758.203 27.67 760.98 26.291 763.757 27.67 763.224 24.757zM495.655 26.276L492.547 25.845 491.168 23.208 489.77 25.845 486.662 26.276 488.905 28.327 488.372 31.241 491.168 29.862 493.945 31.241 493.411 28.327zM86.94 70.013L83.831 69.582 82.452 66.945 81.054 69.582 77.946 70.013 80.19 72.065 79.656 74.978 82.452 73.599 85.229 74.978 84.696 72.065zM8.994 3.069L5.892 2.638 4.497 0 3.102 2.638 0 3.069 2.258 5.12 1.725 8.033 4.497 6.654 7.268 8.033 6.736 5.12zM1046.272 53.061L1043.17 52.629 1041.776 49.985 1040.381 52.629 1037.279 53.061 1039.536 55.116 1039.004 58.019 1041.776 56.654 1044.547 58.019 1044.015 55.116zM223.844 194.084L220.724 193.653 219.347 191.016 217.953 193.653 214.851 194.084 217.108 196.136 216.576 199.049 219.347 197.67 222.119 199.049 221.587 196.136zM8.994 165.528L5.892 165.096 4.497 162.453 3.102 165.096 0 165.528 2.258 167.584 1.725 170.486 4.497 169.121 7.268 170.486 6.736 167.584zM1128.215 211.044L1125.095 210.63 1123.719 207.975 1122.324 210.63 1119.222 211.044 1121.461 213.095 1120.929 216.008 1123.719 214.629 1126.49 216.008 1125.958 213.095zM1231.144 228.902L1228.024 228.47 1226.647 225.827 1225.252 228.47 1222.15 228.902 1224.408 230.958 1223.875 233.86 1226.647 232.495 1229.419 233.86 1228.886 230.958zM1002.303 280.655L999.195 280.241 997.797 277.597 996.418 280.241 993.309 280.655 995.553 282.728 995.02 285.631 997.797 284.266 1000.593 285.631 1000.059 282.728z" transform="translate(82.946 5.133)"/>
            </g>
        </g>
    </g>
</svg>
