<?xml version="1.0" encoding="UTF-8"?>
<svg width="1440px" height="855px" viewBox="0 0 1440 855" version="1.1" xmlns="http://www.w3.org/2000/svg" xmlns:xlink="http://www.w3.org/1999/xlink">
    <title>BGLogin</title>
    <defs>
        <filter x="-1.6%" y="-2.8%" width="103.2%" height="105.5%" filterUnits="objectBoundingBox" id="filter-1">
            <feOffset dx="0" dy="2" in="SourceAlpha" result="shadowOffsetOuter1"></feOffset>
            <feGaussianBlur stdDeviation="5" in="shadowOffsetOuter1" result="shadowBlurOuter1"></feGaussianBlur>
            <feColorMatrix values="0 0 0 0 0   0 0 0 0 0   0 0 0 0 0  0 0 0 0.5 0" type="matrix" in="shadowBlurOuter1" result="shadowMatrixOuter1"></feColorMatrix>
            <feMerge>
                <feMergeNode in="shadowMatrixOuter1"></feMergeNode>
                <feMergeNode in="SourceGraphic"></feMergeNode>
            </feMerge>
        </filter>
        <linearGradient x1="99.9746667%" y1="33.5919862%" x2="-0.452%" y2="66.5645089%" id="linearGradient-2">
            <stop stop-color="#C8EAC0" offset="32%"></stop>
            <stop stop-color="#BFE8C4" offset="42%"></stop>
            <stop stop-color="#A7E1CE" offset="57%"></stop>
            <stop stop-color="#80D7E0" offset="76%"></stop>
            <stop stop-color="#51CAF4" offset="96%"></stop>
        </linearGradient>
        <rect id="path-3" x="0" y="0.133472367" width="1448" height="835.54536"></rect>
        <linearGradient x1="50%" y1="100%" x2="50%" y2="-0.00176694379%" id="linearGradient-5">
            <stop stop-color="#3BD4C3" offset="0%"></stop>
            <stop stop-color="#187A93" offset="100%"></stop>
        </linearGradient>
        <linearGradient x1="50.0009384%" y1="99.9841326%" x2="50.0009384%" y2="-0.0014140798%" id="linearGradient-6">
            <stop stop-color="#3BD4C3" offset="0%"></stop>
            <stop stop-color="#187A93" offset="100%"></stop>
        </linearGradient>
        <linearGradient x1="49.9264201%" y1="100.037709%" x2="49.9264201%" y2="-0.00471364601%" id="linearGradient-7">
            <stop stop-color="#3C3461" offset="0%"></stop>
            <stop stop-color="#3A3A63" offset="16%"></stop>
            <stop stop-color="#354B69" offset="37%"></stop>
            <stop stop-color="#2D6672" offset="61%"></stop>
            <stop stop-color="#228C7F" offset="87%"></stop>
            <stop stop-color="#1CA286" offset="100%"></stop>
        </linearGradient>
        <linearGradient x1="50%" y1="118.339963%" x2="50%" y2="0%" id="linearGradient-8">
            <stop stop-color="#18A0B2" offset="0%"></stop>
            <stop stop-color="#18A6B2" offset="44%"></stop>
            <stop stop-color="#18B6B2" offset="100%"></stop>
        </linearGradient>
        <linearGradient x1="49.8923003%" y1="100%" x2="49.8923003%" y2="0.0075698317%" id="linearGradient-9">
            <stop stop-color="#1C548E" offset="0%"></stop>
            <stop stop-color="#3CA773" offset="100%"></stop>
        </linearGradient>
        <linearGradient x1="49.9210572%" y1="100.010094%" x2="49.9210572%" y2="-0.00252353194%" id="linearGradient-10">
            <stop stop-color="#1C548E" offset="0%"></stop>
            <stop stop-color="#3CA773" offset="100%"></stop>
        </linearGradient>
        <linearGradient x1="49.9983487%" y1="128.792561%" x2="49.9983487%" y2="-0.0411767329%" id="linearGradient-11">
            <stop stop-color="#3C3461" offset="0%"></stop>
            <stop stop-color="#3A3A63" offset="16%"></stop>
            <stop stop-color="#354B69" offset="37%"></stop>
            <stop stop-color="#2D6672" offset="61%"></stop>
            <stop stop-color="#228C7F" offset="87%"></stop>
            <stop stop-color="#1CA286" offset="100%"></stop>
        </linearGradient>
        <linearGradient x1="49.8160645%" y1="100%" x2="49.8160645%" y2="-0.00186793686%" id="linearGradient-12">
            <stop stop-color="#1C548E" offset="0%"></stop>
            <stop stop-color="#3CA773" offset="100%"></stop>
        </linearGradient>
        <linearGradient x1="49.8706122%" y1="100.074237%" x2="49.8706122%" y2="0.0394385802%" id="linearGradient-13">
            <stop stop-color="#1C548E" offset="0%"></stop>
            <stop stop-color="#3CA773" offset="100%"></stop>
        </linearGradient>
        <linearGradient x1="49.933677%" y1="100%" x2="49.933677%" y2="-0.00672178531%" id="linearGradient-14">
            <stop stop-color="#3C778E" offset="0%"></stop>
            <stop stop-color="#A9D99F" offset="100%"></stop>
        </linearGradient>
        <linearGradient x1="49.8776217%" y1="100%" x2="49.8776217%" y2="0%" id="linearGradient-15">
            <stop stop-color="#3C778E" offset="0%"></stop>
            <stop stop-color="#A9D99F" offset="100%"></stop>
        </linearGradient>
        <linearGradient x1="49.874667%" y1="100%" x2="49.874667%" y2="0.00880927911%" id="linearGradient-16">
            <stop stop-color="#3C778E" offset="0%"></stop>
            <stop stop-color="#A9D99F" offset="100%"></stop>
        </linearGradient>
        <linearGradient x1="18.7678858%" y1="107.046145%" x2="81.1789532%" y2="0.11052777%" id="linearGradient-17">
            <stop stop-color="#44757A" stop-opacity="0" offset="0%"></stop>
            <stop stop-color="#44757A" stop-opacity="0.48" offset="43%"></stop>
            <stop stop-color="#44757A" stop-opacity="0.86" offset="81%"></stop>
            <stop stop-color="#44757A" offset="100%"></stop>
        </linearGradient>
        <linearGradient x1="77.1543086%" y1="82.8750239%" x2="17.7020708%" y2="10.8934417%" id="linearGradient-18">
            <stop stop-color="#44757A" stop-opacity="0" offset="0%"></stop>
            <stop stop-color="#44757A" stop-opacity="0.48" offset="43%"></stop>
            <stop stop-color="#44757A" stop-opacity="0.86" offset="81%"></stop>
            <stop stop-color="#44757A" offset="100%"></stop>
        </linearGradient>
        <linearGradient x1="77.1714922%" y1="82.8733062%" x2="17.7060134%" y2="10.8760204%" id="linearGradient-19">
            <stop stop-color="#44757A" stop-opacity="0" offset="0%"></stop>
            <stop stop-color="#44757A" stop-opacity="0.48" offset="43%"></stop>
            <stop stop-color="#44757A" stop-opacity="0.86" offset="81%"></stop>
            <stop stop-color="#44757A" offset="100%"></stop>
        </linearGradient>
        <linearGradient x1="76.7295597%" y1="81.5273818%" x2="18.2173064%" y2="12.4977021%" id="linearGradient-20">
            <stop stop-color="#44757A" stop-opacity="0" offset="0%"></stop>
            <stop stop-color="#44757A" stop-opacity="0.48" offset="43%"></stop>
            <stop stop-color="#44757A" stop-opacity="0.86" offset="81%"></stop>
            <stop stop-color="#44757A" offset="100%"></stop>
        </linearGradient>
        <linearGradient x1="21.398006%" y1="94.4282946%" x2="84.0267318%" y2="-2.85852713%" id="linearGradient-21">
            <stop stop-color="#44757A" stop-opacity="0" offset="0%"></stop>
            <stop stop-color="#44757A" stop-opacity="0.48" offset="43%"></stop>
            <stop stop-color="#44757A" stop-opacity="0.86" offset="81%"></stop>
            <stop stop-color="#44757A" offset="100%"></stop>
        </linearGradient>
        <linearGradient x1="21.2858154%" y1="94.4767442%" x2="84.1528677%" y2="-2.88275194%" id="linearGradient-22">
            <stop stop-color="#44757A" stop-opacity="0" offset="0%"></stop>
            <stop stop-color="#44757A" stop-opacity="0.48" offset="43%"></stop>
            <stop stop-color="#44757A" stop-opacity="0.86" offset="81%"></stop>
            <stop stop-color="#44757A" offset="100%"></stop>
        </linearGradient>
        <linearGradient x1="20.2521711%" y1="94.8643411%" x2="85.3586294%" y2="-3.36724806%" id="linearGradient-23">
            <stop stop-color="#44757A" stop-opacity="0" offset="0%"></stop>
            <stop stop-color="#44757A" stop-opacity="0.48" offset="43%"></stop>
            <stop stop-color="#44757A" stop-opacity="0.86" offset="81%"></stop>
            <stop stop-color="#44757A" offset="100%"></stop>
        </linearGradient>
        <linearGradient x1="49.9745482%" y1="153.822946%" x2="49.9745482%" y2="-0.00287331552%" id="linearGradient-24">
            <stop stop-color="#1C548E" offset="0%"></stop>
            <stop stop-color="#3CA773" offset="100%"></stop>
        </linearGradient>
        <linearGradient x1="49.8422634%" y1="99.9979599%" x2="49.8422634%" y2="-0.00537132513%" id="linearGradient-25">
            <stop stop-color="#3C778E" offset="0%"></stop>
            <stop stop-color="#A9D99F" offset="100%"></stop>
        </linearGradient>
        <linearGradient x1="49.902878%" y1="99.8891088%" x2="49.902878%" y2="0.00388213026%" id="linearGradient-26">
            <stop stop-color="#1C548E" offset="0%"></stop>
            <stop stop-color="#6DA77D" offset="100%"></stop>
        </linearGradient>
        <linearGradient x1="49.8753626%" y1="99.9168324%" x2="49.8753626%" y2="0.00486427068%" id="linearGradient-27">
            <stop stop-color="#1C548E" offset="0%"></stop>
            <stop stop-color="#6DA77D" offset="100%"></stop>
        </linearGradient>
        <linearGradient x1="49.9999979%" y1="100.107351%" x2="49.9999979%" y2="0.12782875%" id="linearGradient-28">
            <stop stop-color="#3C778E" offset="0%"></stop>
            <stop stop-color="#BDD98E" offset="100%"></stop>
        </linearGradient>
        <linearGradient x1="49.9607227%" y1="100%" x2="49.9607227%" y2="0%" id="linearGradient-29">
            <stop stop-color="#44757A" stop-opacity="0" offset="0%"></stop>
            <stop stop-color="#44757A" stop-opacity="0.48" offset="43%"></stop>
            <stop stop-color="#44757A" stop-opacity="0.86" offset="81%"></stop>
            <stop stop-color="#44757A" offset="100%"></stop>
        </linearGradient>
        <linearGradient x1="50.0379651%" y1="99.9345978%" x2="50.0379651%" y2="0%" id="linearGradient-30">
            <stop stop-color="#44757A" stop-opacity="0" offset="0%"></stop>
            <stop stop-color="#44757A" stop-opacity="0.48" offset="43%"></stop>
            <stop stop-color="#44757A" stop-opacity="0.86" offset="81%"></stop>
            <stop stop-color="#44757A" offset="100%"></stop>
        </linearGradient>
        <linearGradient x1="50%" y1="100%" x2="50%" y2="0%" id="linearGradient-31">
            <stop stop-color="#44757A" stop-opacity="0" offset="0%"></stop>
            <stop stop-color="#44757A" stop-opacity="0.48" offset="43%"></stop>
            <stop stop-color="#44757A" stop-opacity="0.86" offset="81%"></stop>
            <stop stop-color="#44757A" offset="100%"></stop>
        </linearGradient>
        <linearGradient x1="50%" y1="100%" x2="50%" y2="0%" id="linearGradient-32">
            <stop stop-color="#44757A" stop-opacity="0" offset="0%"></stop>
            <stop stop-color="#44757A" stop-opacity="0.48" offset="43%"></stop>
            <stop stop-color="#44757A" stop-opacity="0.86" offset="81%"></stop>
            <stop stop-color="#44757A" offset="100%"></stop>
        </linearGradient>
        <linearGradient x1="50.0392157%" y1="100%" x2="50.0392157%" y2="0%" id="linearGradient-33">
            <stop stop-color="#44757A" stop-opacity="0" offset="0%"></stop>
            <stop stop-color="#44757A" stop-opacity="0.48" offset="43%"></stop>
            <stop stop-color="#44757A" stop-opacity="0.86" offset="81%"></stop>
            <stop stop-color="#44757A" offset="100%"></stop>
        </linearGradient>
        <linearGradient x1="13.4469325%" y1="27.1322582%" x2="95.6116568%" y2="75.2433519%" id="linearGradient-34">
            <stop stop-color="#7EA596" offset="0%"></stop>
            <stop stop-color="#4E8C95" offset="39%"></stop>
            <stop stop-color="#217493" offset="79%"></stop>
            <stop stop-color="#0F6B93" offset="100%"></stop>
        </linearGradient>
    </defs>
    <g id="Criadores" stroke="none" stroke-width="1" fill="none" fill-rule="evenodd" opacity="0.852078">
        <g id="AdminLgin" transform="translate(0.000000, -1.000000)">
            <g id="Group" transform="translate(0.000000, -1.000000)">
                <g id="BGLogin" filter="url(#filter-1)" opacity="0.877627418" transform="translate(-4.000000, 10.500000)">
                    <mask id="mask-4" fill="white">
                        <use xlink:href="#path-3"></use>
                    </mask>
                    <use id="Rectangle" fill="url(#linearGradient-2)" fill-rule="nonzero" xlink:href="#path-3"></use>
                    <g id="imagembgLogin" opacity="0.380090216" mask="url(#mask-4)" fill-rule="nonzero">
                        <g transform="translate(5.000000, 217.678832)">
                            <path d="M1437.08319,37.2705395 C1437.08319,37.2705395 1353.50244,33.4508001 1322.80634,95.1832696 C1292.11024,156.915739 1220.37105,119.317856 1210.27314,192.355384 C1200.17524,265.392911 1117.78247,323.819508 1117.78247,323.819508 L1437.08319,323.819508 L1437.08319,37.2705395 Z" id="Path" fill="url(#linearGradient-5)"></path>
                            <ellipse id="Oval" fill="#F3FCD0" cx="973.2119" cy="245.831735" rx="128.015371" ry="114.438021"></ellipse>
                            <path d="M0,2.20773012 C0,2.20773012 135.162465,-16.8395801 205.943602,57.4654844 C276.72474,131.770549 338.155256,78.0201357 389.277096,81.445911 C440.398935,84.8716862 478.797798,160.238741 552.970452,161.47202 C627.143106,162.705299 651.439392,102.03482 711.528631,106.659617 C771.61787,111.284413 822.797193,285.005475 1020.99971,323.870894 L0,323.870894 L0,2.20773012 Z" id="Path" fill="url(#linearGradient-6)"></path>
                            <path d="M1437.08319,222.536463 C1431.33486,218.939399 1421.62018,221.080509 1420.71961,229.062565 C1420.71961,229.165338 1420.71961,229.250983 1420.71961,229.353756 C1420.59184,230.411894 1420.37405,231.45979 1420.06813,232.48834 C1412.90187,206.914928 1395.96345,177.675937 1394.6605,163.887192 L1394.6605,163.339068 C1392.43781,143.33254 1359.59567,143.33254 1357.37298,163.339068 L1357.37298,163.887192 C1356.33828,174.832543 1345.55058,195.352937 1337.52207,216.078877 C1333.24914,206.212644 1329.43608,197.459789 1328.91873,191.927162 C1328.90924,191.790262 1328.90924,191.652968 1328.91873,191.516069 C1327.21339,176.322756 1302.26563,176.322756 1300.57945,191.516069 C1300.56996,191.652968 1300.56996,191.790262 1300.57945,191.927162 C1299.92797,198.778712 1294.23712,210.614766 1288.83369,223.392907 C1285.4805,215.58214 1282.77878,208.781976 1282.35724,204.208566 C1282.35724,204.071535 1282.35724,203.934504 1282.35724,203.797473 C1280.6519,188.60416 1255.7233,188.60416 1254.01796,203.797473 C1254.01796,203.934504 1254.01796,204.071535 1254.01796,204.208566 C1253.51977,209.604162 1249.86,218.100084 1245.70203,227.692255 C1235.33587,201.587848 1222.17219,176.168596 1220.79259,162.379851 L1220.79259,161.660438 C1217.8801,135.521773 1174.94006,135.521773 1172.02757,161.660438 C1172.02757,161.900242 1172.02757,162.140046 1172.02757,162.379851 C1170.76294,176.082951 1157.82919,201.091111 1147.52051,226.921456 C1143.38171,217.312156 1139.85607,208.884749 1139.43452,203.300736 L1139.43452,202.821127 C1137.51841,185.264029 1108.62346,185.264029 1106.66903,202.821127 C1106.66903,202.992416 1106.66903,203.146576 1106.66903,203.300736 C1105.596,214.742825 1092.394,238.055225 1085.59181,259.449191 C1084.14414,256.262984 1083.12777,252.933485 1082.56435,249.531572 C1082.56435,249.428799 1082.56435,249.343154 1082.56435,249.240381 C1081.33804,238.260772 1063.40324,238.260772 1062.10029,249.240381 C1062.10029,249.343154 1062.10029,249.428799 1062.10029,249.531572 C1061.23804,258.86681 1047.40372,280.894544 1046.46482,296.34479 L1046.46482,296.34479 L1046.46482,323.750992 L1437.08319,323.750992 L1437.08319,222.536463 Z" id="Path" fill="url(#linearGradient-7)"></path>
                            <rect id="Rectangle" fill="url(#linearGradient-8)" x="0" y="323.819508" width="1437.08319" height="288.50166"></rect>
                            <path d="M1257.85018,230.758324 L1257.85018,230.090298 C1255.1293,205.681649 1215.04426,205.681649 1212.32338,230.090298 C1212.32338,230.312973 1212.32338,230.535649 1212.32338,230.758324 C1210.25398,253.025863 1174.97838,307.752622 1177.56513,342.096019 C1180.15188,376.439415 1215.88735,381.492434 1235.16342,381.492434 C1254.4395,381.492434 1290.15581,376.353771 1292.74256,342.096019 C1295.32931,307.838266 1259.93874,253.025863 1257.85018,230.758324 Z" id="Path" fill="url(#linearGradient-9)"></path>
                            <path d="M1236.81128,331.013636 C1236.52386,318.132721 1236.5047,316.728153 1236.23645,305.320322 C1246.37435,304.711744 1255.85924,300.631798 1262.7171,293.929619 L1268.46543,288.311348 L1262.85123,293.330108 C1255.70656,299.69377 1246.10793,303.371168 1236.02567,303.607434 C1235.50832,280.380678 1234.85685,250.696336 1234.85685,250.696336 L1233.41976,315.25507 C1223.46456,314.936944 1214.01205,311.265703 1206.95827,304.977744 L1201.34407,299.958983 L1207.0924,305.560126 C1213.90954,312.193011 1223.31061,316.238695 1233.36228,316.865184 L1232.78745,342.558498 C1223.04553,342.11016 1213.83568,338.448315 1206.93911,332.281173 L1201.32491,327.262412 L1207.07324,332.880683 C1213.74633,339.375453 1222.90127,343.397149 1232.72996,344.151484 L1231.17791,404.376612 L1238.43997,404.376612 C1238.43997,404.376612 1237.5394,372.962253 1236.63883,332.435332 C1246.59596,331.812949 1255.91711,327.833408 1262.7171,321.301563 L1268.46543,315.70042 L1262.85123,320.719181 C1255.90198,326.921683 1246.61994,330.591181 1236.81128,331.013636 Z" id="Path" fill="#2F2833"></path>
                            <path d="M1352.31445,268.544625 C1352.31445,268.321949 1352.31445,268.099274 1352.31445,267.893727 C1349.59357,243.485079 1309.52769,243.485079 1306.80681,267.893727 C1306.80681,268.099274 1306.80681,268.321949 1306.80681,268.544625 C1304.73741,290.812164 1269.46181,345.538923 1272.04856,379.882319 C1274.63531,414.225716 1310.37078,419.278734 1329.64685,419.278734 C1348.92293,419.278734 1384.63924,414.140071 1387.13018,379.882319 C1389.62113,345.624567 1354.38385,290.812164 1352.31445,268.544625 Z" id="Path" fill="url(#linearGradient-10)"></path>
                            <path d="M1331.27555,368.799936 C1330.98813,355.919022 1330.94981,354.514454 1330.70072,343.106622 C1340.84685,342.525447 1350.35186,338.470244 1357.23885,331.784435 L1362.98718,326.166164 L1357.37298,331.184924 C1350.25219,337.528553 1340.69208,341.20432 1330.64323,341.46225 C1330.12588,318.252623 1329.4744,288.551152 1329.4744,288.551152 L1328.01816,353.109886 C1318.06466,352.785036 1308.61478,349.114816 1301.55667,342.83256 L1295.96162,337.8138 L1301.70996,343.414942 C1308.53339,350.052387 1317.93984,354.103564 1327.999,354.737129 L1327.42417,380.430443 C1317.67811,379.976624 1308.46435,376.315936 1301.55667,370.153118 L1295.96162,365.134357 L1301.70996,370.752628 C1308.39008,377.248506 1317.55138,381.269991 1327.38584,382.023429 L1325.94876,442.248557 L1333.21082,442.248557 C1333.21082,442.248557 1332.31025,410.851327 1331.40968,370.392922 C1341.33255,369.681115 1350.59017,365.650279 1357.33466,359.104993 L1363.08299,353.486721 L1357.46879,358.505482 C1350.48632,364.74608 1341.14003,368.419354 1331.27555,368.799936 L1331.27555,368.799936 Z" id="Path" fill="#2F2833"></path>
                            <path d="M0,323.819508 L580.179227,323.819508 C575.408111,303.573176 561.018118,279.28443 559.887612,268.030758 C559.897103,267.893859 559.897103,267.756565 559.887612,267.619665 C558.182274,252.357837 533.062059,252.357837 531.433365,267.619665 C531.442856,267.756565 531.442856,267.893859 531.433365,268.030758 C531.050143,272.158817 528.827454,278.102537 525.934127,284.954088 C517.656528,259.894542 502.576735,233.036464 501.331263,219.710199 L501.331263,219.144946 C498.993607,198.162073 464.561094,198.162073 462.204277,219.144946 L462.204277,219.710199 C460.920483,233.516073 444.80599,261.864363 436.758324,287.66045 C433.807514,280.8089 431.431536,274.796664 431.009992,270.788507 C431.019455,270.668754 431.019455,270.548554 431.009992,270.428801 C429.553747,257.273824 408.01666,257.273824 406.483772,270.428801 C406.474308,270.548554 406.474308,270.668754 406.483772,270.788507 C405.948709,274.210562 404.977969,277.566753 403.590444,280.791771 C394.393112,246.088668 370.786625,205.750165 369.100448,186.805628 C369.100448,186.565824 369.100448,186.326019 369.100448,186.086215 C366.111315,159.330911 322.174891,159.330911 319.281564,186.086215 C319.281564,186.326019 319.281564,186.565824 319.281564,186.805628 C317.940286,201.056853 304.220932,227.452451 293.586516,254.44756 C291.873465,250.215405 290.691016,245.826397 290.060872,241.361098 L290.060872,240.812974 C287.7807,220.412483 254.287081,220.412483 252.02607,240.812974 L252.02607,241.361098 C251.547042,246.345601 249.075259,253.351311 245.779548,261.333368 C233.439794,230.501391 218.072584,200.64576 216.558857,184.33907 C216.558857,184.047879 216.558857,183.773817 216.463051,183.482626 C212.975729,152.119654 161.470668,152.119654 157.983346,183.482626 C157.983346,183.773817 157.983346,184.047879 157.983346,184.33907 C156.450457,200.851306 140.738347,231.27219 128.302788,262.51526 C120.925761,245.112322 113.222995,229.079694 112.360745,219.69307 L112.360745,219.127817 C110.023089,198.144944 75.5714149,198.144944 73.2337596,219.127817 L73.2337596,219.69307 C72.6589263,225.739563 69.2482488,234.560934 64.9178382,244.735487 C52.4631171,211.180019 34.1450967,177.162071 32.4972413,159.450813 C32.4972413,159.159622 32.4972413,158.88556 32.4972413,158.611498 C30.5811304,142.133519 15.252243,134.631071 0.938894354,135.761577 L0,323.819508 Z" id="Path" fill="url(#linearGradient-11)"></path>
                            <path d="M191.611093,211.31705 C191.611093,211.00873 191.611093,210.717539 191.611093,210.426348 C187.93216,177.453261 133.802026,177.453261 130.123093,210.426348 C130.123093,210.717539 130.123093,211.00873 130.123093,211.31705 C127.325571,241.395356 79.6718923,315.323585 83.1783753,361.691453 C86.6848583,408.05932 135.028337,414.945129 160.972479,414.945129 C186.916621,414.945129 235.260099,408.093578 238.766582,361.691453 C242.273065,315.289327 194.312809,241.395356 191.611093,211.31705 Z" id="Path" fill="url(#linearGradient-12)"></path>
                            <path d="M163.099362,346.823588 C162.71614,329.42065 162.658656,327.536474 162.313757,312.034841 C176.025929,311.254713 188.870539,305.768245 198.164192,296.721626 L205.943602,289.150663 L198.279159,296.002213 C188.668574,304.581678 175.755926,309.556742 162.179629,309.91086 C161.470668,278.547888 160.589257,238.43206 160.589257,238.43206 L158.673146,325.652297 C145.224821,325.213065 132.459546,320.244677 122.937677,311.74365 L115.273233,304.8921 L123.052644,312.463063 C132.271513,321.421688 144.974876,326.888276 158.558179,327.74202 L157.772574,362.547897 C144.642276,361.87696 132.254239,356.885962 122.99516,348.536476 L115.330717,341.77057 L123.110127,349.341533 C132.138085,358.110612 144.509745,363.542607 157.791735,364.569104 L155.779818,445.948394 L165.590306,445.948394 C165.590306,445.948394 164.363995,403.537297 163.137684,348.879053 C176.546585,347.929944 189.058409,342.484382 198.164192,333.634354 L205.943602,326.063391 L198.279159,332.829297 C188.909482,341.245364 176.365561,346.235253 163.099362,346.823588 Z" id="Path" fill="#2F2833"></path>
                            <path d="M384.659268,297.149848 C384.659268,296.892915 384.659268,296.65311 384.659268,296.430435 C381.689296,269.863548 338.078612,269.863548 335.127801,296.430435 C335.127801,296.65311 335.127801,296.892915 335.127801,297.149848 C332.86679,321.370078 294.467927,380.927181 297.303771,418.268131 C300.139615,455.60908 339.074989,461.090321 359.960598,461.090321 C380.846208,461.090321 419.800743,455.540565 422.636587,418.268131 C425.472431,380.995696 386.901118,321.438594 384.659268,297.149848 Z" id="Path" fill="url(#linearGradient-13)"></path>
                            <path d="M361.761743,406.295046 C361.455165,392.283626 361.416843,390.759156 361.129426,378.272205 C372.173793,377.644453 382.519583,373.225787 390.005218,365.939414 L396.270901,359.841534 L390.177668,365.305646 C382.429734,372.21205 372.027899,376.218172 361.091104,376.507931 C360.535432,351.242838 359.80731,318.937778 359.80731,318.937778 L358.236099,389.16617 C347.416315,388.812641 337.147464,384.810277 329.494435,377.963885 L323.343719,372.516902 L329.609401,378.614782 C337.028847,385.834193 347.258207,390.240927 358.197776,390.930444 L357.584621,418.970414 C346.985102,418.474886 336.965598,414.490682 329.456113,407.785258 L323.343719,402.321147 L329.571079,408.487542 C336.841185,415.553517 346.808193,419.929025 357.507976,420.751818 L355.821799,486.286898 L363.716176,486.286898 C363.716176,486.286898 362.738959,452.11479 361.800065,408.093578 C372.598598,407.328187 382.674027,402.94103 390.005218,395.812174 L396.270901,389.697165 L390.177668,395.161277 C382.586849,401.905932 372.454072,405.8761 361.761743,406.295046 L361.761743,406.295046 Z" id="Path" fill="#2F2833"></path>
                            <path d="M1178.25493,282.812978 C1178.26511,282.647524 1178.26511,282.481695 1178.25493,282.316241 C1176.20469,263.988344 1146.12175,263.988344 1144.07151,282.316241 L1144.07151,282.812978 C1142.51946,299.530761 1116.03881,340.622935 1117.97408,366.384765 C1119.90935,392.146595 1146.71574,395.983463 1161.16322,395.983463 C1175.6107,395.983463 1202.45541,392.146595 1204.39068,366.384765 C1206.32596,340.622935 1179.82614,299.530761 1178.25493,282.812978 Z" id="Path" fill="url(#linearGradient-14)"></path>
                            <path d="M1162.46618,358.07726 C1162.2554,348.416574 1162.23624,347.354584 1162.04463,338.738759 C1169.66741,338.284025 1176.79945,335.215876 1181.95302,330.174321 L1186.28344,325.977746 L1182.06799,329.746099 C1176.72464,334.510186 1169.54978,337.273 1162.00631,337.471222 C1161.62309,320.051155 1161.1249,297.749358 1161.1249,297.749358 L1160.03272,346.224078 C1152.55761,345.984154 1145.46293,343.217089 1140.18181,338.481826 L1135.96636,334.713473 L1140.29677,338.927176 C1145.40216,343.930773 1152.45801,346.995643 1160.01355,347.491615 L1159.59201,366.830116 C1152.27857,366.493841 1145.36368,363.747864 1140.18181,359.122121 L1135.96636,355.353769 L1140.29677,359.550343 C1145.28155,364.408991 1152.11335,367.432066 1159.45788,368.029137 L1158.30822,413.232241 L1163.74997,413.232241 C1163.74997,413.232241 1163.07933,389.662907 1162.38953,359.29341 C1169.84221,358.761425 1176.79525,355.733153 1181.85722,350.814616 L1186.18763,346.600913 L1181.97219,350.369266 C1176.76406,355.011586 1169.81232,357.758635 1162.46618,358.07726 Z" id="Path" fill="#2F2833"></path>
                            <path d="M280.691089,320.993243 C280.691089,320.73631 280.691089,320.496506 280.691089,320.256702 C277.721118,293.672686 234.072111,293.672686 231.102139,320.256702 C231.102139,320.496506 231.102139,320.73631 231.102139,320.993243 C228.841128,345.247732 190.403943,404.924736 193.220626,442.265686 C196.037309,479.606636 235.049327,485.224907 255.973259,485.224907 C276.89719,485.224907 315.890047,479.658022 318.725891,442.265686 C321.561736,404.873349 282.9521,345.247732 280.691089,320.993243 Z" id="Path" fill="url(#linearGradient-15)"></path>
                            <path d="M257.774403,430.206957 C257.448664,416.178408 257.429503,414.653938 257.142086,402.149858 C268.199692,401.51578 278.557133,397.091865 286.0562,389.799938 L292.341044,383.702059 L286.209489,389.16617 C278.465353,396.090158 268.052049,400.104185 257.103764,400.385584 C256.548092,375.086234 255.81997,342.729787 255.81997,342.729787 L254.248759,413.078081 C243.430189,412.704833 233.166895,408.698518 225.507095,401.858667 L219.37554,396.394556 L225.660384,402.509565 C233.092799,409.73255 243.335493,414.139121 254.287081,414.825226 L253.654764,442.899454 C243.046348,442.40188 233.019501,438.411369 225.507095,431.697169 L219.37554,426.233058 L225.660384,432.330938 C232.931022,439.408428 242.906654,443.790834 253.616442,444.612342 L251.930264,510.233066 L259.843803,510.233066 C259.843803,510.233066 258.866586,475.975314 257.927692,431.936974 C268.740989,431.170498 278.830146,426.777207 286.171167,419.638441 L292.456011,413.523432 L286.324456,419.004672 C278.714,425.804599 268.525036,429.802479 257.774403,430.206957 L257.774403,430.206957 Z" id="Path" fill="#2F2833"></path>
                            <path d="M504.071301,401.087868 L504.071301,400.522615 C501.733646,379.539742 467.301133,379.539742 464.963477,400.522615 C464.963477,400.711033 464.963477,400.89945 464.963477,401.087868 C463.181494,420.220822 432.849458,467.239587 435.091308,496.735512 C437.333158,526.231437 468.067577,530.616429 484.565292,530.616429 C501.063007,530.616429 531.816587,526.231437 534.058437,496.735512 C536.300287,467.239587 505.853284,420.220822 504.071301,401.087868 Z" id="Path" fill="url(#linearGradient-16)"></path>
                            <path d="M486.002375,487.280372 C485.753281,476.215118 485.714959,474.998968 485.504186,465.149864 C494.222327,464.651412 502.389585,461.166548 508.305906,455.420663 L513.249473,450.59032 L508.420873,454.906797 C502.298149,460.369217 494.074055,463.536636 485.427542,463.762425 C484.986836,443.807285 484.412003,418.302388 484.412003,418.302388 L483.185692,473.765689 C474.628378,473.49029 466.503888,470.333081 460.441455,464.927189 L455.612856,460.610712 L460.575583,465.423926 C466.435423,471.122541 474.510457,474.603153 483.14737,475.153128 L482.649181,497.283636 C474.280502,496.886924 466.371158,493.739068 460.441455,488.445136 L455.612856,484.128659 L460.575583,488.959002 C466.316834,494.53418 474.184398,497.986584 482.63002,498.636817 L481.288742,550.383152 L487.535264,550.383152 C487.535264,550.383152 486.76882,523.405172 485.983214,488.719198 C494.516218,488.111809 502.476686,484.642443 508.267584,479.007125 L513.21115,474.193911 L508.382551,478.510388 C502.401705,483.819468 494.422712,486.946147 486.002375,487.280372 L486.002375,487.280372 Z" id="Path" fill="#2F2833"></path>
                            <polygon id="Path" fill="url(#linearGradient-17)" points="448.484923 612.321168 487.573586 550.331765 481.327064 550.331765 434.26738 612.321168"></polygon>
                            <polygon id="Path" fill="url(#linearGradient-18)" points="1333.11502 442.248557 1411.92466 512.956558 1396.57661 512.956558 1325.87212 442.248557"></polygon>
                            <polygon id="Path" fill="url(#linearGradient-19)" points="1238.63159 404.462256 1317.42207 475.170257 1302.07402 475.170257 1231.38869 404.462256"></polygon>
                            <polygon id="Path" fill="url(#linearGradient-20)" points="1163.84578 413.215112 1246.73673 483.940242 1231.38869 483.940242 1158.38486 413.215112"></polygon>
                            <polygon id="Path" fill="url(#linearGradient-21)" points="355.898443 486.218382 296.556488 556.926383 311.904536 556.926383 363.639531 486.218382"></polygon>
                            <polygon id="Path" fill="url(#linearGradient-22)" points="251.85362 510.233066 192.511665 580.941067 207.840552 580.941067 259.767158 510.233066"></polygon>
                            <polygon id="Path" fill="url(#linearGradient-23)" points="155.875624 445.948394 96.5336684 516.656395 111.881717 516.656395 165.590306 445.948394"></polygon>
                            <path d="M193.316431,612.321168 C183.735877,567.991637 151.161991,513.641713 148.824336,488.907616 C148.824336,488.616425 148.824336,488.308105 148.824336,488.016914 C145.145403,455.043828 91.015269,455.043828 87.336336,488.016914 C87.336336,488.308105 87.336336,488.616425 87.2405304,488.907616 C84.9411973,513.641713 52.3289894,567.991637 42.7484347,612.321168 L193.316431,612.321168 Z" id="Path" fill="url(#linearGradient-24)"></path>
                            <path d="M116.001355,605.246942 L115.828905,612.321168 L120.140155,612.321168 C119.967705,604.681689 119.8719,600.502243 119.641966,589.539763 C133.347884,588.757059 146.185483,583.270653 155.47324,574.226547 L163.252651,566.655584 L155.588207,573.507135 C145.976233,582.087053 133.065936,587.067337 119.488677,587.432911 C118.779716,556.05281 117.898305,515.936982 117.898305,515.936982 L115.982194,603.157219 C102.533012,602.721358 89.7664184,597.752456 80.2467256,589.248572 L72.5822819,582.397021 L80.4766589,590.053629 C89.7159195,598.984508 102.424991,604.419964 116.001355,605.246942 Z" id="Path" fill="#2F2833"></path>
                            <path d="M1437.08319,464.635998 C1434.52071,458.759747 1432.72681,452.638353 1431.73724,446.393745 L1431.73724,445.759977 C1429.16966,422.84154 1391.49892,422.84154 1388.96965,445.759977 L1388.96965,446.393745 C1387.05354,467.308103 1353.8665,518.728989 1356.29996,550.982663 C1358.73342,583.236336 1392.38033,588.015293 1410.41093,588.015293 C1419.54638,588.094185 1428.62629,586.737505 1437.23648,584.007136 L1437.08319,464.635998 Z" id="Path" fill="url(#linearGradient-25)"></path>
                            <path d="M1437.08319,530.770589 L1437.08319,530.393754 L1436.50836,530.90762 C1429.96841,536.75397 1421.22128,540.205508 1411.98214,540.585435 C1411.71389,528.475319 1411.67556,527.156396 1411.44563,516.382333 C1420.97414,515.832326 1429.89744,512.01569 1436.35507,505.728172 L1437.06403,505.043017 L1437.06403,504.666182 L1436.4892,505.180048 C1429.81088,511.152031 1420.83035,514.614512 1411.38815,514.857863 C1410.88996,493.052804 1410.2768,465.184122 1410.2768,465.184122 L1408.91636,525.837472 C1399.5432,525.542484 1390.64294,522.084557 1384.00692,516.159657 L1378.73762,511.449217 L1384.14105,516.72491 C1390.55679,522.9521 1399.3927,526.751355 1408.83972,527.344814 L1408.34153,551.513658 C1399.19229,551.08391 1390.54459,547.642701 1384.0644,541.852972 L1378.7951,537.142531 L1384.19853,542.418225 C1390.48423,548.519138 1399.09711,552.295508 1408.34153,553.00387 L1406.88529,609.529161 L1413.70664,609.529161 C1413.70664,609.529161 1412.86355,580.033236 1412.0013,542.02426 C1421.33412,541.362064 1430.04118,537.568174 1436.37423,531.404357 L1437.08319,530.770589 Z" id="Path" fill="#2F2833"></path>
                            <path d="M710.99212,327.707763 C692.099266,328.2045 677.517662,342.952462 677.517662,359.841534 L677.517662,370.632726 C677.517662,381.038745 686.954255,389.47449 698.594882,389.47449 L725.631207,389.47449 C737.271835,389.47449 746.708699,381.038745 746.708699,370.632726 L746.708699,358.642513 C746.745643,350.254016 742.957771,342.214093 736.218391,336.376954 C729.47901,330.539815 720.369997,327.409437 710.99212,327.707763 L710.99212,327.707763 Z" id="Path" fill="url(#linearGradient-26)"></path>
                            <path d="M713.425581,373.527506 C713.195648,367.82359 713.176486,368.782808 712.984875,363.695531 C720.649319,363.438598 727.968863,360.06421 733.219007,357.100914 L737.626062,354.617227 L733.333973,356.843981 C727.063473,359.84478 720.05903,361.410167 712.946553,361.400262 C712.563331,351.122936 712.045981,337.967959 712.045981,337.967959 L710.953798,366.573182 C703.904653,366.548956 696.969884,364.978554 690.757989,361.999773 L686.485061,359.773019 L690.872955,362.273835 C696.084777,365.202872 703.270193,368.577261 710.915476,368.851323 L710.493931,378.683298 C703.599434,378.616832 696.826341,377.053182 690.757989,374.127017 L686.485061,371.917392 L690.872955,374.401079 C695.988971,377.27873 702.963615,380.63599 710.455609,380.961438 L710.014903,394.989988 L714.057898,394.989988 C713.866286,390.502222 713.655514,381.286887 713.444742,375.805647 C721.109186,375.497327 728.083829,372.140067 733.219007,369.228158 L737.626062,366.744471 L733.333973,368.971225 C727.211294,371.915171 720.377532,373.479162 713.425581,373.527506 Z" id="Path" fill="#2F2833"></path>
                            <path d="M562.646812,313.079702 C543.753958,313.593569 529.191515,328.324402 529.191515,345.213474 L529.191515,356.004666 C529.191515,366.410685 538.628108,374.84643 550.268736,374.84643 L577.305061,374.84643 C588.945688,374.84643 598.382306,366.410685 598.382306,356.004666 L598.382306,343.928808 C598.393599,335.552076 594.591661,327.5318 587.851008,321.712844 C581.110356,315.893889 572.011286,312.777203 562.646812,313.079702 L562.646812,313.079702 Z" id="Path" fill="url(#linearGradient-27)"></path>
                            <path d="M565.080273,358.899446 C564.85034,353.19553 564.831179,354.154747 564.639568,349.067471 C572.304011,348.810538 579.623555,345.453278 584.873699,342.472854 L589.280754,339.989167 L584.988666,342.215921 C578.726574,345.241992 571.719719,346.82558 564.601245,346.823588 C564.218023,336.546263 563.700673,323.374157 563.700673,323.374157 L562.60849,351.97938 C555.558453,351.961466 548.622,350.390682 542.412681,347.40597 L538.139753,345.110701 L542.527647,347.594388 C547.739469,350.540554 554.924885,353.897814 562.589329,354.171876 L562.148623,364.02098 C555.255339,363.94635 548.484393,362.383196 542.412681,359.464699 L538.139753,357.237945 L542.527647,359.721632 C547.643664,362.599283 554.637469,365.956543 562.110301,366.29912 L561.669596,380.32767 L565.71259,380.32767 C565.520979,375.839904 565.310206,366.624569 565.099434,361.143329 C572.668072,360.81788 579.738522,357.46062 584.873699,354.56584 L589.280754,352.082153 L584.988666,354.291778 C578.87542,357.263396 572.038602,358.845733 565.080273,358.899446 Z" id="Path" fill="#2F2833"></path>
                            <path d="M661.786391,350.249364 C647.128143,350.643328 635.84225,362.068288 635.84225,375.171878 L635.84225,383.547899 C635.84225,391.588913 643.134162,398.107443 652.129192,398.107443 L673.091446,398.107443 C682.082099,398.098005 689.36783,391.585 689.378391,383.547899 L689.378391,374.22979 C689.381348,367.749275 686.450125,361.543583 681.252351,357.026156 C676.054577,352.508729 669.03282,350.064205 661.786391,350.249364 Z" id="Path" fill="url(#linearGradient-28)"></path>
                            <path d="M663.66418,385.843168 C663.49173,381.423918 663.472569,382.16046 663.31928,378.220818 C668.956892,377.740213 674.361235,375.970558 679.012229,373.082155 L682.422906,371.163721 L679.108034,372.876609 C674.25092,375.216098 668.817395,376.434824 663.300119,376.422286 C662.993541,368.44023 662.610319,358.248549 662.610319,358.248549 L661.748069,380.430443 C656.283173,380.416745 650.906329,379.198923 646.093443,376.884766 L642.778571,375.171878 L646.189249,377.107441 C650.79511,379.975337 656.144029,381.744121 661.728908,382.246104 L661.384008,389.868454 C656.030098,389.819504 650.769632,388.6086 646.055121,386.339906 L642.740249,384.627018 L646.150926,386.562581 C650.645876,389.388523 655.865234,391.155868 661.326525,391.701244 L661.058269,402.492436 L664.200691,402.492436 C664.047402,399.06666 663.894113,391.90679 663.721663,387.607442 C669.237333,387.089039 674.5136,385.32029 679.050551,382.46878 L682.461228,380.550345 L679.146356,382.263233 C674.390355,384.569444 669.074594,385.798604 663.66418,385.843168 L663.66418,385.843168 Z" id="Path" fill="#2F2833"></path>
                            <path d="M763.570204,350.249364 C748.911955,350.643328 737.626062,362.068288 737.626062,375.171878 L737.626062,383.547899 C737.626062,391.588913 744.917975,398.107443 753.913005,398.107443 L774.875258,398.107443 C783.865911,398.098005 791.151643,391.585 791.162203,383.547899 L791.162203,374.22979 C791.165161,367.749275 788.233938,361.543583 783.036164,357.026156 C777.83839,352.508729 770.816632,350.064205 763.570204,350.249364 L763.570204,350.249364 Z" id="Path" fill="url(#linearGradient-28)"></path>
                            <path d="M765.447993,385.843168 C765.275543,381.423918 765.256381,382.16046 765.103093,378.220818 C770.74581,377.737049 776.15548,375.967811 780.815202,373.082155 L784.22588,371.163721 L780.891847,372.876609 C776.034732,375.216098 770.601208,376.434824 765.083931,376.422286 C764.777354,368.44023 764.394132,358.248549 764.394132,358.248549 L763.531882,380.430443 C758.066986,380.416745 752.690141,379.198923 747.877255,376.884766 L744.562383,375.171878 L747.973061,377.107441 C752.578922,379.975337 757.927841,381.744121 763.51272,382.246104 L763.167821,389.868454 C757.813911,389.819504 752.553444,388.6086 747.838933,386.339906 L744.524061,384.627018 L747.934739,386.562581 C752.429688,389.388523 757.649046,391.155868 763.110337,391.701244 L762.765437,402.595209 L765.907859,402.595209 C765.75457,399.169434 765.601281,392.009564 765.428831,387.710216 C770.942549,387.18443 776.216809,385.416354 780.757719,382.571553 L784.168396,380.653119 L780.834363,382.366006 C776.096741,384.622965 770.816273,385.816297 765.447993,385.843168 Z" id="Path" fill="#2F2833"></path>
                            <path d="M1076.29867,350.249364 C1061.64042,350.643328 1050.35453,362.068288 1050.35453,375.171878 L1050.35453,383.547899 C1050.35453,391.588913 1057.64644,398.107443 1066.64147,398.107443 L1087.60372,398.107443 C1096.59438,398.098005 1103.88011,391.585 1103.89067,383.547899 L1103.89067,374.22979 C1103.89362,367.749275 1100.9624,361.543583 1095.76463,357.026156 C1090.56685,352.508729 1083.5451,350.064205 1076.29867,350.249364 L1076.29867,350.249364 Z" id="Path" fill="url(#linearGradient-28)"></path>
                            <path d="M1078.17646,385.843168 C1078.00401,381.423918 1077.98485,382.16046 1077.83156,378.220818 C1083.47427,377.737049 1088.88394,375.967811 1093.54367,373.082155 L1096.95434,371.163721 L1093.62031,372.876609 C1088.7632,375.216098 1083.32967,376.434824 1077.8124,376.422286 C1077.50582,368.44023 1077.1226,358.248549 1077.1226,358.248549 L1076.26035,380.430443 C1070.79545,380.416745 1065.41861,379.198923 1060.60572,376.884766 L1057.29085,375.171878 L1060.70153,377.107441 C1065.30739,379.975337 1070.65631,381.744121 1076.24118,382.246104 L1075.91545,389.868454 C1070.56164,389.818821 1065.30135,388.607958 1060.58656,386.339906 L1057.27169,384.627018 L1060.68236,386.562581 C1065.17887,389.385901 1070.39745,391.152984 1075.85796,391.701244 L1075.51306,402.595209 L1078.77045,402.595209 C1078.61716,399.169434 1078.46387,392.009564 1078.29142,387.710216 C1083.80514,387.18443 1089.0794,385.416354 1093.62031,382.571553 L1097.03099,380.653119 L1093.69696,382.366006 C1088.91925,384.641894 1083.59015,385.835807 1078.17646,385.843168 Z" id="Path" fill="#2F2833"></path>
                            <polygon id="Path" fill="url(#linearGradient-29)" points="661.019947 402.492436 639.770277 428.665358 646.879048 428.665358 664.162369 402.492436"></polygon>
                            <polygon id="Path" fill="url(#linearGradient-30)" points="561.74624 380.379057 540.477409 406.569108 547.605341 406.569108 565.71259 380.379057"></polygon>
                            <polygon id="Path" fill="url(#linearGradient-31)" points="710.014903 394.989988 688.765233 421.180039 695.874005 421.180039 714.057898 394.989988"></polygon>
                            <polygon id="Path" fill="url(#linearGradient-32)" points="762.784598 402.492436 741.534928 428.665358 748.6437 428.665358 765.946181 402.492436"></polygon>
                            <polygon id="Path" fill="url(#linearGradient-33)" points="1078.61716 402.492436 1099.88599 428.665358 1092.75806 428.665358 1075.45558 402.492436"></polygon>
                            <path d="M841.824174,377.330117 C853.799867,389.697165 869.550299,397.610706 885.089959,404.085421 C900.645426,410.285433 916.610952,415.628219 932.896926,420.083791 C965.010945,429.162096 997.124965,436.664543 1028.28093,445.366013 C1059.43689,454.067482 1089.71144,463.779554 1117.09267,476.472052 C1144.47389,489.164549 1168.61689,504.888857 1185.15293,524.175971 C1193.33784,533.567425 1199.90606,544.000036 1204.63978,555.127851 C1209.73937,566.976599 1213.58835,579.225681 1216.13644,591.71513 C1217.4675,598.504741 1218.19788,605.377571 1218.32081,612.269781 L1299.44895,612.269781 C1297.77689,599.531249 1294.74847,586.96447 1290.4049,574.740414 C1284.58823,558.608881 1277.08214,543.003856 1267.9864,528.132742 C1258.49979,512.495595 1246.46248,498.20774 1232.2701,485.738774 C1204.23739,460.987548 1170.49468,445.40027 1137.30764,434.574821 C1070.37789,413.112339 1003.17988,408.316254 938.951837,398.021799 C923.046326,395.605782 907.318405,392.33393 891.85383,388.224082 C876.774037,383.958992 862.019983,378.460623 850.791573,369.50222 C845.169792,365.062512 840.680608,359.594937 837.627891,353.469592 C834.672063,347.505607 834.89752,340.665688 838.241047,334.867633 C840.861565,330.583761 844.411785,326.810281 848.683851,323.768121 L841.613402,323.768121 C838.25642,326.100593 835.305379,328.865642 832.856775,331.972853 C830.188692,335.439225 828.445079,339.406252 827.75992,343.569102 C827.128749,347.768222 827.444866,352.037911 828.698814,356.124568 C831.291512,363.964223 835.771355,371.201932 841.824174,377.330117 L841.824174,377.330117 Z" id="Path" fill="url(#linearGradient-34)"></path>
                            <path d="M1229.24264,488.256718 C1243.33613,500.816481 1255.26327,515.178922 1264.63321,530.873362 C1273.59844,545.812325 1280.98204,561.467693 1286.68765,577.635194 C1290.59335,588.957509 1293.38236,600.563837 1295.02273,612.321168 L1299.54475,612.321168 C1297.87269,599.582635 1294.84428,587.015857 1290.50071,574.7918 C1284.68403,558.660267 1277.17795,543.055243 1268.08221,528.184128 C1258.5956,512.546982 1246.55829,498.259126 1232.3659,485.79016 C1204.3332,461.038934 1170.59049,445.451657 1137.40345,434.626207 C1070.49285,413.163725 1003.27568,408.36764 939.124287,398.073186 C1002.94994,408.67596 1068.32765,414.722453 1134.68257,436.476126 C1167.79296,447.524251 1201.40155,463.299946 1229.24264,488.256718 Z" id="Path" fill="#0D5770"></path>
                            <path d="M848.703012,369.570736 C859.854778,378.597654 874.57051,384.198796 889.611981,388.549531 C904.653451,392.900265 921.955933,395.195534 937.97462,397.901897 L938.970998,398.056057 C923.092922,395.637595 907.391047,392.371557 891.949636,388.275469 C876.869843,384.010378 862.115789,378.512009 850.887379,369.553607 C845.265598,365.113899 840.776414,359.646324 837.723697,353.520979 C834.767869,347.556993 834.993325,340.717075 838.336852,334.919019 C840.957371,330.635147 844.507591,326.861668 848.779657,323.819508 L846.863546,323.819508 C842.567396,326.830882 838.990395,330.581828 836.344097,334.850504 C832.942979,340.625644 832.661004,347.469305 835.577652,353.452463 C838.609463,359.604303 843.085784,365.101337 848.703012,369.570736 L848.703012,369.570736 Z" id="Path" fill="#0D5770"></path>
                        </g>
                    </g>
                    <g id="estrelinhasbg" mask="url(#mask-4)" fill="#FFFFFF" fill-rule="nonzero">
                        <g transform="translate(82.945796, 5.133472)" id="Path">
                            <polygon points="1261.123 66.442888 1258.01473 66.0119133 1256.61693 63.3743483 1255.23752 66.0119133 1252.12926 66.442888 1254.37309 68.4943275 1253.83972 71.4077164 1256.61693 70.0285974 1259.41254 71.4077164 1258.87916 68.4943275"></polygon>
                            <polygon points="261.817929 87.8718019 258.709661 87.4399004 257.31186 84.7966632 255.932451 87.4399004 252.824183 87.8718019 255.068022 89.9276531 254.53465 92.8300313 257.31186 91.4652225 260.107462 92.8300313 259.574091 89.9276531"></polygon>
                            <polygon points="765.467686 22.7056617 762.359418 22.2746871 760.980009 19.637122 759.582208 22.2746871 756.47394 22.7056617 758.717779 24.7571012 758.202799 27.6704901 760.980009 26.2913711 763.757219 27.6704901 763.223848 24.7571012"></polygon>
                            <polygon points="495.655316 26.2760476 492.547048 25.8450729 491.167639 23.2075078 489.769838 25.8450729 486.661571 26.2760476 488.905409 28.3274871 488.372038 31.2408759 491.167639 29.8617569 493.944849 31.2408759 493.411478 28.3274871"></polygon>
                            <polygon points="86.9395413 70.0132738 83.8312734 69.5822992 82.4518646 66.9447341 81.0540636 69.5822992 77.9457957 70.0132738 80.1896341 72.0647133 79.6562627 74.9781022 82.4518646 73.5989832 85.2290744 74.9781022 84.695703 72.0647133"></polygon>
                            <polygon points="8.99374566 3.06853974 5.89182113 2.63756506 4.49687283 -1.3500312e-13 3.10192452 2.63756506 -9.23705556e-14 3.06853974 2.25761371 5.11997923 1.7253308 8.03336809 4.49687283 6.65424911 7.26841486 8.03336809 6.73613195 5.11997923"></polygon>
                            <polygon points="1046.27241 53.0605402 1043.17049 52.6286387 1041.77554 49.9854015 1040.38059 52.6286387 1037.27867 53.0605402 1039.53628 55.1163914 1039.004 58.0187696 1041.77554 56.6539608 1044.54708 58.0187696 1044.0148 55.1163914"></polygon>
                            <polygon points="223.844336 194.084181 220.724057 193.653206 219.347464 191.015641 217.952515 193.653206 214.850591 194.084181 217.108204 196.135621 216.575921 199.049009 219.347464 197.66989 222.119006 199.049009 221.586723 196.135621"></polygon>
                            <polygon points="8.99374566 165.527693 5.89182113 165.095792 4.49687283 162.452555 3.10192452 165.095792 -9.23705556e-14 165.527693 2.25761371 167.583545 1.7253308 170.485923 4.49687283 169.121114 7.26841486 170.485923 6.73613195 167.583545"></polygon>
                            <polygon points="1128.21543 211.043514 1125.09515 210.629778 1123.71855 207.974974 1122.32361 210.629778 1119.22168 211.043514 1121.46094 213.094953 1120.92866 216.008342 1123.71855 214.629223 1126.4901 216.008342 1125.95781 213.094953"></polygon>
                            <polygon points="1231.14385 228.902042 1228.02357 228.47014 1226.64698 225.826903 1225.25203 228.47014 1222.1501 228.902042 1224.40772 230.957893 1223.87544 233.860271 1226.64698 232.495462 1229.41852 233.860271 1228.88624 230.957893"></polygon>
                            <polygon points="1002.30299 280.65536 999.19472 280.240735 997.796919 277.597497 996.41751 280.240735 993.309243 280.65536 995.553081 282.728487 995.019709 285.630865 997.796919 284.266057 1000.59252 285.630865 1000.05915 282.728487"></polygon>
                        </g>
                    </g>
                </g>
            </g>
        </g>
    </g>
</svg>