<?xml version="1.0" encoding="UTF-8"?>
<svg width="210px" height="120px" viewBox="0 0 210 120" version="1.1" xmlns="http://www.w3.org/2000/svg" xmlns:xlink="http://www.w3.org/1999/xlink">
    <title>Containbanner</title>
    <g id="symbols" stroke="none" stroke-width="1" fill="none" fill-rule="evenodd">
        <g id="Containbanner">
            <path d="M191.52,106 L25.52,106 C17.2357288,106 10.52,99.2842712 10.52,91 L10.52,19 C10.52,10 17.23,8 25.52,8 L191.52,8 C199.804271,8 206.52,14.7157288 206.52,23 L206.52,91 C206.52,99.2842712 199.804271,106 191.52,106 Z" id="Path" fill="#C6D8ED" fill-rule="nonzero"></path>
            <rect id="Rectangle" fill="#C6D8ED" fill-rule="nonzero" x="42.19" y="8" width="164.52" height="98" rx="5.69"></rect>
            <path d="M10.38,19 L10.38,13.65 C10.3863085,12.1462196 11.1040865,10.7061346 12.3754284,9.64655205 C13.6467704,8.58696949 15.367533,7.9946863 17.1591624,7.99996455 L199.600838,7.99996455 C201.392467,7.9946863 203.11323,8.58696949 204.384572,9.64655205 C205.655914,10.7061346 206.373691,12.1462196 206.38,13.65 L206.38,19 L10.38,19 Z" id="Path" fill="#B7C1DA" fill-rule="nonzero"></path>
            <circle id="Oval" fill="#2A4F9A" fill-rule="nonzero" cx="199.39" cy="13.54" r="1.66"></circle>
            <circle id="Oval" fill="#2A4F9A" fill-rule="nonzero" cx="191.33" cy="13.54" r="1.66"></circle>
            <circle id="Oval" fill="#2A4F9A" fill-rule="nonzero" cx="183.27" cy="13.54" r="1.66"></circle>
            <path d="M127.49,13.54 C127.377979,15.038671 126.079691,16.1674234 124.58,16.07 L50.74,16.07 C49.2422011,16.1672708 47.9468048,15.0371493 47.84,13.54 L47.84,13.54 C47.9415761,12.0388557 49.2385611,10.9028757 50.74,11 L124.58,11 C126.079691,10.9025766 127.377979,12.031329 127.49,13.53 L127.49,13.54 Z" id="Path" fill="#FFFFFF" fill-rule="nonzero"></path>
            <rect id="Rectangle" fill="#FFFFFF" fill-rule="nonzero" x="47.3" y="61.84" width="35.25" height="5.9"></rect>
            <rect id="Rectangle" fill="#FFFFFF" fill-rule="nonzero" x="47.3" y="71.33" width="35.25" height="5.9"></rect>
            <rect id="Rectangle" fill="#FFFFFF" fill-rule="nonzero" x="47.3" y="80.82" width="29.84" height="5.9"></rect>
            <rect id="Rectangle" fill="#FFFFFF" fill-rule="nonzero" x="47.3" y="90.3" width="13.77" height="5.9"></rect>
            <path d="M49.82,67.74 C51.1862855,69.8559821 50.9778706,72.622588 49.31,74.51 C46.31,78.25 47.56,67.94 47.56,67.94 L49.82,67.74 Z" id="Path" fill="#2A4F9A" fill-rule="nonzero"></path>
            <path d="M160.61,63.84 L160.61,101.58 L130.51,101.58 L130.51,63.84" id="Path" stroke="#353C73" stroke-dasharray="6"></path>
            <rect id="Rectangle" fill="#FFFFFF" fill-rule="nonzero" x="130.51" y="25.08" width="30.1" height="36.76"></rect>
            <path d="M142,35.22 C142,37.1856865 140.815899,38.9578189 138.999841,39.7100545 C137.183784,40.4622902 135.093411,40.0464892 133.703461,38.656539 C132.313511,37.2665887 131.89771,35.1762161 132.649945,33.3601585 C133.402181,31.544101 135.174313,30.36 137.14,30.36 C139.821822,30.3655012 141.994499,32.5381781 142,35.22 Z" id="Path" fill="#B7C1DA" fill-rule="nonzero"></path>
            <rect id="Rectangle" fill="#353C73" fill-rule="nonzero" x="132.75" y="43.46" width="26.07" height="2.49"></rect>
            <rect id="Rectangle" fill="#353C73" fill-rule="nonzero" x="143.66" y="38.72" width="15.16" height="2.49"></rect>
            <rect id="Rectangle" fill="#353C73" fill-rule="nonzero" x="143.66" y="33.98" width="15.16" height="2.49"></rect>
            <rect id="Rectangle" fill="#353C73" fill-rule="nonzero" x="143.66" y="29.23" width="15.16" height="2.49"></rect>
            <rect id="Rectangle" fill="#353C73" fill-rule="nonzero" x="132.75" y="48.21" width="26.07" height="2.49"></rect>
            <rect id="Rectangle" fill="#353C73" fill-rule="nonzero" x="132.75" y="52.95" width="26.07" height="2.49"></rect>
            <rect id="Rectangle" fill="#353C73" fill-rule="nonzero" x="132.75" y="57.69" width="26.07" height="2.49"></rect>
            <line x1="75.24" y1="51.92" x2="78.24" y2="51.92" id="Path" stroke="#353C73"></line>
            <line x1="83.99" y1="51.92" x2="115.61" y2="51.92" id="Path" stroke="#353C73" stroke-dasharray="5.75"></line>
            <polyline id="Path" stroke="#353C73" points="118.49 51.92 121.49 51.92 121.49 48.92"></polyline>
            <line x1="121.49" y1="42.62" x2="121.49" y2="33.17" id="Path" stroke="#353C73" stroke-dasharray="6.3"></line>
            <polyline id="Path" stroke="#353C73" points="121.49 30.02 121.49 27.02 118.49 27.02"></polyline>
            <line x1="112.38" y1="27.02" x2="78.8" y2="27.02" id="Path" stroke="#353C73" stroke-dasharray="6.11"></line>
            <line x1="75.75" y1="27.02" x2="72.75" y2="27.02" id="Path" stroke="#353C73"></line>
            <rect id="Rectangle" fill="#B7C1DA" fill-rule="nonzero" transform="translate(51.529979, 42.294386) rotate(-6.000000) translate(-51.529979, -42.294386) " x="30.3249794" y="30.4343858" width="42.41" height="23.72"></rect>
            <rect id="Rectangle" fill="#5686C4" fill-rule="nonzero" transform="translate(51.325142, 50.376056) rotate(-6.000000) translate(-51.325142, -50.376056) " x="35.8301423" y="49.3210558" width="30.99" height="2.11"></rect>
            <rect id="Rectangle" fill="#5686C4" fill-rule="nonzero" transform="translate(60.870823, 44.182241) rotate(-6.000000) translate(-60.870823, -44.182241) " x="51.1608226" y="43.1272411" width="19.42" height="2.11"></rect>
            <rect id="Rectangle" fill="#5686C4" fill-rule="nonzero" transform="translate(60.396887, 39.437390) rotate(-6.000000) translate(-60.396887, -39.437390) " x="50.6868871" y="38.3823905" width="19.42" height="2.11"></rect>
            <rect id="Rectangle" fill="#5686C4" fill-rule="nonzero" transform="translate(59.924052, 34.693530) rotate(-6.000000) translate(-59.924052, -34.693530) " x="50.2140517" y="33.6385303" width="19.42" height="2.11"></rect>
            <rect id="Rectangle" fill="#353C73" fill-rule="nonzero" transform="translate(37.385553, 38.020315) rotate(-6.000000) translate(-37.385553, -38.020315) " x="32.5155532" y="34.2353145" width="9.74" height="7.57"></rect>
            <rect id="Rectangle" fill="#FBADB1" fill-rule="nonzero" transform="translate(43.909414, 41.459944) rotate(-6.000000) translate(-43.909414, -41.459944) " x="39.0394139" y="37.6749443" width="9.74" height="7.57"></rect>
            <rect id="Rectangle" fill="#2A4F9A" fill-rule="nonzero" transform="translate(182.805092, 52.241281) rotate(-85.540000) translate(-182.805092, -52.241281) " x="168.515092" y="36.816281" width="28.58" height="30.85"></rect>
            <rect id="Rectangle" fill="#5686C4" fill-rule="nonzero" transform="translate(186.590232, 44.655298) rotate(-5.820000) translate(-186.590232, -44.655298) " x="171.165232" y="30.3652981" width="30.85" height="28.58"></rect>
            <circle id="Oval" fill="#FFFFFF" fill-rule="nonzero" cx="184.93" cy="30.54" r="3.49"></circle>
            <path d="M189.680019,32.63 C189.684044,33.6874556 189.049625,34.6428514 188.073432,35.0493923 C187.097238,35.4559333 185.97221,35.2332691 185.22447,34.4855296 C184.476731,33.7377902 184.254067,32.6127615 184.660608,31.6365684 C185.067149,30.6603753 186.022544,30.0259561 187.08,30.0299808 C187.769563,30.0299808 188.430883,30.3039278 188.918478,30.7915224 C189.406072,31.279117 189.680019,31.9404371 189.680019,32.63 Z" id="Path" fill="#FBADB1" fill-rule="nonzero"></path>
            <line x1="173.3" y1="37.37" x2="198.51" y2="35.22" id="Path" stroke="#353C73"></line>
            <line x1="173.99" y1="43.37" x2="199.2" y2="41.22" id="Path" stroke="#353C73"></line>
            <line x1="174.47" y1="48.78" x2="199.68" y2="46.63" id="Path" stroke="#353C73"></line>
            <line x1="175.42" y1="54" x2="200.63" y2="51.84" id="Path" stroke="#353C73"></line>
            <path d="M167.61,71.61 L201.05,71.61 L201.05,101.59 L167.61,101.59 L167.61,71.61 Z" id="Rectangle" stroke="#353C73" stroke-dasharray="6"></path>
            <rect id="Rectangle" fill="#5686C4" fill-rule="nonzero" x="86.35" y="61.84" width="35.14" height="35.14"></rect>
            <path d="M102.130011,69 C102.130011,71.4355757 100.155576,73.41 97.72,73.41 C95.2844243,73.41 93.31,71.4355757 93.31,69 C93.31,66.5644243 95.2844243,64.5899886 97.72,64.5899886 C98.8904191,64.5873369 100.013668,65.0511054 100.841281,65.8787188 C101.668895,66.7063322 102.132663,67.8295809 102.130011,69 Z" id="Path" fill="#FBADB1" fill-rule="nonzero"></path>
            <path d="M27.52,17 C27.52,19.6841039 25.3441039,21.86 22.66,21.86 C19.9758961,21.86 17.8,19.6841039 17.8,17 C17.8,14.3158961 19.9758961,12.14 22.66,12.14 C23.9489521,12.14 25.1851122,12.6520342 26.096539,13.563461 C27.0079658,14.4748878 27.52,15.7110479 27.52,17 Z" id="Path" fill="#FBADB1" fill-rule="nonzero"></path>
            <path d="M100,79 L98.82,79 C98.8240912,78.9567632 98.8240912,78.9132368 98.82,78.87 C98.82,78.1685984 98.2514016,77.6 97.55,77.6 L94.55,77.6 C93.8485984,77.6 93.28,78.1685984 93.28,78.87 C93.2759088,78.9132368 93.2759088,78.9567632 93.28,79 L93.1,79 C92.669067,78.9595061 92.2523725,79.1665472 92.0243576,79.5344496 C91.7963426,79.9023521 91.7963426,80.3676479 92.0243576,80.7355504 C92.2523725,81.1034528 92.669067,81.3104939 93.1,81.27 L100,81.27 C100.430933,81.3104939 100.847627,81.1034528 101.075642,80.7355504 C101.303657,80.3676479 101.303657,79.9023521 101.075642,79.5344496 C100.847627,79.1665472 100.430933,78.9595061 100,79 Z" id="Path" fill="#FFFFFF" fill-rule="nonzero"></path>
            <path d="M115.2,72 L113.7,72 C113.704274,71.9467523 113.704274,71.8932477 113.7,71.84 C113.7,71.2324868 113.207513,70.74 112.6,70.74 L110.53,70.74 C109.922487,70.74 109.43,71.2324868 109.43,71.84 C109.424514,71.8965339 109.424514,71.9534661 109.43,72.01 C108.86253,72.0711495 108.431811,72.5492476 108.43,73.12 C108.435431,73.7418183 108.938182,74.244569 109.56,74.25 L115.13,74.25 C115.557248,74.2903261 115.970466,74.0851545 116.196591,73.7204149 C116.422715,73.3556754 116.422715,72.8943246 116.196591,72.5295851 C115.970466,72.1648455 115.557248,71.9596739 115.13,72 L115.2,72 Z" id="Path" fill="#FFFFFF" fill-rule="nonzero"></path>
            <path d="M86.35,85.84 C86.35,85.84 94,84.77 105.6,87.38 C117.2,89.99 121.49,85.09 121.49,85.09 L121.49,97 L86.35,97 L86.35,85.84 Z" id="Path" fill="#2A4F9A" fill-rule="nonzero"></path>
            <g id="Group" opacity="0.41" transform="translate(7.000000, 52.000000)" fill="#E1E2FE" fill-rule="nonzero">
                <path d="M64.49,36.25 C64.5502434,35.1660462 64.5201391,34.0789585 64.4,33 C63.7661156,27.8870714 61.2747832,23.1855712 57.4,19.79 C56.04,18.59 54.49,17.51 53.6,15.92 C52.1,13.25 52.22,10.18 50.36,7.54 C48.4799031,4.87516452 45.8166012,2.86195991 42.74,1.78 C33.64,-1.37 20.89,3.78 22.04,14.73 C22.04,14.73 22.04,14.83 22.04,14.9 C22.1084187,15.9897118 21.7284069,17.0600311 20.9881354,17.8626214 C20.247864,18.6652116 19.21168,19.1303086 18.12,19.15 C9.66747288,19.5493096 2.58960988,25.6886943 1,34 C-0.0498856059,39.3702564 1.61917091,44.9125719 5.46,48.81 C8.34,51.6 12.21,53.13 16.07,54.18 C23.8731374,56.2185409 31.9840458,56.8083019 40,55.92 C47.48,55.17 55.37,53.02 60.21,47.26 C62.7702591,44.1379799 64.2694039,40.2815349 64.49,36.25 Z" id="Path"></path>
            </g>
            <g id="Group" opacity="0.31" transform="translate(30.000000, 48.000000)" fill="#E1E2FE" fill-rule="nonzero">
                <circle id="Oval" transform="translate(3.018496, 3.038143) rotate(-80.820000) translate(-3.018496, -3.038143) " cx="3.01849648" cy="3.03814312" r="1.95"></circle>
            </g>
            <g id="Group" opacity="0.31" transform="translate(58.000000, 48.000000)" fill="#E1E2FE" fill-rule="nonzero">
                <circle id="Oval" cx="1.42" cy="1.85" r="1.01"></circle>
            </g>
            <g id="Group" opacity="0.31" transform="translate(22.000000, 53.000000)" fill="#E1E2FE" fill-rule="nonzero">
                <circle id="Oval" transform="translate(1.828735, 2.410972) rotate(-76.000000) translate(-1.828735, -2.410972) " cx="1.82873453" cy="2.41097204" r="1.35"></circle>
            </g>
            <g id="Group" opacity="0.31" transform="translate(5.000000, 101.000000)" fill="#E1E2FE" fill-rule="nonzero">
                <circle id="Oval" cx="3.25" cy="3.42" r="3.08"></circle>
            </g>
            <path d="M70.65,56.42 C71.0723545,55.5995092 71.1504887,54.6445775 70.8671269,53.7663437 C70.5837652,52.8881099 69.9622498,52.1589198 69.14,51.74 C67.44,50.86 64.14,50.92 63.28,52.63 C62.42,54.34 65,55.81 66.1,57.4 C67.6,59.62 69.77,58.12 70.65,56.42 Z" id="Path" fill="#ECF1F7" fill-rule="nonzero" opacity="0.47"></path>
            <path d="M63.18,108.92 C63.7738644,109.302696 64.4955765,109.433421 65.1859438,109.283341 C65.8763111,109.133262 66.4786144,108.714707 66.86,108.12 C67.66,106.89 67.86,104.38 66.62,103.58 C65.38,102.78 64.07,104.68 62.78,105.38 C61,106.35 61.94,108.12 63.18,108.92 Z" id="Path" fill="#E1E2FE" fill-rule="nonzero" opacity="0.47"></path>
            <path d="M12.73,48.58 C11.3762306,47.3225945 9.26000878,47.3986532 8,48.75 C6.73,50.11 5.94,53.18 7.29,54.45 C8.64,55.72 10.71,53.65 12.47,53.07 C14.91,52.26 14.09,49.84 12.73,48.58 Z" id="Path" fill="#E1E2FE" fill-rule="nonzero" opacity="0.47"></path>
            <path d="M5.24,63.25 C4.01964216,65.9072652 3.66966568,68.8820652 4.24,71.75 C4.92,75.09 7,77.65 6.24,81.2 C5.87698025,83.2923427 5.61998549,85.4017022 5.47,87.52 C5.09,91.92 8,95.8 11.49,97.89 C14.4093495,99.5181579 17.7196122,100.313728 21.06,100.19 C24.0488333,100.097139 27.0161579,99.6506974 29.9,98.86 C32.68,98.14 35.4,97.2 38.32,97.5 C40.74,97.75 42.93,98.8 45.19,99.58 C50.58,101.44 57.11,101.71 62.04,98.87 C67.4185863,95.7226446 70.1189178,89.4380894 68.7,83.37 C68.1,80.71 67.08,78.02 67.39,75.24 C67.61,73.3 68.5,71.43 68.39,69.49 C68.2185296,68.1967961 67.7420999,66.9628775 67,65.89 C64.46,61.89 60.21,59.23 55.72,57.76 C51.5635909,56.2278318 47.1464719,55.5278883 42.72,55.7 C33.62,56.39 31.72,54.95 22.46,52.96 C16.46,51.67 9.73,56.25 6.21,61.56 C5.84780776,62.1001207 5.52368956,62.6648215 5.24,63.25 Z" id="Path" fill="#E1E2FE" fill-rule="nonzero" opacity="0.47"></path>
            <path d="M11.5,67.35 C11.32,69.45 12.03,71.62 11.43,73.7 C10.72,76.19 8.67,78.06 7.84,80.5 C6.5727615,84.1433328 6.68662624,88.1250404 8.16,91.69 C8.8389567,93.3969335 9.94828375,94.8990036 11.38,96.05 C13.7015636,97.5958739 16.5041035,98.2494447 19.27,97.89 C23.35,97.57 27.66,95.81 31.76,96.29 C34.02,96.55 34.76,99 35.88,100.62 C37.2108806,102.428945 38.9702116,103.879019 41,104.84 C44.7141324,106.624496 49.0120888,106.74449 52.82,105.17 C56.82,103.47 60.31,99.31 60.08,94.6 C59.97,92.42 59.08,90.26 59.51,88.12 C60,85.43 62,83 63.5,80.8 C65.1343864,78.3444825 66.0963727,75.5033474 66.29,72.56 L66.29,72.46 C66.5693963,67.3829061 63.4025466,62.7515935 58.57,61.17 L48.31,57.79 C37.89,54.37 27.47,54.48 17.89,59.51 C15.82,60.6 12.44,63.84 11.75,66.08 C11.6235579,66.4936958 11.5397881,66.9192463 11.5,67.35 Z" id="Path" fill="#E1E2FE" fill-rule="nonzero" opacity="0.81"></path>
            <circle id="Oval" fill="#3E479B" fill-rule="nonzero" opacity="0.58" cx="69.79" cy="100.46" r="1"></circle>
            <circle id="Oval" fill="#3E479B" fill-rule="nonzero" opacity="0.58" cx="39.23" cy="48.91" r="1"></circle>
            <circle id="Oval" fill="#3E479B" fill-rule="nonzero" opacity="0.58" cx="15.33" cy="106.56" r="1"></circle>
            <circle id="Oval" fill="#EF929C" fill-rule="nonzero" opacity="0.58" cx="57.08" cy="109.34" r="1"></circle>
            <circle id="Oval" fill="#3E479B" fill-rule="nonzero" opacity="0.58" cx="12.41" cy="60.17" r="1"></circle>
            <path d="M59.38,53.59 C59.2897908,54.0195311 58.8703579,54.2961783 58.44,54.21 C58.2238442,54.1628364 58.0363872,54.0293085 57.9211738,53.840434 C57.8059603,53.6515595 57.7730183,53.4237775 57.83,53.21 C57.921127,52.7819793 58.3419793,52.508873 58.77,52.6 C59.1980207,52.691127 59.471127,53.1119793 59.38,53.54 L59.38,53.59 Z" id="Path" fill="#EF929C" fill-rule="nonzero" opacity="0.58"></path>
            <path d="M16.93,49.94 C16.9132144,50.021142 16.8646431,50.092187 16.7951268,50.1372787 C16.7256104,50.1823705 16.6409354,50.1977554 16.56,50.18 C16.4774374,50.1658571 16.4045477,50.11784 16.3589634,50.0475643 C16.3133792,49.9772885 16.2992522,49.891155 16.32,49.81 C16.3558985,49.6415532 16.5215532,49.5341015 16.69,49.57 C16.8584468,49.6058985 16.9658985,49.7715532 16.93,49.94 L16.93,49.94 Z" id="Path" fill="#EF929C" fill-rule="nonzero" opacity="0.58"></path>
            <path d="M66.58,48.64 C66.5565643,48.7472474 66.4705273,48.8296285 66.362364,48.8483882 C66.2542007,48.867148 66.1454471,48.8185511 66.0872648,48.7254595 C66.0290825,48.6323679 66.0330561,48.5133165 66.0973162,48.4243116 C66.1615763,48.3353068 66.2733283,48.2940697 66.38,48.32 C66.5225135,48.3546429 66.6113101,48.4967173 66.58,48.64 L66.58,48.64 Z" id="Path" fill="#3E479B" fill-rule="nonzero" opacity="0.58"></path>
            <path d="M10.56,111.79 C10.5293061,111.930045 10.391041,112.018814 10.2509286,111.988431 C10.1108162,111.958048 10.0217402,111.81998 10.0518123,111.679801 C10.0818843,111.539621 10.2197542,111.450239 10.36,111.48 C10.4277476,111.494376 10.4869599,111.535188 10.5245055,111.593384 C10.5620512,111.651579 10.5748271,111.72235 10.56,111.79 Z" id="Path" fill="#3E479B" fill-rule="nonzero" opacity="0.58"></path>
            <g id="Group" opacity="0.66" transform="translate(14.000000, 64.000000)" fill="#FFFFFF" fill-rule="nonzero">
                <path d="M15.62,8.26 L14.45,8.17 C14.3625369,7.3084657 14.0896212,6.47607263 13.65,5.73 L14.54,4.96 C14.8311715,4.70991409 14.9668058,4.32348705 14.8958108,3.9462822 C14.8248157,3.56907734 14.5579772,3.25840108 14.1958107,3.13128217 C13.8336442,3.00416325 13.4311715,3.07991406 13.14,3.33 L12.25,4.09 C11.5893647,3.55025496 10.8228624,3.15508044 10,2.93 L10,1.76 C10.0219748,1.47441403 9.9285309,1.19194047 9.74058152,0.975798678 C9.55263214,0.759656889 9.28587067,0.627894227 9,0.61 L9,0.61 C8.71441403,0.588025158 8.43194047,0.681469098 8.21579868,0.869418479 C7.99965689,1.05736786 7.86789423,1.32412933 7.85,1.61 L7.76,2.78 C6.89574087,2.86943192 6.06049495,3.14216528 5.31,3.58 L4.55,2.69 C4.14114611,2.4278468 3.6075897,2.47085695 3.24600663,2.79511531 C2.88442356,3.11937368 2.78376476,3.64511137 3,4.08 L3.77,4.97 C3.22096391,5.64479714 2.82209867,6.42889121 2.6,7.27 L1.43,7.18 C1.14441403,7.15802516 0.861940466,7.2514691 0.645798678,7.43941848 C0.429656889,7.62736786 0.297894227,7.89412933 0.28,8.18 L0.28,8.18 C0.258025158,8.46558597 0.351469098,8.74805953 0.539418479,8.96420132 C0.727367861,9.18034311 0.994129331,9.31210577 1.28,9.33 L2.45,9.42 C2.53943192,10.2842591 2.81216528,11.1195051 3.25,11.87 L2.36,12.63 C1.94752271,13.0261491 1.91537836,13.6751722 2.28669266,14.1101404 C2.65800696,14.5451086 3.30403387,14.615205 3.76,14.27 L4.65,13.5 C5.32364277,14.048623 6.10839275,14.44441 6.95,14.66 L6.86,15.83 C6.83797838,16.1166159 6.93112901,16.4001852 7.11882348,16.6179108 C7.30651795,16.8356364 7.57326755,16.9695514 7.86,16.99 L7.86,16.99 C8.44403982,17.0192236 8.94708201,16.5823712 9,16 L9,14.82 C9.86497469,14.7339523 10.7009245,14.4609891 11.45,14.02 L12.21,14.91 C12.6061491,15.3224773 13.2551722,15.3546216 13.6901404,14.9833073 C14.1251086,14.611993 14.195205,13.9659661 13.85,13.51 L13.08,12.62 C13.6290361,11.9452029 14.0279013,11.1611088 14.25,10.32 L15.42,10.41 C15.705586,10.4319748 15.9880595,10.3385309 16.2042013,10.1505815 C16.4203431,9.96263214 16.5521058,9.69587067 16.57,9.41 L16.57,9.41 C16.6114195,8.83442583 16.1930453,8.32797284 15.62,8.26 L15.62,8.26 Z M8.09,13.16 C6.32205771,13.020168 4.81291539,11.8280301 4.26757155,10.1404955 C3.7222277,8.45296088 4.24832239,6.60311553 5.60008955,5.45511794 C6.95185671,4.30712036 8.8624843,4.0875625 10.4394193,4.89901121 C12.0163542,5.71045992 12.9483409,7.39275132 12.8,9.16 C12.593105,11.5596257 10.4914539,13.3444674 8.09,13.16 L8.09,13.16 Z" id="Shape"></path>
                <path d="M40.62,41.25 C40.4738216,41.2524857 40.3293739,41.2180934 40.2,41.15 C39.9908698,41.0410078 39.8328742,40.8542858 39.76,40.63 L39.55,40 C39.0093359,40.0585087 38.46245,40.0109534 37.94,39.86 L37.62,40.48 C37.5112989,40.692186 37.3220116,40.8518893 37.0945556,40.9233217 C36.8670996,40.9947542 36.6204937,40.971943 36.41,40.86 C36.2047204,40.7348267 36.0573208,40.5335003 36,40.3 C35.9288213,40.0743685 35.9504114,39.8296815 36.06,39.62 L36.38,39 C35.9746382,38.6503323 35.6358533,38.2302391 35.38,37.76 L34.72,37.97 C34.2478875,38.1207725 33.7427238,37.8614849 33.59,37.39 C33.5180056,37.1619166 33.5397595,36.9145567 33.6504584,36.7025402 C33.7611573,36.4905237 33.9516955,36.3312901 34.18,36.26 L34.84,36.05 C34.7866328,35.5092938 34.8341037,34.9633789 34.98,34.44 L34.36,34.12 C34.1487526,34.013675 33.9898934,33.8259323 33.92,33.6 C33.8488213,33.3743685 33.8704114,33.1296815 33.98,32.92 C34.0901419,32.7057628 34.2807359,32.5439377 34.51,32.47 C34.7357509,32.3999262 34.9800075,32.4214783 35.19,32.53 L35.81,32.85 C36.1559218,32.4447903 36.5727155,32.1059336 37.04,31.85 L36.83,31.19 C36.7297498,30.9642649 36.728981,30.7067905 36.8278814,30.4804608 C36.9267818,30.2541311 37.1162458,30.0797836 37.35,30 C37.5667929,29.9053838 37.8132071,29.9053838 38.03,30 C38.2418607,30.110446 38.4004182,30.3014357 38.47,30.53 L38.68,31.19 C39.2207062,31.1366328 39.7666211,31.1841037 40.29,31.33 L40.61,30.71 C40.7412636,30.3966956 41.0377457,30.1839891 41.3765899,30.1600219 C41.715434,30.1360547 42.0389049,30.3049105 42.2129624,30.5966189 C42.38702,30.8883272 42.3820067,31.2531841 42.2,31.54 L41.88,32.16 C42.2852097,32.5059218 42.6240664,32.9227155 42.88,33.39 L43.54,33.18 C43.7690347,33.1093556 44.0165968,33.1308828 44.23,33.24 C44.6426394,33.3516851 44.9197792,33.738228 44.8931133,34.1648821 C44.8664475,34.5915362 44.5433345,34.9405632 44.12,35 L43.46,35.21 C43.519287,35.7506556 43.4717186,36.2976927 43.32,36.82 L43.94,37.14 C44.3776079,37.370417 44.5473047,37.9107675 44.32,38.35 C44.213675,38.5612474 44.0259323,38.7201066 43.8,38.79 C43.5709653,38.8606444 43.3234032,38.8391172 43.11,38.73 L42.5,38.41 C42.1503323,38.8153618 41.7302391,39.1541467 41.26,39.41 L41.47,40.07 C41.5406444,40.2990347 41.5191172,40.5465968 41.41,40.76 C41.303675,40.9712474 41.1159323,41.1301066 40.89,41.2 C40.8033518,41.2313636 40.7121333,41.2482559 40.62,41.25 L40.62,41.25 Z M39.76,39.64 L40.04,40.54 C40.1448407,40.8552871 40.48273,41.0286777 40.8,40.93 C40.9531025,40.8826481 41.0797895,40.7740592 41.15,40.63 C41.2146184,40.4834746 41.2146184,40.3165254 41.15,40.17 L40.87,39.28 L40.98,39.22 C41.4954804,38.9503876 41.94595,38.5715836 42.3,38.11 L42.38,38.01 L43.21,38.44 C43.3565254,38.5046184 43.5234746,38.5046184 43.67,38.44 C43.8231025,38.3926481 43.9497895,38.2840592 44.02,38.14 C44.174293,37.8472567 44.0624427,37.4848619 43.77,37.33 L43,36.94 L43,36.82 C43.1694424,36.2634089 43.2205374,35.6775196 43.15,35.1 L43.15,34.98 L44.05,34.69 C44.3639406,34.5895646 44.538078,34.254685 44.44,33.94 C44.3900104,33.7858889 44.2825702,33.6569606 44.14,33.58 C43.992542,33.5199705 43.827458,33.5199705 43.68,33.58 L42.79,33.87 L42.73,33.76 C42.4587051,33.2399059 42.0763392,32.7858463 41.61,32.43 L41.52,32.36 L41.95,31.52 C42.1018783,31.2245277 41.9854723,30.8618783 41.69,30.71 C41.3945277,30.5581217 41.0318783,30.6745277 40.88,30.97 L40.45,31.8 L40.33,31.8 C39.7753464,31.6207743 39.1873048,31.5694916 38.61,31.65 L38.48,31.65 L38.2,30.76 C38.1560746,30.605033 38.0464259,30.4771095 37.9,30.41 C37.7534746,30.3453816 37.5865254,30.3453816 37.44,30.41 C37.1260594,30.5104354 36.951922,30.845315 37.05,31.16 L37.34,32.06 L37.23,32.12 C36.7109066,32.3884048 36.2569281,32.7672891 35.9,33.23 L35.83,33.33 L35,32.79 C34.8516281,32.7348367 34.6883719,32.7348367 34.54,32.79 C34.3901194,32.8430537 34.2653525,32.9499968 34.19,33.09 C34.1166433,33.2318148 34.1028356,33.3970192 34.1516336,33.5490435 C34.2004315,33.7010679 34.3078101,33.827373 34.45,33.9 L35.28,34.34 L35.28,34.45 C35.1002829,35.0079974 35.0490054,35.5993976 35.13,36.18 L35.13,36.3 L34.24,36.58 C34.0858889,36.6299896 33.9569606,36.7374298 33.88,36.88 C33.8248367,37.0283719 33.8248367,37.1916281 33.88,37.34 C33.9281364,37.4931439 34.0356341,37.6206117 34.1784578,37.6939028 C34.3212815,37.7671938 34.4875185,37.7801952 34.64,37.73 L35.54,37.45 L35.54,37.56 C35.8143567,38.0752242 36.1963291,38.525406 36.66,38.88 L36.76,38.96 L36.32,39.79 C36.2466433,39.9318148 36.2328356,40.0970192 36.2816336,40.2490435 C36.3304315,40.4010679 36.4378101,40.527373 36.58,40.6 C36.8727433,40.754293 37.2351381,40.6424427 37.39,40.35 L37.83,39.51 L37.94,39.51 C38.4999213,39.6799671 39.0891805,39.731059 39.67,39.66 L39.76,39.64 Z M39.11,38.82 C38.5982162,38.8196562 38.0940276,38.6961815 37.64,38.46 C36.3581238,37.7903122 35.6847701,36.3440648 35.9974065,34.931993 C36.3100429,33.5199212 37.5309476,32.4930675 38.9757077,32.4270641 C40.4204679,32.3610607 41.7299145,33.272316 42.17,34.65 C42.6922455,36.3312418 41.7583632,38.1185762 40.08,38.65 C39.7672958,38.756067 39.4401373,38.8134041 39.11,38.82 Z M39.11,32.71 C38.8108814,32.7068537 38.5133747,32.7541843 38.23,32.85 C37.1124426,33.2081896 36.3194125,34.2026147 36.2188795,35.3718569 C36.1183465,36.5410991 36.7299883,37.6562998 37.77,38.2 C38.4517525,38.5558587 39.2475122,38.6242724 39.98,38.39 C41.1244441,38.0507792 41.9456682,37.0470607 42.0515491,35.8581064 C42.15743,34.6691522 41.5264923,33.5361131 40.46,33 C40.0430608,32.7972492 39.583462,32.6977838 39.12,32.71 L39.11,32.71 Z" id="Shape"></path>
                <path d="M48.34,35.76 L48.17,35.76 C47.8630516,35.7202525 47.5847168,35.5594855 47.3969134,35.3134631 C47.20911,35.0674406 47.1274142,34.7565675 47.17,34.45 L47.31,33.45 C46.6066022,33.1949798 45.9583385,32.808058 45.4,32.31 L44.61,32.89 C44.0991366,33.2710765 43.3760765,33.1658634 42.995,32.655 C42.6139236,32.1441366 42.7191366,31.4210765 43.23,31.04 L44.01,30.46 C43.6916643,29.7782872 43.5082917,29.0414012 43.47,28.29 L42.47,28.15 C42.1630516,28.1102525 41.8847168,27.9494855 41.6969134,27.7034631 C41.50911,27.4574406 41.4274142,27.1465675 41.47,26.84 C41.5183883,26.541586 41.6794645,26.2731257 41.92,26.09 C42.1641284,25.9013441 42.4752678,25.8217503 42.78,25.87 L43.78,26.01 C44.0543915,25.3038372 44.4694614,24.6608191 45,24.12 L44.41,23.34 C44.1260149,22.9654039 44.098604,22.4556816 44.3407789,22.0527906 C44.5829538,21.6498996 45.0459539,21.4349599 45.51,21.51 C45.811452,21.5498888 46.0829442,21.7127842 46.26,21.96 L46.85,22.74 C47.5244993,22.4197522 48.254574,22.2329889 49,22.19 L49.14,21.19 C49.1797475,20.8830516 49.3405145,20.6047168 49.5865369,20.4169134 C49.8325594,20.22911 50.1434325,20.1474142 50.45,20.19 C50.755074,20.2272418 51.0306555,20.3904151 51.21,20.64 C51.3915116,20.8875608 51.4703348,21.1956878 51.43,21.5 L51.29,22.5 C51.9933978,22.7550202 52.6416615,23.141942 53.2,23.64 L53.99,23.06 C54.5008634,22.6789235 55.2239235,22.7841366 55.605,23.295 C55.9860764,23.8058634 55.8808634,24.5289235 55.37,24.91 L54.58,25.5 C54.9072522,26.1754945 55.0943443,26.9102564 55.13,27.66 L56.13,27.8 C56.5372828,27.8589488 56.8821788,28.1307025 57.034769,28.5128942 C57.1873593,28.8950858 57.1244616,29.3296514 56.869769,29.6528942 C56.6150764,29.9761371 56.2072828,30.1389489 55.8,30.08 L54.8,29.94 C54.5488774,30.6482341 54.1616017,31.3004879 53.66,31.86 L54.24,32.64 C54.4315808,32.8871488 54.5142548,33.201658 54.468975,33.5110695 C54.4236953,33.8204811 54.2543668,34.0981118 54,34.28 C53.7478351,34.4675741 53.4298893,34.5437745 53.1200932,34.4908824 C52.8102971,34.4379904 52.5356448,34.2606148 52.36,34 L51.78,33.22 C51.1024164,33.5414969 50.3688259,33.7282908 49.62,33.77 L49.48,34.77 C49.3961601,35.3359891 48.9121531,35.756311 48.34,35.76 L48.34,35.76 Z M45.44,32 L45.53,32.09 C46.1032111,32.6283821 46.7852106,33.0375818 47.53,33.29 L47.65,33.29 L47.47,34.5 C47.4298109,34.7300171 47.4848801,34.9664884 47.6225553,35.1550846 C47.7602306,35.3436809 47.9686755,35.4681878 48.2,35.5 C48.4296274,35.5373232 48.6646376,35.4811247 48.8525386,35.343957 C49.0404396,35.2067893 49.165577,35.0000801 49.2,34.77 L49.37,33.56 L49.49,33.56 C50.2831172,33.5346442 51.0611764,33.3367168 51.77,32.98 L51.88,32.98 L52.61,33.98 C52.7486812,34.1612806 52.953737,34.2799971 53.18,34.31 C53.4230283,34.3062169 53.6511566,34.1921528 53.8,34 C54.1800666,33.717728 54.2605218,33.1813602 53.98,32.8 L53.25,31.8 L53.33,31.71 C53.8727484,31.1401012 54.2825591,30.4570833 54.53,29.71 L54.53,29.6 L55.74,29.77 C56.0506821,29.829971 56.3692018,29.7144941 56.5692684,29.4693548 C56.769335,29.2242156 56.8186292,28.8890145 56.6976064,28.5966562 C56.5765835,28.3042979 56.3047939,28.1020107 55.99,28.07 L54.78,27.89 L54.78,27.77 C54.7582339,26.9807621 54.5636645,26.2058978 54.21,25.5 L54.15,25.39 L55.15,24.66 C55.5313064,24.3740595 55.6115642,23.8345493 55.33,23.45 C55.1895785,23.2689498 54.9860279,23.1475336 54.76,23.11 C54.5325981,23.0800888 54.3025843,23.1411862 54.12,23.28 L54.12,23.28 L53.12,24.01 L53.06,24 C52.4867889,23.4616179 51.8047894,23.0524182 51.06,22.8 L50.94,22.8 L51.12,21.59 C51.1494075,21.3657461 51.0882272,21.1390191 50.95,20.96 C50.8213381,20.7709604 50.6170767,20.6469446 50.39,20.62 C50.1603726,20.5826768 49.9253624,20.6388753 49.7374614,20.776043 C49.5495604,20.9132107 49.424423,21.1199199 49.39,21.35 L49.22,22.56 L49.1,22.56 C48.3102333,22.5864803 47.5356709,22.7843861 46.83,23.14 L46.72,23.14 L45.99,22.14 C45.8513188,21.9587194 45.646263,21.8400029 45.42,21.81 C45.19682,21.7717732 44.967894,21.8299131 44.79,21.97 C44.605545,22.102956 44.4828694,22.3050099 44.45,22.53 C44.4149969,22.7561739 44.4726801,22.9869068 44.61,23.17 L45.34,24.17 L45.26,24.26 C44.7172516,24.8298988 44.3074409,25.5129167 44.06,26.26 L44.06,26.37 L42.85,26.2 C42.6238261,26.1649969 42.3930932,26.2226801 42.21,26.36 C42.0289498,26.5004215 41.9075336,26.7039721 41.87,26.93 C41.8298109,27.1600171 41.8848801,27.3964884 42.0225553,27.5850846 C42.1602306,27.7736809 42.3686755,27.8981878 42.6,27.93 L43.81,28.11 L43.81,28.23 C43.8415065,29.0222349 44.0391078,29.7990124 44.39,30.51 L44.45,30.62 L43.45,31.35 C43.2609604,31.4786619 43.1369446,31.6829233 43.11,31.91 C43.0804065,32.1358949 43.1375846,32.3646073 43.27,32.55 C43.4104215,32.7310502 43.6139721,32.8524664 43.84,32.89 C44.0674019,32.9199112 44.2974157,32.8588138 44.48,32.72 L45.44,32 Z M49.3,32.3 C47.2253788,32.2950935 45.4605088,30.7863263 45.1330335,28.737708 C44.8055582,26.6890897 46.0121416,24.7053304 47.981851,24.0539304 C49.9515604,23.4025305 52.102978,24.2757698 53.0614801,26.1157021 C54.0199821,27.9556344 53.5026385,30.2191494 51.84,31.46 L51.84,31.46 C51.1003145,31.9896197 50.2095902,32.266656 49.3,32.25 L49.3,32.3 Z M49.3,24.09 C48.4481682,24.0885327 47.619281,24.3659991 46.94,24.88 C45.5526532,25.6215148 44.7287355,27.1073434 44.834577,28.676857 C44.9404186,30.2463706 45.9563656,31.6081263 47.4307081,32.1566606 C48.9050505,32.7051948 50.5640177,32.3386503 51.67,31.22 L51.67,31.22 C52.5164999,30.5981401 53.0755452,29.6603868 53.22,28.62 C53.3686589,27.5808653 53.1028812,26.5249375 52.48,25.68 C51.8474572,24.8404632 50.9098664,24.2836564 49.87,24.13 C49.6791705,24.0761676 49.4855504,24.03277 49.29,24 L49.3,24.09 Z" id="Shape"></path>
            </g>
            <g id="Group" opacity="0.81" transform="translate(26.000000, 96.000000)" fill="#FFFFFF" fill-rule="nonzero">
                <path d="M17.33,4.36 L14.33,4.36 C14.2471573,4.36 14.18,4.29284271 14.18,4.21 C14.18,4.12715729 14.2471573,4.06 14.33,4.06 L17.33,4.06 C17.4128427,4.06 17.48,4.12715729 17.48,4.21 C17.48,4.29284271 17.4128427,4.36 17.33,4.36 Z" id="Path"></path>
                <path d="M17.33,7.5 L14.33,7.5 C14.2471573,7.5 14.18,7.43284271 14.18,7.35 C14.18,7.26715729 14.2471573,7.2 14.33,7.2 L17.33,7.2 C17.4128427,7.2 17.48,7.26715729 17.48,7.35 C17.48,7.43284271 17.4128427,7.5 17.33,7.5 L17.33,7.5 Z" id="Path"></path>
                <path d="M19.61,10.67 L1,10.67 C0.893913404,10.67 0.792171839,10.6278573 0.717157288,10.5528427 C0.642142736,10.4778282 0.6,10.3760866 0.6,10.27 L0.6,0.59 C0.6,0.3690861 0.7790861,0.19 1,0.19 L19.61,0.19 C19.7160866,0.19 19.8178282,0.232142736 19.8928427,0.307157288 C19.9678573,0.382171839 20.01,0.483913404 20.01,0.59 L20.01,10.27 C20.01,10.4909139 19.8309139,10.67 19.61,10.67 L19.61,10.67 Z M1,0.479998741 C0.939248678,0.479998741 0.89,0.529248678 0.89,0.59 L0.89,10.27 C0.89518602,10.3268154 0.942948887,10.3702362 1,10.370001 L19.61,10.370001 C19.6652285,10.370001 19.71,10.3252285 19.71,10.27 L19.71,0.59 C19.7128353,0.561793003 19.7035651,0.533708124 19.6844954,0.512731464 C19.6654257,0.491754803 19.6383488,0.479857862 19.61,0.479998741 L1,0.479998741 Z" id="Shape"></path>
                <path d="M19.61,10.67 L1,10.67 C0.893913404,10.67 0.792171839,10.6278573 0.717157288,10.5528427 C0.642142736,10.4778282 0.6,10.3760866 0.6,10.27 L0.6,0.59 C0.6,0.3690861 0.7790861,0.19 1,0.19 L19.61,0.19 C19.7160866,0.19 19.8178282,0.232142736 19.8928427,0.307157288 C19.9678573,0.382171839 20.01,0.483913404 20.01,0.59 L20.01,10.27 C20.01,10.4909139 19.8309139,10.67 19.61,10.67 L19.61,10.67 Z M1,0.479998741 C0.939248678,0.479998741 0.89,0.529248678 0.89,0.59 L0.89,10.27 C0.89518602,10.3268154 0.942948887,10.3702362 1,10.370001 L19.61,10.370001 C19.6652285,10.370001 19.71,10.3252285 19.71,10.27 L19.71,0.59 C19.7128353,0.561793003 19.7035651,0.533708124 19.6844954,0.512731464 C19.6654257,0.491754803 19.6383488,0.479857862 19.61,0.479998741 L1,0.479998741 Z" id="Shape" opacity="0.66"></path>
                <path d="M17.33,2.83 L2.94,2.83 C2.86091043,2.83017594 2.79527246,2.76891383 2.79,2.69 C2.79,2.60715729 2.85715729,2.54 2.94,2.54 L17.33,2.54 C17.4128427,2.54 17.48,2.60715729 17.48,2.69 C17.4747275,2.76891383 17.4090896,2.83017594 17.33,2.83 Z" id="Path"></path>
                <path d="M17.33,5.88 L2.94,5.88 C2.85715729,5.88 2.79,5.81284271 2.79,5.73 C2.79527246,5.65108617 2.86091043,5.58982406 2.94,5.59 L17.33,5.59 C17.4090896,5.58982406 17.4747275,5.65108617 17.48,5.73 C17.48,5.81284271 17.4128427,5.88 17.33,5.88 L17.33,5.88 Z" id="Path"></path>
                <path d="M10.7,4.36 L2.94,4.36 C2.85715729,4.36 2.79,4.29284271 2.79,4.21 C2.79,4.12715729 2.85715729,4.06 2.94,4.06 L10.7,4.06 C10.7828427,4.06 10.85,4.12715729 10.85,4.21 C10.85,4.29284271 10.7828427,4.36 10.7,4.36 Z" id="Path"></path>
                <path d="M10.7,7.5 L2.94,7.5 C2.85715729,7.5 2.79,7.43284271 2.79,7.35 C2.79,7.26715729 2.85715729,7.2 2.94,7.2 L10.7,7.2 C10.7828427,7.2 10.85,7.26715729 10.85,7.35 C10.85,7.43284271 10.7828427,7.5 10.7,7.5 L10.7,7.5 Z" id="Path"></path>
                <path d="M8.17,9 L2.94,9 C2.90021753,9 2.86206444,8.98419647 2.83393398,8.95606602 C2.80580353,8.92793556 2.79,8.88978247 2.79,8.85 C2.79527246,8.77108617 2.86091043,8.70982406 2.94,8.71 L8.17,8.71 C8.24908957,8.70982406 8.31472754,8.77108617 8.32,8.85 C8.32,8.93284271 8.25284271,9 8.17,9 L8.17,9 Z" id="Path"></path>
            </g>
            <g id="Group" opacity="0.81" transform="translate(8.000000, 83.000000)" fill="#FFFFFF" fill-rule="nonzero">
                <path d="M6.44,7.94 L3,7.94 C2.92268014,7.94 2.85999962,7.87731986 2.85999962,7.8 C2.85982406,7.72091043 2.92108617,7.65527246 3,7.65 L6.4,7.65 C6.47891383,7.65527246 6.54017594,7.72091043 6.54,7.8 C6.54265623,7.86405932 6.50145813,7.92173666 6.44,7.94 Z" id="Path"></path>
                <path d="M6.44,4.42 L3,4.42 C2.91715729,4.42 2.85,4.35284271 2.85,4.27 C2.85,4.18715729 2.91715729,4.12 3,4.12 L6.4,4.12 C6.48284271,4.12 6.55,4.18715729 6.55,4.27 C6.55,4.35284271 6.48284271,4.42 6.4,4.42 L6.44,4.42 Z" id="Path"></path>
                <path d="M21.47,12.3 L0.47,12.3 C0.363913404,12.3 0.262171839,12.2578573 0.187157288,12.1828427 C0.112142736,12.1078282 0.07,12.0060866 0.07,11.9 L0.07,1 C0.07,0.7790861 0.2490861,0.6 0.47,0.6 L21.47,0.6 C21.6909139,0.6 21.87,0.7790861 21.87,1 L21.87,11.9 C21.87,12.1209139 21.6909139,12.3 21.47,12.3 L21.47,12.3 Z M0.47,0.85 C0.440826186,0.85 0.412847256,0.861589252 0.392218254,0.882218254 C0.371589252,0.902847256 0.359998741,0.930826186 0.359998741,0.96 L0.359998741,11.9 C0.359998741,11.9283488 0.371754803,11.9554257 0.392731464,11.9744954 C0.413708124,11.9935651 0.441793003,12.0028353 0.47,12 L21.47,12 C21.498207,12.0028353 21.5262919,11.9935651 21.5472685,11.9744954 C21.5682452,11.9554257 21.5800013,11.9283488 21.5800013,11.9 L21.5800013,1 C21.5800013,0.939248678 21.5307513,0.89 21.47,0.89 L0.47,0.85 Z" id="Shape"></path>
                <path d="M21.47,12.3 L0.47,12.3 C0.363913404,12.3 0.262171839,12.2578573 0.187157288,12.1828427 C0.112142736,12.1078282 0.07,12.0060866 0.07,11.9 L0.07,1 C0.07,0.7790861 0.2490861,0.6 0.47,0.6 L21.47,0.6 C21.6909139,0.6 21.87,0.7790861 21.87,1 L21.87,11.9 C21.87,12.1209139 21.6909139,12.3 21.47,12.3 L21.47,12.3 Z M0.47,0.85 C0.440826186,0.85 0.412847256,0.861589252 0.392218254,0.882218254 C0.371589252,0.902847256 0.359998741,0.930826186 0.359998741,0.96 L0.359998741,11.9 C0.359998741,11.9283488 0.371754803,11.9554257 0.392731464,11.9744954 C0.413708124,11.9935651 0.441793003,12.0028353 0.47,12 L21.47,12 C21.498207,12.0028353 21.5262919,11.9935651 21.5472685,11.9744954 C21.5682452,11.9554257 21.5800013,11.9283488 21.5800013,11.9 L21.5800013,1 C21.5800013,0.939248678 21.5307513,0.89 21.47,0.89 L0.47,0.85 Z" id="Shape" opacity="0.66"></path>
                <path d="M19.22,9.66 L3,9.66 C2.91715729,9.66 2.85,9.59284271 2.85,9.51 C2.85,9.42715729 2.91715729,9.36 3,9.36 L19.22,9.36 C19.3028427,9.36 19.37,9.42715729 19.37,9.51 C19.37,9.59284271 19.3028427,9.66 19.22,9.66 L19.22,9.66 Z" id="Path"></path>
                <path d="M19.22,6.23 L3,6.23 C2.92268014,6.23 2.86,6.16731986 2.86,6.09 C2.85721917,6.05116964 2.87073212,6.01293483 2.89729463,5.98447499 C2.92385715,5.95601515 2.96107032,5.93990055 3,5.94 L19.22,5.94 C19.2589297,5.93990055 19.2961429,5.95601515 19.3227054,5.98447499 C19.3492679,6.01293483 19.3627808,6.05116964 19.36,6.09 C19.36,6.16731986 19.2973199,6.23 19.22,6.23 Z" id="Path"></path>
                <path d="M19.22,7.94 L10.5,7.94 C10.4611696,7.94278083 10.4229348,7.92926788 10.394475,7.90270537 C10.3660152,7.87614285 10.3499006,7.83892968 10.3499995,7.8 C10.3499995,7.71715729 10.4171573,7.65 10.5,7.65 L19.22,7.65 C19.2989138,7.65527246 19.3601759,7.72091043 19.3600004,7.8 C19.3600004,7.87731986 19.2973199,7.94 19.22,7.94 Z" id="Path"></path>
                <path d="M19.22,4.42 L10.5,4.42 C10.4171573,4.42 10.35,4.35284271 10.35,4.27 C10.35,4.18715729 10.4171573,4.12 10.5,4.12 L19.22,4.12 C19.3028427,4.12 19.37,4.18715729 19.37,4.27 C19.37,4.35284271 19.3028427,4.42 19.22,4.42 L19.22,4.42 Z" id="Path"></path>
                <path d="M19.22,2.78 L13.33,2.78 C13.2526801,2.78 13.19,2.71731986 13.19,2.64 C13.1872192,2.60116964 13.2007321,2.56293483 13.2272946,2.53447499 C13.2538571,2.50601515 13.2910703,2.48990055 13.33,2.49 L19.22,2.49 C19.2589297,2.48990055 19.2961429,2.50601515 19.3227054,2.53447499 C19.3492679,2.56293483 19.3627808,2.60116964 19.36,2.64 C19.36,2.71731986 19.2973199,2.78 19.22,2.78 Z" id="Path"></path>
            </g>
            <rect id="Rectangle" fill="#3E479B" fill-rule="nonzero" opacity="0.14" transform="translate(52.544621, 85.275235) rotate(-59.340000) translate(-52.544621, -85.275235) " x="39.5446205" y="75.6552346" width="26" height="19.24" rx="0.27"></rect>
            <rect id="Rectangle" fill="#F7A9B4" fill-rule="nonzero" transform="translate(52.132063, 84.402872) rotate(-59.340000) translate(-52.132063, -84.402872) " x="39.1320633" y="74.7828721" width="26" height="19.24" rx="0.27"></rect>
            <rect id="Rectangle" fill="#3E479B" fill-rule="nonzero" opacity="0.14" transform="translate(51.319839, 85.606752) rotate(-79.560000) translate(-51.319839, -85.606752) " x="38.3198391" y="75.9867522" width="26" height="19.24" rx="0.27"></rect>
            <rect id="Rectangle" fill="#FFFFFF" fill-rule="nonzero" transform="translate(50.930757, 84.903452) rotate(-79.560000) translate(-50.930757, -84.903452) " x="37.9307572" y="75.2834518" width="26" height="19.24"></rect>
            <rect id="Rectangle" fill="#F7A9B4" fill-rule="nonzero" opacity="0.39" transform="translate(50.930757, 84.903452) rotate(-79.560000) translate(-50.930757, -84.903452) " x="37.9307572" y="75.2834518" width="26" height="19.24" rx="0.27"></rect>
            <path d="M59.89,76.88 L59.89,76.88 L55.26,76 C55.1793523,75.9802285 55.1272323,75.9020484 55.14,75.82 C55.1471527,75.782429 55.1693647,75.7494198 55.2014747,75.7286427 C55.2335848,75.7078657 55.2727971,75.7011297 55.31,75.71 L59.91,76.56 C59.975783,76.5774237 60.0215943,76.6369486 60.0215943,76.705 C60.0215943,76.7730514 59.975783,76.8325763 59.91,76.85 L59.89,76.88 Z" id="Path" fill="#FFFFFF" fill-rule="nonzero"></path>
            <path d="M59.62,78.35 L59.62,78.35 L55,77.5 C54.9208077,77.4848002 54.8678028,77.40971 54.88,77.33 C54.8846848,77.2905988 54.9058688,77.255036 54.9382851,77.2321539 C54.9707014,77.2092719 55.0113048,77.2012199 55.05,77.21 L59.65,78.06 C59.715783,78.0774237 59.7615943,78.1369486 59.7615943,78.205 C59.7615943,78.2730514 59.715783,78.3325763 59.65,78.35 L59.62,78.35 Z" id="Path" fill="#FFFFFF" fill-rule="nonzero"></path>
            <path d="M59.32,80 L59.32,80 L54.72,79.15 C54.6408077,79.1348002 54.5878028,79.05971 54.6,78.98 C54.6071527,78.942429 54.6293647,78.9094198 54.6614747,78.8886427 C54.6935848,78.8678657 54.7327971,78.8611297 54.77,78.87 L59.38,79.71 C59.4606477,79.7297715 59.5127677,79.8079516 59.5,79.89 C59.4760888,79.9666285 59.3990986,80.0136781 59.32,80 L59.32,80 Z" id="Path" fill="#FFFFFF" fill-rule="nonzero"></path>
            <rect id="Rectangle" fill="#3E479B" fill-rule="nonzero" opacity="0.14" transform="translate(49.088191, 76.051519) rotate(-79.560000) translate(-49.088191, -76.051519) " x="44.4831908" y="71.7465191" width="9.21" height="8.61" rx="0.29"></rect>
            <rect id="Rectangle" fill="#599AF2" fill-rule="nonzero" transform="translate(48.946630, 75.807524) rotate(-79.560000) translate(-48.946630, -75.807524) " x="44.5716296" y="71.6925241" width="8.75" height="8.23" rx="0.29"></rect>
            <path d="M53.59,73.3 L45.5,71.81 L45.64,71.04 C45.6544777,70.9670066 45.6974164,70.9027788 45.7593337,70.8615006 C45.821251,70.8202224 45.8970531,70.8052896 45.97,70.82 L53.52,72.21 C53.6674039,72.2402254 53.7645628,72.3815474 53.74,72.53 L53.59,73.3 Z" id="Path" fill="#ECF1F7" fill-rule="nonzero" opacity="0.07"></path>
            <path d="M47.76,75.8 L47.59,75.8 L47.48,75.8 C46.8840644,75.6887244 46.4904979,75.116264 46.6,74.52 L46.88,73 C46.9124295,72.8925656 47.0205247,72.8267597 47.1308538,72.847286 C47.2411828,72.8678124 47.3183786,72.968091 47.31,73.08 L47,74.57 C46.9651447,74.7415618 47.00209,74.9199129 47.1022304,75.0635104 C47.2023708,75.2071079 47.3569636,75.3034153 47.53,75.33 L47.64,75.33 C47.9158929,75.3785664 48.1793136,75.1955113 48.23,74.92 L49,71.06 C49.0488582,70.7763548 48.8624091,70.5055595 48.58,70.45 L48.38,70.45 C48.0776124,70.4009631 47.7905419,70.5997042 47.73,70.9 L47.73,71 C47.7232432,71.0576215 47.6917982,71.1094695 47.643823,71.1420927 C47.5958478,71.1747158 47.5360706,71.1848989 47.48,71.17 C47.3619318,71.1495881 47.2819095,71.0384461 47.3,70.92 L47.3,70.82 C47.4012084,70.2799262 47.9192115,69.9226827 48.46,70.02 L48.66,70.02 C49.1743294,70.1349206 49.511194,70.6292802 49.43,71.15 L48.7,75 C48.6082611,75.4513037 48.2201657,75.7815977 47.76,75.8 Z" id="Path" fill="#3E479B" fill-rule="nonzero"></path>
            <path d="M48.53,72.54 L48.53,72.54 L45.57,72 C45.5481587,71.9739754 45.5481587,71.9360246 45.57,71.91 C45.57,71.91 45.57,71.85 45.65,71.91 L48.59,72.45 C48.6100769,72.448838 48.6294007,72.4578114 48.641467,72.4738997 C48.6535333,72.4899881 48.6567371,72.5110516 48.65,72.53 C48.6392013,72.5522322 48.6174786,72.5671218 48.5928479,72.5691744 C48.5682171,72.571227 48.5443296,72.5601382 48.53,72.54 Z" id="Path" fill="#FFFFFF" fill-rule="nonzero"></path>
            <path d="M57.51,87.73 L57.51,87.73 L43.42,85.14 C43.3526531,85.1263309 43.3032082,85.0686452 43.3,85 C43.3151998,84.9208077 43.39029,84.8678028 43.47,84.88 L57.54,87.47 C57.6191923,87.4851998 57.6721972,87.56029 57.66,87.64 C57.6322771,87.6970965 57.5734253,87.7324076 57.51,87.73 Z" id="Path" fill="#FFFFFF" fill-rule="nonzero"></path>
            <path d="M56.51,93.1900075 L56.51,93.1900075 L42.44,90.59 C42.3899828,90.579282 42.349483,90.5426944 42.3337564,90.4940192 C42.3180299,90.4453441 42.3294658,90.3919764 42.3637564,90.3540192 C42.3980471,90.3160621 42.4499828,90.299282 42.5,90.31 L56.53,92.9 C56.6091923,92.9151998 56.6621972,92.99029 56.65,93.07 C56.6399834,93.1394232 56.5801384,93.1907189 56.51,93.1900075 L56.51,93.1900075 Z" id="Path" fill="#FFFFFF" fill-rule="nonzero"></path>
            <path d="M49.59,89.09 L49.59,89.09 L42.94,87.87 C42.8608077,87.8548002 42.8078028,87.77971 42.82,87.7 C42.8246848,87.6605988 42.8458688,87.625036 42.8782851,87.6021539 C42.9107014,87.5792719 42.9513048,87.5712199 42.99,87.58 L49.64,88.8 C49.7191923,88.8151998 49.7721972,88.89029 49.76,88.97 C49.7448002,89.0491923 49.66971,89.1021972 49.59,89.09 L49.59,89.09 Z" id="Path" fill="#FFFFFF" fill-rule="nonzero"></path>
            <path d="M50.51,84.1200075 L50.51,84.1200075 L43.83,82.9 C43.7535817,82.8806342 43.7026572,82.8084913 43.71,82.73 C43.7172037,82.6898173 43.740474,82.6543064 43.7744411,82.6316617 C43.8084082,82.6090169 43.8501376,82.6011947 43.89,82.61 L50.53,83.83 C50.6091923,83.8451998 50.6621972,83.92029 50.65,84 C50.6399834,84.0694232 50.5801384,84.1207189 50.51,84.1200075 Z" id="Path" fill="#FFFFFF" fill-rule="nonzero"></path>
            <path d="M57,90.44 L57,90.44 L50.66,89.27 C50.5808077,89.2548002 50.5278028,89.17971 50.54,89.1 C50.5630668,89.0330974 50.6297549,88.9914173 50.7,89 L57,90.15 C57.0791923,90.1651998 57.1321972,90.24029 57.12,90.32 C57.1062555,90.3796657 57.0596657,90.4262555 57,90.44 Z" id="Path" fill="#FFFFFF" fill-rule="nonzero"></path>
            <rect id="Rectangle" fill="#599AF2" fill-rule="nonzero" x="47.22" y="57.95" width="8.8" height="3.59" rx="0.49"></rect>
            <rect id="Rectangle" fill="#F7A9B4" fill-rule="nonzero" x="49.99" y="60.6" width="11.92" height="4.87" rx="0.49"></rect>
            <rect id="Rectangle" fill="#FFFFFF" fill-rule="nonzero" x="52.23" y="64.44" width="13.44" height="5.04" rx="0.67"></rect>
            <rect id="Rectangle" fill="#6D6CD4" fill-rule="nonzero" opacity="0.74" x="52.23" y="64.44" width="13.44" height="5.04" rx="0.67"></rect>
            <path d="M61.41,67.5500016 C61.0863939,67.54465 60.82535,67.2836061 60.82,66.96 C60.8254573,66.6380639 61.0880176,66.3799537 61.41,66.38 C61.572743,66.3768038 61.7293391,66.4421411 61.8415498,66.5600574 C61.9537605,66.6779738 62.0112572,66.8376153 62,67 C61.9789265,67.3101311 61.7208454,67.5507152 61.41,67.5500016 L61.41,67.5500016 Z M61.41,66.55 C61.1748748,66.5659945 60.9941005,66.7644052 61,67 C61,67.2430053 61.1969947,67.44 61.44,67.44 C61.6790913,67.4345647 61.8700618,67.239153 61.87,67 C61.8821457,66.8737908 61.8379715,66.7486547 61.749285,66.6580402 C61.6605985,66.5674257 61.5364412,66.520571 61.41,66.53 L61.41,66.55 Z" id="Shape" fill="#FFFFFF" fill-rule="nonzero"></path>
            <path d="M59,67.55 C58.6763939,67.54465 58.41535,67.2836061 58.41,66.96 C58.4154573,66.6380639 58.6780176,66.3799537 59,66.38 C59.3203252,66.38 59.58,66.6396748 59.58,66.96 C59.5800463,67.2819824 59.3219361,67.5445427 59,67.55 L59,67.55 Z M59,66.55 C58.760847,66.5499382 58.5654353,66.7409087 58.56,66.98 C58.56,67.2230053 58.7569947,67.42 59,67.42 C59.2430053,67.42 59.44,67.2230053 59.44,66.98 C59.442692,66.8615819 59.3975262,66.7470798 59.3147166,66.6623882 C59.231907,66.5776966 59.1184487,66.5299694 59,66.53 L59,66.55 Z" id="Shape" fill="#FFFFFF" fill-rule="nonzero"></path>
            <path d="M56.75,67.55 C56.4280639,67.5445427 56.1699537,67.2819824 56.17,66.96 C56.17,66.6396748 56.4296748,66.38 56.75,66.38 C57.0719824,66.3799537 57.3345427,66.6380639 57.34,66.96 C57.33465,67.2836061 57.0736061,67.54465 56.75,67.55 Z M56.75,66.55 C56.5125176,66.55 56.32,66.7425176 56.32,66.98 C56.3199382,67.219153 56.5109087,67.4145647 56.75,67.42 C56.9930053,67.42 57.19,67.2230053 57.19,66.98 C57.192692,66.8615819 57.1475262,66.7470798 57.0647166,66.6623882 C56.981907,66.5776966 56.8684487,66.5299694 56.75,66.53 L56.75,66.55 Z" id="Shape" fill="#FFFFFF" fill-rule="nonzero"></path>
            <path d="M23.44,58.3 L42.2,58.3 C42.5810765,58.3 42.8900212,58.6089235 42.8900212,58.99 L42.8900212,86.63 C42.8926595,87.2576418 42.6451919,87.8604892 42.2023175,88.3052402 C41.7594431,88.7499912 41.1576474,89 40.53,89 L27.53,89 C24.7685763,89 22.53,86.7614237 22.53,84 L22.53,59.28 C22.5381577,58.7687161 22.9307203,58.3459563 23.44,58.3 Z" id="Path" fill="#FFFFFF" fill-rule="nonzero"></path>
            <path d="M22.71,58.3 L42.52,58.3 C42.7221296,58.3052528 42.8847472,58.4678704 42.8900223,58.67 L42.8900223,86.74 C42.8926599,87.3384678 42.6567817,87.9133365 42.2345363,88.3374587 C41.8122908,88.7615808 41.2384738,89 40.64,89 L27.05,89 C24.5189191,88.9944856 22.47,86.9410869 22.47,84.41 L22.47,58.54 C22.47,58.4074517 22.5774517,58.3 22.71,58.3 Z" id="Path" fill="#6D6CD4" fill-rule="nonzero" opacity="0.39"></path>
            <path d="M24.45,58.3 L42.6,58.3 C42.7601626,58.3 42.8900231,58.4298374 42.8900231,58.59 L42.8900231,86.81 C42.8926583,87.3881738 42.6655259,87.9437224 42.2585706,88.3544284 C41.8516153,88.7651344 41.2981738,88.9973539 40.72,89 L28.79,89 C26.2991958,89 24.28,86.9808042 24.28,84.49 L24.28,58.49 C24.2772729,58.4422426 24.2936675,58.3953638 24.3255638,58.359715 C24.3574601,58.3240662 24.4022344,58.3025797 24.45,58.3 L24.45,58.3 Z" id="Path" fill="#3E479B" fill-rule="nonzero" opacity="0.39"></path>
            <path d="M27.13,89 L43.53,89 C44.447409,89.0134181 45.3317358,88.6576528 45.9842613,88.0126492 C46.6367869,87.3676456 47.0027809,86.4875029 47.0000157,85.57 L47.0000157,84.27 L30.37,84.27 L30.37,85.57 C30.3727982,87.3925513 28.9497552,88.8990444 27.13,89 L27.13,89 Z" id="Path" fill="#6161B5" fill-rule="nonzero"></path>
            <g id="Group" opacity="0.28" transform="translate(29.000000, 84.000000)" fill="#3E479B" fill-rule="nonzero">
                <path d="M0.31,5 L14.91,5 C16.6741904,4.86659868 18.0075806,3.34653382 17.91,1.58 L17.91,0.28 L3.19,0.28 L3.19,1.58 C3.27605101,3.29907478 2.01864315,4.79224661 0.31,5 Z" id="Path"></path>
            </g>
            <path d="M39.79,80.73 L28,80.73 C27.9209104,80.7301759 27.8552725,80.6689138 27.85,80.59 C27.85,80.5071573 27.9171573,80.44 28,80.44 L39.79,80.44 C39.8728427,80.44 39.94,80.5071573 39.94,80.59 C39.9347275,80.6689138 39.8690896,80.7301759 39.79,80.73 Z" id="Path" fill="#FFFFFF" fill-rule="nonzero"></path>
            <path d="M40,75.77 L27.78,75.77 C27.6971573,75.77 27.63,75.7028427 27.63,75.62 C27.63,75.5371573 27.6971573,75.47 27.78,75.47 L40,75.47 C40.0828427,75.47 40.15,75.5371573 40.15,75.62 C40.15,75.7028427 40.0828427,75.77 40,75.77 Z" id="Path" fill="#FFFFFF" fill-rule="nonzero"></path>
            <path d="M33.89,78.25 L27.63,78.25 C27.5471573,78.25 27.48,78.1828427 27.48,78.1 C27.48,78.0171573 27.5471573,77.95 27.63,77.95 L33.89,77.95 C33.9728427,77.95 34.04,78.0171573 34.04,78.1 C34.04,78.1828427 33.9728427,78.25 33.89,78.25 Z" id="Path" fill="#FFFFFF" fill-rule="nonzero"></path>
            <path d="M33.42,78.25 L28.1,78.25 C28.0171573,78.25 27.95,78.1828427 27.95,78.1 C27.95,78.0171573 28.0171573,77.95 28.1,77.95 L33.42,77.95 C33.5028427,77.95 33.57,78.0171573 33.57,78.1 C33.57,78.1828427 33.5028427,78.25 33.42,78.25 Z" id="Path" fill="#FFFFFF" fill-rule="nonzero"></path>
            <path d="M35.93,70.46 L27.86,70.46 C27.7810862,70.4547275 27.7198241,70.3890896 27.7199996,70.31 C27.7199996,70.2326801 27.7826801,70.17 27.86,70.17 L35.93,70.17 C36.0090896,70.1698241 36.0747275,70.2310862 36.08,70.31 C36.08,70.3928427 36.0128427,70.46 35.93,70.46 Z" id="Path" fill="#FFFFFF" fill-rule="nonzero"></path>
            <path d="M39.67,70.46 L37.22,70.46 C37.1371573,70.46 37.0699995,70.3928427 37.0699995,70.31 C37.0699006,70.2710703 37.0860152,70.2338571 37.114475,70.2072946 C37.1429348,70.1807321 37.1811696,70.1672192 37.22,70.17 L39.67,70.17 C39.7088304,70.1672192 39.7470652,70.1807321 39.775525,70.2072946 C39.8039848,70.2338571 39.8200994,70.2710703 39.8200005,70.31 C39.8200005,70.3928427 39.7528427,70.46 39.67,70.46 Z" id="Path" fill="#FFFFFF" fill-rule="nonzero"></path>
            <path d="M40,72.94 L31.3,72.94 C31.2171573,72.94 31.15,72.8728427 31.15,72.79 C31.1552725,72.7110862 31.2209104,72.6498241 31.3,72.65 L40,72.65 C40.0773199,72.65 40.1400004,72.7126801 40.1400004,72.79 C40.1401759,72.8690896 40.0789138,72.9347275 40,72.94 Z" id="Path" fill="#FFFFFF" fill-rule="nonzero"></path>
            <path d="M30.43,72.94 L27.78,72.94 C27.6971573,72.94 27.63,72.8728427 27.63,72.79 C27.6352725,72.7110862 27.7009104,72.6498241 27.78,72.65 L30.43,72.65 C30.4688304,72.6472192 30.5070652,72.6607321 30.535525,72.6872946 C30.5639848,72.7138571 30.5800994,72.7510703 30.5800005,72.79 C30.5800005,72.8297825 30.5641965,72.8679356 30.536066,72.896066 C30.5079356,72.9241965 30.4697825,72.94 30.43,72.94 L30.43,72.94 Z" id="Path" fill="#FFFFFF" fill-rule="nonzero"></path>
            <path d="M39.79,68.36 L28,68.36 C27.9171573,68.36 27.85,68.2928427 27.85,68.21 C27.8552725,68.1310862 27.9209104,68.0698241 28,68.07 L39.79,68.07 C39.8690896,68.0698241 39.9347275,68.1310862 39.94,68.21 C39.94,68.2928427 39.8728427,68.36 39.79,68.36 Z" id="Path" fill="#FFFFFF" fill-rule="nonzero"></path>
            <path d="M39.79,63.39 L28,63.39 C27.9209104,63.3901759 27.8552725,63.3289138 27.85,63.25 C27.85,63.1671573 27.9171573,63.1 28,63.1 L39.79,63.1 C39.8728427,63.1 39.94,63.1671573 39.94,63.25 C39.9347275,63.3289138 39.8690896,63.3901759 39.79,63.39 L39.79,63.39 Z" id="Path" fill="#FFFFFF" fill-rule="nonzero"></path>
            <path d="M32.33,65.87 L27.86,65.87 C27.7826801,65.87 27.7199996,65.8073199 27.7199996,65.73 C27.7198241,65.6509104 27.7810862,65.5852725 27.86,65.58 L32.33,65.58 C32.4089138,65.5852725 32.4701759,65.6509104 32.4700004,65.73 C32.4700004,65.8073199 32.4073199,65.87 32.33,65.87 L32.33,65.87 Z" id="Path" fill="#FFFFFF" fill-rule="nonzero"></path>
            <path d="M39.7,65.87 L34.38,65.87 C34.3026801,65.87 34.2399996,65.8073199 34.2399996,65.73 C34.2398241,65.6509104 34.3010862,65.5852725 34.38,65.58 L39.7,65.58 C39.7828427,65.58 39.85,65.6471573 39.85,65.73 C39.8447275,65.8089138 39.7790896,65.8701759 39.7,65.87 Z" id="Path" fill="#FFFFFF" fill-rule="nonzero"></path>
            <circle id="Oval" fill="#FFFFFF" fill-rule="nonzero" opacity="0.21" cx="48.98" cy="76.47" r="9.3"></circle>
            <path d="M41.69,77.1400879 C41.5326994,77.1427363 41.3810355,77.0814548 41.2697903,76.9702097 C41.1585452,76.8589645 41.0972637,76.7073006 41.0999121,76.55 C41.0920297,74.2868939 41.9847773,72.1136017 43.5812884,70.5095865 C45.1777995,68.9055712 47.3468815,68.0026422 49.61,68 C49.935848,68 50.2,68.264152 50.2,68.59 C50.2,68.915848 49.935848,69.18 49.61,69.18 C45.5640367,69.1855085 42.2855085,72.4640367 42.28,76.51 C42.2910961,76.6732851 42.2338695,76.833843 42.1219977,76.9532994 C42.0101258,77.0727558 41.8536613,77.1403766 41.69,77.1400879 Z" id="Path" fill="#FFFFFF" fill-rule="nonzero" opacity="0.76"></path>
            <path d="M49,86.07 C43.6980664,86.07 39.4,81.7719336 39.4,76.47 C39.4,71.1680664 43.6980664,66.87 49,66.87 C54.3019336,66.87 58.6,71.1680664 58.6,76.47 C58.5944881,81.7696488 54.2996488,86.0644881 49,86.07 Z M49,67.46 C44.0294373,67.46 40,71.4894373 40,76.46 C40,81.4305627 44.0294373,85.46 49,85.46 C53.9705627,85.46 58,81.4305627 58,76.46 C58,71.4894373 53.9705627,67.46 49,67.46 Z" id="Shape" fill="#3E479B" fill-rule="nonzero" opacity="0.58"></path>
            <circle id="Oval" cx="48.98" cy="76.47" r="9.3"></circle>
            <path d="M57.53,83.14 C57.53,83.14 57.53,83.14 57.53,83.14 C60.9995133,78.6167661 60.3644275,72.1774948 56.0781316,68.4191928 C51.7918357,64.6608908 45.3247958,64.8728894 41.2938426,68.9038426 C37.2628894,72.9347958 37.0508908,79.4018357 40.8091928,83.6881316 C44.5674948,87.9744275 51.0067661,88.6095133 55.53,85.14 L56.79,83.88 L57.53,83.14 Z M49,85.7800054 C45.2335491,85.7840456 41.8357174,83.5183037 40.391555,80.0397173 C38.9473925,76.5611309 39.7414464,72.5550948 42.4032994,69.8903796 C45.0651524,67.2256644 49.0703328,66.4273058 52.5504692,67.867729 C56.0306056,69.3081522 58.3,72.703547 58.3,76.47 C58.3,81.6078683 54.1378653,85.7744813 49,85.7800054 L49,85.7800054 Z" id="Shape" fill="#3E479B" fill-rule="nonzero"></path>
            <path d="M49,87.4801099 C42.9248678,87.4801099 38,82.5551322 38,76.48 C38,70.4048678 42.9248678,65.48 49,65.48 C55.0751322,65.48 60.0000834,70.4048678 60.0000834,76.48 C60.0095255,78.9130414 59.2032469,81.279064 57.71,83.2 L57.71,83.2 L57.71,83.2 L55.71,85.2 C53.7908355,86.6882389 51.428565,87.490918 49,87.4801099 L49,87.4801099 Z M49,65.76 C43.0850303,65.76 38.29,70.5550303 38.29,76.47 C38.29,82.3849697 43.0850303,87.1801209 49,87.1801209 C51.3449117,87.1911978 53.6273492,86.4245239 55.49,85 L57.43,83 C59.9113436,79.7743788 60.3501525,75.4211377 58.5624738,71.765197 C56.7747951,68.1092562 53.0695451,65.7823734 49,65.76 L49,65.76 Z M49,85.92 C43.7809091,85.92 39.55,81.6890909 39.55,76.47 C39.55,71.2509091 43.7809091,67.02 49,67.02 C54.2190909,67.02 58.45,71.2509091 58.45,76.47 C58.4444883,81.6868062 54.2168062,85.9144883 49,85.92 Z M49,67.32 C45.2942163,67.32 41.953517,69.5528481 40.536311,72.9769334 C39.119105,76.4010186 39.9046303,80.3416813 42.5264458,82.9606346 C45.1482613,85.5795879 49.0897797,86.3608083 52.5123149,84.939863 C55.9348501,83.5189177 58.1640456,80.1757815 58.1600055,76.47 C58.1544814,71.4149774 54.0550256,67.32 49,67.32 L49,67.32 Z" id="Shape" fill="#3E479B" fill-rule="nonzero"></path>
            <path d="M57.26,84.84 L56.84,84.42 C56.6786087,84.2564441 56.6786087,83.9935559 56.84,83.83 L55.58,85.09 L55.58,85.09 C55.5030573,85.1668969 55.4598275,85.271219 55.4598275,85.38 C55.4598275,85.488781 55.5030573,85.5931031 55.58,85.67 L56.09,86.18 C56.4421659,85.7016611 56.8335155,85.2534488 57.26,84.84 Z" id="Path" fill="#4C65BA" fill-rule="nonzero"></path>
            <path d="M56.84,83.83 C56.6786087,83.9935559 56.6786087,84.2564441 56.84,84.42 L57.26,84.84 C57.6756843,84.3999456 58.12724,83.9952179 58.61,83.63 L58.12,83.14 C57.9606346,83.0074236 57.7293654,83.0074236 57.57,83.14 C57.57,83.14 57.57,83.14 57.57,83.14 L56.84,83.83 Z" id="Path" fill="#4C65BA" fill-rule="nonzero"></path>
            <path d="M56.84,83.83 C56.6786087,83.9935559 56.6786087,84.2564441 56.84,84.42 L57.26,84.84 C57.6756843,84.3999456 58.12724,83.9952179 58.61,83.63 L58.12,83.14 C57.9606346,83.0074236 57.7293654,83.0074236 57.57,83.14 C57.57,83.14 57.57,83.14 57.57,83.14 L56.84,83.83 Z" id="Path" fill="#3E479B" fill-rule="nonzero" opacity="0.43"></path>
            <path d="M66.48,91.27 L58.84,83.54 C58.84,83.54 58.73,83.54 58.61,83.63 C58.12724,83.9952179 57.6756843,84.3999456 57.26,84.84 C56.8257274,85.2589987 56.427644,85.7139512 56.07,86.2 C56.07,86.3 56,86.36 56.07,86.38 L63.72,94.11 C64.4988944,94.8788434 65.7511056,94.8788434 66.53,94.11 C66.9020914,93.7278406 67.1061159,93.212883 67.0967269,92.6795823 C67.0873378,92.1462815 66.865313,91.6388248 66.48,91.27 Z" id="Path" fill="#599AF2" fill-rule="nonzero"></path>
            <path d="M66.48,91.27 L58.84,83.54 C58.73,83.43 57.84,84.21 57.12,84.99 C56.4,85.77 65.71,94.9 66.48,94.11 L66.48,94.11 C66.8586253,93.7344668 67.0715966,93.2232751 67.0715966,92.69 C67.0715966,92.1567249 66.8586253,91.6455332 66.48,91.27 Z" id="Path" fill="#3E479B" fill-rule="nonzero" opacity="0.14"></path>
            <rect id="Rectangle" fill="#FFFFFF" fill-rule="nonzero" x="10.46" y="76.35" width="30.45" height="5.32" rx="2.66"></rect>
            <path d="M38.25,81.67 L34.16,81.67 L34.16,76.35 L38.27,76.35 C39.7273706,76.3609478 40.9045621,77.5425984 40.9100188,79 L40.9100188,79 C40.9126587,79.7072069 40.6335836,80.3863602 40.1344484,80.8873718 C39.6353132,81.3883835 38.9572119,81.67 38.25,81.67 L38.25,81.67 Z" id="Path" fill="#599AF2" fill-rule="nonzero"></path>
            <path d="M37.22,79.94 C36.5793497,79.94 36.06,79.4206503 36.06,78.78 C36.06,78.1393497 36.5793497,77.62 37.22,77.62 C37.8606503,77.62 38.38,78.1393497 38.38,78.78 C38.38,79.4206503 37.8606503,79.94 37.22,79.94 Z M37.22,77.94 C36.8270398,77.939852 36.482762,78.2031383 36.3799669,78.5824151 C36.2771717,78.9616919 36.441381,79.3627932 36.7806352,79.5610968 C37.1198894,79.7594003 37.5499594,79.7056719 37.83,79.43 C37.9898437,79.2630954 38.0793584,79.041099 38.08,78.81 C38.0909392,78.5750656 38.0051849,78.3459012 37.8427028,78.1758618 C37.6802206,78.0058224 37.4551888,77.9097455 37.22,77.9099995 L37.22,77.94 Z" id="Shape" fill="#FFFFFF" fill-rule="nonzero"></path>
            <path d="M38.85,80.57 C38.818,80.5833333 38.782,80.5833333 38.75,80.57 L37.83,79.65 C37.7998649,79.6234234 37.7826013,79.5851801 37.7826013,79.545 C37.7826013,79.5048199 37.7998649,79.4665766 37.83,79.44 C37.8546983,79.4102668 37.8913468,79.3930662 37.93,79.3930662 C37.9686532,79.3930662 38.0053017,79.4102668 38.03,79.44 L38.96,80.36 C39.0084034,80.4216325 39.0084034,80.5083675 38.96,80.57 C38.9246563,80.5839295 38.8853437,80.5839295 38.85,80.57 L38.85,80.57 Z" id="Path" fill="#FFFFFF" fill-rule="nonzero"></path>
            <path d="M38.61,87.16 L26.1,87.16 C25.2257577,87.1600173 24.5154984,86.454225 24.51,85.58 L24.51,84.58 C24.5045016,83.705775 23.7942423,83 22.92,83 L17.14,83 C16.2618672,83 15.55,83.7118672 15.55,84.59 L15.55,101.05 C15.5551045,101.853647 16.1966262,102.508441 17,102.53 L38.61,102.53 C39.4273814,102.53 40.09,101.867381 40.09,101.05 L40.09,88.65 C40.09,87.8309852 39.4289964,87.1654967 38.61,87.16 L38.61,87.16 Z" id="Path" fill="#F28393" fill-rule="nonzero"></path>
            <path d="M37.23,87.16 L24.72,87.16 C23.8473901,87.16 23.14,86.4526099 23.14,85.58 L23.14,84.58 C23.1290512,83.7041648 22.4159037,83 21.54,83 L15.77,83 C14.8918672,83 14.18,83.7118672 14.18,84.59 L14.18,101.05 C14.18,101.867381 14.8426186,102.53 15.66,102.53 L37.23,102.53 C38.0473814,102.53 38.71,101.867381 38.71,101.05 L38.71,88.65 C38.71,87.8309852 38.0489964,87.1654967 37.23,87.16 L37.23,87.16 Z" id="Path" fill="#F28393" fill-rule="nonzero"></path>
            <path d="M37.23,87.16 L24.72,87.16 C23.8473901,87.16 23.14,86.4526099 23.14,85.58 L23.14,84.58 C23.1290512,83.7041648 22.4159037,83 21.54,83 L15.77,83 C14.8918672,83 14.18,83.7118672 14.18,84.59 L14.18,101.05 C14.18,101.867381 14.8426186,102.53 15.66,102.53 L37.23,102.53 C38.0473814,102.53 38.71,101.867381 38.71,101.05 L38.71,88.65 C38.71,87.8309852 38.0489964,87.1654967 37.23,87.16 L37.23,87.16 Z" id="Path" fill="#FFFFFF" fill-rule="nonzero" opacity="0.12"></path>
            <path d="M34.06,87.16 L23.27,87.16 C22.4583632,87.0960734 21.8483095,86.3925078 21.9,85.58 L21.9,84.58 C21.9516905,83.7674922 21.3416368,83.0639266 20.53,83 L15.53,83 C14.7142026,83.0638861 14.1025832,83.7737217 14.16,84.59 L14.16,101.05 C14.1081646,101.807363 14.6735484,102.466235 15.43,102.53 L34.06,102.53 C34.8204525,102.471392 35.3916391,101.810957 35.34,101.05 L35.34,88.65 C35.3918199,87.8871234 34.8219697,87.2237821 34.06,87.16 Z" id="Path" fill="#FFFFFF" fill-rule="nonzero" opacity="0.12"></path>
            <path d="M15.33,88.8200004 C15.2471573,88.8200004 15.18,88.7528427 15.18,88.67 L15.18,85.0599995 C15.18,84.5077153 15.6277153,84.0599995 16.18,84.0599995 L20.44,84.0599995 C20.4789297,84.0599006 20.5161429,84.0760152 20.5427054,84.104475 C20.5692679,84.1329348 20.5827808,84.1711696 20.58,84.21 C20.58,84.2471303 20.56525,84.2827399 20.5389949,84.3089949 C20.5127399,84.33525 20.4771303,84.35 20.44,84.35 L16.2,84.35 C15.802355,84.35 15.48,84.672355 15.48,85.07 L15.48,88.68 C15.4747275,88.7589138 15.4090896,88.8201759 15.33,88.8200004 Z" id="Path" fill="#FFFFFF" fill-rule="nonzero"></path>
            <rect id="bg" x="0" y="0" width="210" height="120"></rect>
        </g>
    </g>
</svg>