<?xml version="1.0" encoding="UTF-8"?>
<svg width="21px" height="21px" viewBox="0 0 21 21" version="1.1" xmlns="http://www.w3.org/2000/svg" xmlns:xlink="http://www.w3.org/1999/xlink">
    <title>ProfileIcon</title>
    <g id="Criadores" stroke="none" stroke-width="1" fill="none" fill-rule="evenodd">
        <g id="HeaderTabletStack" transform="translate(-711.000000, -8.000000)" fill-rule="nonzero">
            <g id="CenterStacked" transform="translate(3.000000, 0.000000)">
                <g id="RStacked" transform="translate(637.000000, 6.000000)">
                    <g id="ProfileIcon" transform="translate(71.000000, 2.000000)">
                        <path d="M20.2261374,20.081604 L20.1506471,20.081604 L18.5882173,20.081604 L18.5127269,20.081604 L18.5127269,20.0065994 C18.5127269,15.4288635 14.7615677,11.7045975 10.1508754,11.7045975 C5.54018309,11.7045975 1.78914681,15.4288635 1.78914681,20.0065994 L1.78914681,20.081604 L1.71365642,20.081604 L0.151103726,20.081604 L0.0756133375,20.081604 L0.0756133375,20.0065994 C0.0756133375,17.3347473 1.12362649,14.8226929 3.02674657,12.9331741 C4.08631688,11.8811417 5.32735921,11.0957413 6.71729218,10.5972443 C5.19727968,9.50170517 4.29434577,7.75287247 4.29434577,5.88980103 C4.29434577,2.68350983 6.92150967,0.0750007629 10.1508754,0.0750007629 C13.3802411,0.0750007629 16.007528,2.68350983 16.007528,5.88980103 C16.007528,7.75287247 15.1044711,9.50170517 13.5845816,10.5972443 C14.9746375,11.0958023 16.2158027,11.8812027 17.2752501,12.9331741 C19.1781243,14.8225021 20.2261374,17.3345642 20.2261374,20.0065994 L20.2261374,20.081604 Z M10.1508754,1.77619934 C7.86636901,1.77619934 6.00775629,3.62155151 6.00775629,5.88980103 C6.00775629,8.15793991 7.86636901,10.0032005 10.1508754,10.0032005 C12.4355047,10.0032005 14.2941174,8.15793991 14.2941174,5.88980103 C14.2941174,3.62155151 12.4355047,1.77619934 10.1508754,1.77619934 Z" id="Shape" fill="#8B8D8F"></path>
                        <path d="M20.1506471,20.0065994 C20.1506471,17.3546982 19.1106256,14.8615036 17.2217675,12.9861984 C16.1326896,11.9048004 14.8363204,11.1043015 13.4217977,10.6197014 C14.9367693,9.58380127 15.9320376,7.85010147 15.9320376,5.88980103 C15.9320376,2.72480011 13.3385616,0.150001526 10.1508754,0.150001526 C6.96318921,0.150001526 4.36983616,2.72480011 4.36983616,5.88980103 C4.36983616,7.85010147 5.3651044,9.58380127 6.88007602,10.6197014 C5.46555334,11.1043015 4.16930713,11.9048004 3.08010623,12.9861984 C1.19137112,14.8615036 0.151103726,17.3546982 0.151103726,20.0065994 L1.71365642,20.0065994 C1.71365642,15.3874969 5.49850354,11.6296005 10.1508754,11.6296005 C14.8032472,11.6296005 18.5882173,15.3874969 18.5882173,20.0065994 L20.1506471,20.0065994 L20.1506471,20.0065994 Z M10.1508754,1.70119858 C12.4770613,1.70119858 14.3696078,3.58010101 14.3696078,5.88980103 C14.3696078,8.19929886 12.4770613,10.0782013 10.1508754,10.0782013 C7.82481242,10.0782013 5.93226591,8.19929886 5.93226591,5.88980103 C5.93226591,3.58010101 7.82481242,1.70119858 10.1508754,1.70119858 L10.1508754,1.70119858 Z M20.3017508,20.156601 L20.1506471,20.156601 L18.5882173,20.156601 L18.4371136,20.156601 L18.4371136,20.0065994 C18.4371136,15.4702225 14.7198882,11.7796021 10.1508754,11.7796021 C5.58186263,11.7796021 1.86476015,15.4702225 1.86476015,20.0065994 L1.86476015,20.156601 L1.71365642,20.156601 L0.151103726,20.156601 L5.87974114e-13,20.156601 L5.87974114e-13,20.0065994 C5.87974114e-13,17.3147125 1.05600481,14.7838211 2.97326397,12.8801422 C4.00738394,11.8534698 5.21301709,11.0788422 6.56028693,10.574791 C5.08896203,9.46102905 4.21873244,7.73048019 4.21873244,5.88980103 C4.21873244,2.64215088 6.87983012,-1.77635684e-15 10.1508754,-1.77635684e-15 C13.4219207,-1.77635684e-15 16.0831413,2.64215088 16.0831413,5.88980103 C16.0831413,7.73048019 15.2129117,9.46102905 13.7415868,10.574791 C15.0891025,11.0788994 16.2947357,11.8535309 17.3286098,12.8801422 C19.2458689,14.7836304 20.3017508,17.3145294 20.3017508,20.0065994 L20.3017508,20.156601 Z M10.1508754,1.8512001 C7.90804856,1.8512001 6.08336963,3.66291046 6.08336963,5.88980103 C6.08336963,8.11658096 7.90804856,9.92819977 10.1508754,9.92819977 C12.3938252,9.92819977 14.2185041,8.11658096 14.2185041,5.88980103 C14.2185041,3.66291046 12.3938252,1.8512001 10.1508754,1.8512001 Z" id="Shape" fill="#8D8F91"></path>
                    </g>
                </g>
            </g>
        </g>
    </g>
</svg>