<?xml version="1.0" encoding="UTF-8"?>
<svg width="220px" height="48px" viewBox="0 0 220 48" version="1.1" xmlns="http://www.w3.org/2000/svg" xmlns:xlink="http://www.w3.org/1999/xlink">
    <title>program Logo</title>
    <g id="symbols" stroke="none" stroke-width="1" fill="none" fill-rule="evenodd">
        <g id="program-Logo">
            <path d="M55.4208933,46.6326531 L51.3028009,46.6326531 C51.1355686,46.6326531 51,46.4997561 51,46.3358193 L51,28.9294868 C51.0062174,28.7681421 51.1382127,28.638748 51.3028009,28.6326531 L58.993944,28.6326531 C63.9356548,28.6326531 67,31.1735502 67,35.2461095 C67,39.3186689 63.9356548,41.8358193 58.993944,41.8358193 L55.7236942,41.8358193 L55.7236942,46.3358193 C55.7236942,46.4997561 55.5881256,46.6326531 55.4208933,46.6326531 Z M51.6056018,46.0389855 L55.1180924,46.0389855 L55.1180924,41.5389855 C55.1180924,41.3750487 55.2536609,41.2421517 55.4208933,41.2421517 L59.0545042,41.2421517 C63.6207419,41.2421517 66.4549584,38.9387217 66.4549584,35.3054763 C66.4549584,31.6722309 63.6207419,29.2856874 59.0545042,29.2856874 L51.666162,29.2856874 L51.6056018,46.0389855 Z M58.7638153,38.6062678 L55.4208933,38.6062678 C55.2536609,38.6062678 55.1180924,38.4733708 55.1180924,38.3094341 L55.1180924,32.218405 C55.1180924,32.0544683 55.2536609,31.9215713 55.4208933,31.9215713 L58.7638153,31.9215713 C61.3921272,31.9215713 62.8455715,33.1089064 62.8455715,35.2461095 C62.8455715,37.3833127 61.3557911,38.6062678 58.7638153,38.6062678 Z M55.7236942,38.0126003 L58.7638153,38.0126003 C60.3504921,38.0126003 62.2399697,37.5495396 62.2399697,35.3054763 C62.2399697,33.061413 60.3504921,32.5746056 58.7638153,32.5746056 L55.7236942,32.5746056 L55.7236942,38.0126003 Z" id="Shape" fill="#FFFFFF" fill-rule="nonzero"></path>
            <path d="M87.686875,46.6326531 L83.0957771,46.6326531 C82.9903131,46.631746 82.8917489,46.5831444 82.8309061,46.5020462 L79.3245182,41.7527058 L75.9064205,41.7527058 L75.9064205,46.3001992 C75.9064205,46.464136 75.7652458,46.597033 75.5910979,46.597033 L71.3153227,46.597033 C71.1411748,46.597033 71,46.464136 71,46.3001992 L71,28.9294868 C71,28.7655501 71.1411748,28.6326531 71.3153227,28.6326531 L79.3245182,28.6326531 C84.4705839,28.6326531 87.6616492,31.1735502 87.6616492,35.2461095 C87.7609803,37.6388535 86.3235482,39.8535222 84.0165193,40.8622045 L87.9517461,46.157719 C88.0160846,46.2517094 88.0160846,46.3724357 87.9517461,46.4664261 C87.9040311,46.5645919 87.8014855,46.6289471 87.686875,46.6326531 Z M83.2597449,46.0389855 L87.0436168,46.0389855 L83.2597449,40.9096979 C83.2225032,40.8302814 83.2225032,40.739774 83.2597449,40.6603575 C83.2939607,40.5761605 83.3618882,40.5079529 83.4489385,40.4703839 C85.7070228,39.6257873 87.153016,37.5316217 87.0562297,35.2461095 C87.0562297,31.541624 84.1048096,29.2263206 79.349744,29.2263206 L71.6558711,29.2263206 L71.6558711,46.0389855 L75.2757752,46.0389855 L75.2757752,41.4914921 C75.2757752,41.3275553 75.41695,41.1946583 75.5910979,41.1946583 L79.5263247,41.1946583 C79.6287269,41.19621 79.7253704,41.2395323 79.7911957,41.3133918 L83.2597449,46.0389855 Z M79.0848729,38.6062678 L75.5910979,38.6062678 C75.41695,38.6062678 75.2757752,38.4733708 75.2757752,38.3094341 L75.2757752,32.2540251 C75.2757752,32.0900883 75.41695,31.9571913 75.5910979,31.9571913 L79.0848729,31.9571913 C81.8218736,31.9571913 83.3354224,33.1445264 83.3354224,35.2817296 C83.3354224,37.4189327 81.7840349,38.6062678 79.0848729,38.6062678 Z M75.9064205,38.0126003 L79.0848729,38.0126003 C80.7371637,38.0126003 82.704777,37.5376663 82.704777,35.2817296 C82.704777,33.0257929 80.7371637,32.5508589 79.0848729,32.5508589 L75.9064205,32.5508589 L75.9064205,38.0126003 Z" id="Shape" fill="#FFFFFF" fill-rule="nonzero"></path>
            <path d="M100,47.6326531 C94.2079807,47.6326531 90,43.6409545 90,38.1326531 C90,32.6243517 94.2079807,28.6326531 100,28.6326531 C105.792019,28.6326531 110,32.6243517 110,38.1326531 C110,43.6409545 105.792019,47.6326531 100,47.6326531 Z M100,29.2392942 C94.5586457,29.2392942 90.6045949,32.9762035 90.6045949,38.1326531 C90.6045949,43.2891026 94.5586457,47.0260119 100,47.0260119 C105.441354,47.0260119 109.395405,43.2891026 109.395405,38.1326531 C109.395405,32.9762035 105.441354,29.251427 100,29.251427 L100,29.2392942 Z M100,44.1262674 C98.4277037,44.1476985 96.9159667,43.5186697 95.8202111,42.3870711 C94.7244556,41.2554724 94.1413476,39.7211318 94.2079807,38.1447859 C94.1100793,35.9853425 95.2024963,33.946537 97.0517125,32.8374568 C98.9009287,31.7283766 101.207898,31.7283766 103.057115,32.8374568 C104.906331,33.946537 105.998748,35.9853425 105.900846,38.1447859 C105.972471,39.7425882 105.376301,41.2978932 104.256064,42.4357412 C103.135828,43.5735892 101.593169,44.1907371 100,44.1384002 L100,44.1262674 Z M100,32.7456799 C98.5774903,32.7140036 97.2055568,33.2755107 96.2109665,34.2964614 C95.2163763,35.3174122 94.6881556,36.7064207 94.7521161,38.1326531 C94.6592588,40.0719878 95.6375423,41.905242 97.297625,42.902809 C98.9577077,43.900376 101.0302,43.900376 102.690283,42.902809 C104.350366,41.905242 105.328649,40.0719878 105.235792,38.1326531 C105.29976,36.7096391 104.772816,35.3237124 103.780492,34.3050347 C102.788168,33.286357 101.419305,32.7261297 100,32.7578127 L100,32.7456799 Z" id="Shape" fill="#FFFFFF" fill-rule="nonzero"></path>
            <path d="M122.099024,47.6322993 C116.247711,47.6322993 112,43.6424572 112,38.1367176 C112,32.630978 116.284434,28.6411358 122.172472,28.6411358 C125.111333,28.5199381 127.95185,29.7024616 129.921177,31.8669656 C130.026274,31.9892944 130.026274,32.1690882 129.921177,32.2914169 L127.252587,34.7168529 C127.133588,34.8324076 126.943141,34.8324076 126.824143,34.7168529 C125.701607,33.4730761 124.08897,32.7738448 122.405055,32.8007585 C120.92348,32.6987293 119.468519,33.2288566 118.406731,34.257582 C117.344943,35.2863074 116.777561,36.7155482 116.847532,38.1852263 C116.79049,39.6426818 117.355071,41.0566578 118.403086,42.081064 C119.4511,43.1054702 120.885825,43.6457615 122.35609,43.5696941 C123.368997,43.5886916 124.371899,43.3683629 125.281747,42.9269536 L125.281747,37.9305555 C125.281747,37.7631141 125.418762,37.627376 125.587778,37.627376 L129.370321,37.627376 C129.539338,37.627376 129.676352,37.7631141 129.676352,37.9305555 L129.676352,45.0855916 C129.676352,45.1810195 129.631,45.2708784 129.55394,45.3281352 C127.37178,46.8464927 124.765559,47.6520231 122.099024,47.6322993 L122.099024,47.6322993 Z M122.172472,29.2474948 C116.63943,29.2474948 112.612062,32.9826662 112.612062,38.1367176 C112.612062,43.290769 116.602707,47.0261032 122.099024,47.0261032 C124.575464,47.0386898 126.996875,46.3025353 129.039808,44.9158111 L129.039808,38.1730991 L125.869326,38.1730991 L125.869326,43.023971 C125.870205,43.1385741 125.803114,43.2430196 125.697949,43.290769 C124.664029,43.8400383 123.504542,44.1157224 122.331608,44.0911628 C120.695931,44.1779646 119.099167,43.5772535 117.933941,42.4367367 C116.768714,41.2962198 116.143121,39.7217018 116.210987,38.100336 C116.15074,36.4811066 116.778764,34.9110725 117.942246,33.7722635 C119.105728,32.6334545 120.697995,32.0302805 122.331608,32.1095092 C124.078805,32.0795226 125.76133,32.7638075 126.983279,34.0013493 L129.211185,31.9639831 C127.355317,30.1188602 124.79881,29.1366185 122.172472,29.259622 L122.172472,29.2474948 Z" id="Shape" fill="#FFFFFF" fill-rule="nonzero"></path>
            <path d="M151.701496,46.6326531 L147.093751,46.6326531 C146.991558,46.6319536 146.896626,46.5828454 146.841272,46.5020462 L143.319188,41.7527058 L139.910719,41.7527058 L139.910719,46.3001992 C139.910719,46.464136 139.769421,46.597033 139.595121,46.597033 L135.315599,46.597033 C135.141298,46.597033 135,46.464136 135,46.3001992 L135,28.9294868 C135,28.7655501 135.141298,28.6326531 135.315599,28.6326531 L143.319188,28.6326531 C148.469763,28.6326531 151.663624,31.1735502 151.663624,35.2461095 C151.765256,37.6360672 150.332043,39.8499631 148.027924,40.8622045 L151.953975,46.157719 C152.015342,46.2525279 152.015342,46.3716172 151.953975,46.4664261 C151.908302,46.5609626 151.81157,46.6246488 151.701496,46.6326531 L151.701496,46.6326531 Z M147.270487,46.0389855 L151.057674,46.0389855 L147.270487,40.9096979 C147.227791,40.8314351 147.227791,40.7386203 147.270487,40.6603575 C147.29641,40.5754537 147.361191,40.50582 147.447222,40.4703839 C149.709815,39.628694 151.158396,37.5326159 151.057674,35.2461095 C151.057674,31.541624 148.103668,29.2263206 143.344436,29.2263206 L135.656446,29.2263206 L135.656446,46.0389855 L139.30477,46.0389855 L139.30477,41.4914921 C139.30477,41.3275553 139.446068,41.1946583 139.620368,41.1946583 L143.559043,41.1946583 C143.65838,41.1946583 143.75192,41.2386474 143.811522,41.3133918 L147.270487,46.0389855 Z M143.079333,38.6062678 L139.620368,38.6062678 C139.446068,38.6062678 139.30477,38.4733708 139.30477,38.3094341 L139.30477,32.2540251 C139.30477,32.0900883 139.446068,31.9571913 139.620368,31.9571913 L143.104581,31.9571913 C145.856604,31.9571913 147.358854,33.1445264 147.358854,35.2817296 C147.358854,37.4189327 145.78086,38.6062678 143.079333,38.6062678 Z M139.910719,38.0126003 L143.079333,38.0126003 C144.733071,38.0126003 146.702409,37.5376663 146.702409,35.2817296 C146.702409,33.0257929 144.733071,32.5508589 143.079333,32.5508589 L139.910719,32.5508589 L139.910719,38.0126003 Z" id="Shape" fill="#FFFFFF" fill-rule="nonzero"></path>
            <path d="M172.671068,46.6312999 L168.514475,46.6312999 C168.393107,46.6331947 168.284095,46.5567331 168.243648,46.4413406 L166.783542,42.8796038 L159.094432,42.8796038 L157.646101,46.4413406 C157.602802,46.5545084 157.495566,46.6297249 157.375274,46.6312999 L153.277556,46.6312999 C153.177464,46.6257713 153.08582,46.5729702 153.03028,46.4888304 C152.989907,46.4023596 152.989907,46.3022348 153.03028,46.215764 L160.71939,28.8107435 C160.768679,28.7042374 160.873677,28.6351938 160.990216,28.6326549 L164.981959,28.6326549 C165.099381,28.6322444 165.205816,28.7022326 165.252785,28.8107435 L172.965445,46.215764 C173.011518,46.3008588 173.011518,46.4037356 172.965445,46.4888304 C172.90085,46.5873813 172.787733,46.6421263 172.671068,46.6312999 L172.671068,46.6312999 Z M168.66755,46.0376771 L172.200066,46.0376771 L164.758233,29.2262795 L161.225717,29.2262795 L153.795658,46.0376771 L157.233974,46.0376771 L158.682305,42.4759403 C158.729274,42.3674294 158.835709,42.2974412 158.953132,42.2978535 L166.971943,42.2978535 C167.089365,42.2974412 167.1958,42.3674294 167.242769,42.4759403 L168.66755,46.0376771 Z M165.688462,39.7927653 L160.271938,39.7927653 C160.17604,39.7943491 160.086464,39.7446747 160.036436,39.6621683 C159.990363,39.5770734 159.990363,39.4741966 160.036436,39.3891018 L162.780024,32.728654 C162.832996,32.6273338 162.937254,32.563916 163.05085,32.563916 C163.164446,32.563916 163.268704,32.6273338 163.321676,32.728654 L166.053489,39.3891018 C166.093862,39.4755726 166.093862,39.5756974 166.053489,39.6621683 C165.978057,39.7876358 165.825457,39.8422321 165.688462,39.7927653 Z M160.660514,39.1991425 L165.252785,39.1991425 L162.95665,33.6190882 L160.660514,39.1991425 Z" id="Shape" fill="#FFFFFF" fill-rule="nonzero"></path>
            <path d="M194.752295,46.6326531 L191.004544,46.6326531 C190.841822,46.6326531 190.70991,46.4997561 190.70991,46.3358193 L190.70991,36.9677454 L186.172539,44.6498035 C186.121562,44.7387667 186.027004,44.7932032 185.925046,44.7922837 L184.121883,44.7922837 C184.019925,44.7932032 183.925367,44.7387667 183.87439,44.6498035 L179.36059,37.1814657 L179.36059,46.3358193 C179.36059,46.4997561 179.228678,46.6326531 179.065956,46.6326531 L175.294634,46.6326531 C175.131912,46.6326531 175,46.4997561 175,46.3358193 L175,28.9294868 C175,28.7655501 175.131912,28.6326531 175.294634,28.6326531 L178.59454,28.6326531 C178.698935,28.6344158 178.795829,28.6876616 178.853819,28.7751333 L185.064713,39.1643153 L191.169539,28.7870066 C191.223175,28.6933645 191.321526,28.6348139 191.428818,28.6326531 L194.705153,28.6326531 C194.867875,28.6326531 194.999788,28.7655501 194.999788,28.9294868 L194.999788,46.3358193 C195.002849,46.4120075 194.972713,46.4857396 194.91729,46.5376663 C194.874214,46.5868188 194.816197,46.6202191 194.752295,46.6326531 Z M191.299179,46.0389855 L194.45766,46.0389855 L194.45766,29.2263206 L191.640955,29.2263206 L185.359348,39.9123364 C185.308371,40.0012997 185.213813,40.0557362 185.111855,40.0548166 C185.005725,40.0601612 184.905575,40.0051266 184.852577,39.9123364 L178.476687,29.2263206 L175.63641,29.2263206 L175.63641,46.0389855 L178.712394,46.0389855 L178.712394,36.1128641 C178.712394,35.980938 178.79882,35.864843 178.924531,35.8279037 C179.050898,35.7963998 179.18323,35.8487753 179.254522,35.9585106 L184.227951,44.1986161 L185.783621,44.1986161 L190.780622,35.7447903 C190.842769,35.6240398 190.98096,35.5643731 191.110613,35.6023101 C191.236323,35.6392494 191.322749,35.7553444 191.322749,35.8872705 L191.299179,46.0389855 Z" id="Shape" fill="#FFFFFF" fill-rule="nonzero"></path>
            <path d="M218.670459,46.6312999 L214.470769,46.6312999 C214.350255,46.6297249 214.242819,46.5545084 214.199441,46.4413406 L212.748424,42.8796038 L205.115842,42.8796038 L203.653029,46.4413406 C203.60965,46.5545084 203.502215,46.6297249 203.3817,46.6312999 L199.288183,46.6312999 C199.186125,46.6322194 199.091475,46.577787 199.040448,46.4888304 C198.986517,46.4058995 198.986517,46.2986949 199.040448,46.215764 L206.743812,28.8107435 C206.790867,28.7022326 206.897499,28.6322444 207.01514,28.6326549 L210.967095,28.6326549 C211.081394,28.6338508 211.183768,28.7040983 211.226626,28.8107435 L218.965381,46.215764 C219.01154,46.3008588 219.01154,46.4037356 218.965381,46.4888304 C218.900666,46.5873813 218.78734,46.6421263 218.670459,46.6312999 Z M214.671316,46.0376771 L218.21038,46.0376771 L210.742954,29.2262795 L207.20389,29.2262795 L199.760058,46.0376771 L203.204747,46.0376771 L204.667561,42.4759403 C204.714616,42.3674294 204.821248,42.2974412 204.938889,42.2978535 L212.960768,42.2978535 C213.078408,42.2974412 213.185041,42.3674294 213.232096,42.4759403 L214.671316,46.0376771 Z M211.674908,39.7927653 L206.201155,39.7927653 C206.102014,39.7939091 206.008937,39.7448418 205.953421,39.6621683 C205.89949,39.5792373 205.89949,39.4720327 205.953421,39.3891018 L208.690297,32.728654 C208.743368,32.6273338 208.847818,32.563916 208.961625,32.563916 C209.075432,32.563916 209.179883,32.6273338 209.232954,32.728654 L212.017018,39.4365916 C212.063177,39.5216865 212.063177,39.6245632 212.017018,39.7096581 C211.936017,39.813989 211.79428,39.8484205 211.674908,39.7927653 L211.674908,39.7927653 Z M206.63764,39.1991425 L211.238423,39.1991425 L208.879047,33.6190882 L206.63764,39.1991425 Z" id="Shape" fill="#FFFFFF" fill-rule="nonzero"></path>
            <path d="M14.099619,26.6161241 C5.92881507,26.6161241 0,21.1484606 0,13.6304234 C0,6.11238618 5.94127057,0.644722747 14.1369855,0.644722747 C18.2439073,0.474535362 22.2083744,2.11142196 24.9109877,5.09319453 C25.0296708,5.20975514 25.0296708,5.39630108 24.9109877,5.51286168 L21.1743395,8.87019888 C21.1170399,8.92994753 21.0343175,8.96091635 20.9501407,8.95413231 C20.8650209,8.94316357 20.7861289,8.90519021 20.7259418,8.8462179 C19.2105138,7.0742925 16.9445973,6.05634199 14.5604723,6.07641471 C12.4479168,5.97191305 10.3883152,6.73416417 8.89254205,8.17409531 C7.39676886,9.61402645 6.60495684,11.5967364 6.71351118,13.6304234 C6.60860517,15.6620826 7.40203053,17.641538 8.89737225,19.0787688 C10.392714,20.5159997 12.4501925,21.2766584 14.5604723,21.1724416 C16.954065,21.1978405 19.227133,20.1634154 20.7259418,18.3666669 C20.7819509,18.3039446 20.8642465,18.2687343 20.9501407,18.270743 C21.0317904,18.2654312 21.1123304,18.2912756 21.1743395,18.342686 L24.9109877,21.7120137 C24.9672729,21.7660098 24.9989101,21.839357 24.9989101,21.915852 C24.9989101,21.9923469 24.9672729,22.0656942 24.9109877,22.1196903 C22.2302518,25.1562424 18.2338554,26.8183383 14.099619,26.6161241 Z M14.1369855,1.24424725 C6.30247989,1.24424725 0.622774692,6.4481199 0.622774692,13.6304234 C0.622774692,20.8127269 6.29002439,26.0165996 14.099619,26.0165996 C17.926357,26.1906209 21.6313431,24.6979047 24.1885691,21.9518235 L20.8629522,18.9901724 C19.2491715,20.7813649 16.8987534,21.7986891 14.4359174,21.7719661 C12.1605337,21.8754701 9.94512933,21.0514089 8.33321011,19.5019498 C6.72129089,17.9524907 5.86201233,15.8210096 5.96618155,13.6304234 C5.85142403,11.4327498 6.70555064,9.29052822 8.31828276,7.73115524 C9.93101488,6.17178225 12.1525326,5.34012079 14.4359174,5.44091874 C16.890359,5.41642695 19.2351243,6.41818108 20.8629522,8.18674095 L24.1885691,5.22508992 C21.6043587,2.54642941 17.9311343,1.09168071 14.1369855,1.24424725 Z" id="Shape" fill="#76C2BD" fill-rule="nonzero"></path>
            <path d="M48.7057015,26.6326531 L42.7072936,26.6326531 C42.6110482,26.6310312 42.5202153,26.585749 42.4583478,26.508548 L37.8469235,19.5710779 L33.105099,19.5710779 L33.105099,26.3223905 C33.105099,26.4937438 32.9724123,26.6326531 32.808735,26.6326531 L27.296364,26.6326531 C27.1326867,26.6326531 27,26.4937438 27,26.3223905 L27,0.942915591 C27,0.771562327 27.1326867,0.632653061 27.296364,0.632653061 L37.7283779,0.632653061 C44.4024958,0.632653061 48.5515922,4.28134041 48.5515922,10.1515075 C48.690909,13.6480309 46.7722258,16.8776462 43.7149313,18.2927963 L48.9546473,26.1486435 C49.0151176,26.246886 49.0151176,26.373074 48.9546473,26.4713165 C48.9064936,26.5690991 48.810776,26.6311316 48.7057015,26.6326531 L48.7057015,26.6326531 Z M42.7784209,26.012128 L48.0774098,26.012128 L42.9680939,18.3424383 C42.9279999,18.2606349 42.9279999,18.1636211 42.9680939,18.0818177 C42.9924368,17.9930728 43.0532698,17.920289 43.1340578,17.8832497 C46.117918,16.6157357 48.0168617,13.5194288 47.8758822,10.1515075 C47.9588642,4.66606595 44.0350044,1.25317812 37.7283779,1.25317812 L27.5334553,1.25317812 L27.5334553,26.0741805 L32.5479346,26.0741805 L32.5479346,19.2608154 C32.5479346,19.0894621 32.6806213,18.9505528 32.8442987,18.9505528 L37.9654691,18.9505528 C38.0620903,18.9504636 38.1535793,18.9960729 38.2144149,19.0746578 L42.7784209,26.012128 Z M37.3608865,14.8426769 L32.8442987,14.8426769 C32.6806213,14.8426769 32.5479346,14.7037677 32.5479346,14.5324144 L32.5479346,5.73336905 C32.5479346,5.56201579 32.6806213,5.42310652 32.8442987,5.42310652 L37.4201593,5.42310652 C40.9765276,5.42310652 42.8732574,7.09852418 42.8732574,10.1515075 C42.8732574,13.2044908 40.8816911,14.8923189 37.4201593,14.8923189 L37.3608865,14.8426769 Z M33.0813899,14.2221519 L37.3608865,14.2221519 C40.4904906,14.2221519 42.2212566,12.7577127 42.2212566,10.1018655 C42.2212566,7.44601822 40.5379089,5.99398958 37.3608865,5.99398958 L33.1406627,5.99398958 L33.0813899,14.2221519 Z" id="Shape" fill="#76C2BD" fill-rule="nonzero"></path>
            <path d="M59.665392,26.6326531 L53.334608,26.6326531 C53.1498091,26.6326531 53,26.4937438 53,26.3223905 L53,0.942915591 C53,0.771562327 53.1498091,0.632653061 53.334608,0.632653061 L59.665392,0.632653061 C59.8501909,0.632653061 60,0.771562327 60,0.942915591 L60,26.3223905 C60,26.4046773 59.9647468,26.4835938 59.9019956,26.5417793 C59.8392444,26.5999648 59.7541355,26.6326531 59.665392,26.6326531 Z M53.6692161,26.012128 L59.3307839,26.012128 L59.3307839,1.25317812 L53.6692161,1.25317812 L53.6692161,26.012128 Z" id="Shape" fill="#76C2BD" fill-rule="nonzero"></path>
            <path d="M89.7004221,26.6269831 L83.7251847,26.6269831 C83.6060127,26.6274139 83.4979922,26.5542699 83.4503238,26.4408662 L81.3948421,21.1923697 L70.4482073,21.1923697 L68.3568743,26.4408662 C68.3092059,26.5542699 68.2011854,26.6274139 68.0820133,26.6269831 L62.2860331,26.6269831 C62.1861081,26.6260352 62.0927205,26.5752459 62.0350731,26.4904973 C61.988309,26.3971725 61.988309,26.2860352 62.0350731,26.1927103 L72.9100051,0.818773725 C72.9576735,0.70536999 73.065694,0.632225965 73.184866,0.632654938 L78.7657377,0.632654938 C78.8849098,0.632225965 78.9929302,0.70536999 79.0405986,0.818773725 L89.9633325,26.2547493 C90.0122225,26.3475221 90.0122225,26.4597635 89.9633325,26.5525363 C89.8914108,26.6180586 89.7944244,26.6455217 89.7004221,26.6269831 L89.7004221,26.6269831 Z M83.9641942,26.0065934 L89.2343535,26.0065934 L78.5745301,1.25304648 L73.3760736,1.25304648 L62.7401512,26.0686324 L67.8908057,26.0686324 L69.9821388,20.8325437 C70.0260822,20.7142731 70.1349164,20.6356651 70.2569997,20.6340191 L81.6099507,20.6340191 C81.732034,20.6356651 81.8408682,20.7142731 81.8848116,20.8325437 L83.9641942,26.0065934 Z M79.8412804,16.7379721 L72.0615214,16.7379721 C71.9615964,16.7370242 71.8682088,16.6862349 71.8105614,16.6014864 C71.7691452,16.5068811 71.7691452,16.3983046 71.8105614,16.3036993 L75.6586143,6.58839745 C75.7123758,6.48250865 75.8181867,6.41623132 75.9334752,6.41623132 C76.0487638,6.41623132 76.1545746,6.48250865 76.2083361,6.58839745 L80.0922404,16.3285149 C80.1336566,16.4231202 80.1336566,16.5316967 80.0922404,16.6263019 C80.0296645,16.701737 79.9370483,16.7429486 79.8412804,16.7379721 Z M72.5275899,16.1175824 L79.3632615,16.1175824 L75.9334752,7.51898192 L72.5275899,16.1175824 Z" id="Shape" fill="#76C2BD" fill-rule="nonzero"></path>
            <path d="M103.772188,26.6326531 L92.3084955,26.6326531 C92.1381181,26.6326531 92,26.4937438 92,26.3223905 L92,0.942915591 C92,0.771562327 92.1381181,0.632653061 92.3084955,0.632653061 L103.772188,0.632653061 C112.286664,0.632653061 118,5.85747406 118,13.6388583 C118,21.4202426 112.286664,26.6326531 103.772188,26.6326531 Z M92.6663503,26.012128 L103.772188,26.012128 C111.916469,26.012128 117.34599,21.0479275 117.34599,13.6016268 C117.34599,6.15532609 111.879449,1.19112561 103.772188,1.19112561 L92.6663503,1.19112561 L92.6663503,26.012128 Z M103.537731,21.8173786 L98.15757,21.8173786 C97.9871926,21.8173786 97.8490745,21.6784693 97.8490745,21.5071161 L97.8490745,5.77060056 C97.8490745,5.59924729 97.9871926,5.46033803 98.15757,5.46033803 L103.488372,5.46033803 C108.720456,5.46033803 112.126246,8.66224733 112.126246,13.6388583 C112.126246,18.6154693 108.720456,21.8173786 103.488372,21.8173786 L103.537731,21.8173786 Z M98.5154248,21.1968535 L103.537731,21.1968535 C108.473659,21.1968535 111.521595,18.2927963 111.521595,13.6388583 C111.521595,8.98492036 108.461319,6.08086309 103.537731,6.08086309 L98.4660655,6.08086309 L98.5154248,21.1968535 Z" id="Shape" fill="#76C2BD" fill-rule="nonzero"></path>
            <path d="M132.981619,26.6326531 C124.85733,26.6326531 119,21.1589689 119,13.6326531 C119,6.10633727 124.85733,0.632653061 132.981619,0.632653061 C141.105908,0.632653061 147,6.09433358 147,13.6326531 C147,21.1709725 141.056893,26.6326531 132.981619,26.6326531 Z M132.981619,1.23283773 C125.212691,1.23283773 119.502407,6.44244069 119.502407,13.6326531 C119.502407,20.8228654 125.151422,26.0324684 132.981619,26.0324684 C140.811816,26.0324684 146.387309,20.8108617 146.387309,13.6326531 C146.387309,6.45444438 140.750547,1.23283773 132.981619,1.23283773 Z M132.981619,21.7831609 C130.773332,21.8388553 128.64089,20.9922922 127.095232,19.4463097 C125.549575,17.9003273 124.729979,15.7942337 124.832823,13.6326531 C124.717026,10.7091355 126.243186,7.95781458 128.810211,6.46232553 C131.377235,4.96683648 134.573749,4.96683648 137.140774,6.46232553 C139.707798,7.95781458 141.233959,10.7091355 141.118162,13.6326531 C141.220819,15.7920972 140.402863,17.896232 138.859922,19.4418211 C137.316982,20.9874102 135.187805,21.8354653 132.981619,21.7831609 L132.981619,21.7831609 Z M132.981619,6.07032619 C130.93456,6.01763327 128.957813,6.80362771 127.527374,8.23904459 C126.096934,9.67446148 125.342419,11.6292318 125.445514,13.6326531 C125.334045,16.3389174 126.744373,18.887676 129.120053,20.273316 C131.495733,21.6589559 134.455252,21.6589559 136.830932,20.273316 C139.206612,18.887676 140.61694,16.3389174 140.50547,13.6326531 C140.608368,11.6313692 139.85549,9.67856466 138.427771,8.24354417 C137.000052,6.80852369 135.026577,6.02103358 132.981619,6.07032619 L132.981619,6.07032619 Z" id="Shape" fill="#76C2BD" fill-rule="nonzero"></path>
            <path d="M173.724481,26.6326531 L167.726635,26.6326531 C167.630403,26.6326531 167.539283,26.5871328 167.478692,26.5085479 L162.909467,19.5710778 L158.186754,19.5710778 L158.186754,26.3223904 C158.186754,26.4937437 158.054602,26.6326531 157.891585,26.6326531 L152.29517,26.6326531 C152.132152,26.6326531 152,26.4937437 152,26.3223904 L152,0.942915589 C152,0.771562327 152.132152,0.632653061 152.29517,0.632653061 L162.779593,0.632653061 C169.426812,0.632653061 173.559186,4.28134039 173.559186,10.1515074 C173.694602,13.6471061 171.784725,16.8749066 168.742018,18.2927962 L173.960616,26.1486434 C174.013128,26.2491196 174.013128,26.3708402 173.960616,26.4713164 C173.912961,26.5636444 173.8241,26.6243578 173.724481,26.6326531 Z M167.821089,26.0121279 L173.098721,26.0121279 L168.009998,18.3424382 C167.975136,18.2594289 167.975136,18.164827 168.009998,18.0818177 C168.038117,17.9953598 168.097501,17.9240222 168.175293,17.8832496 C171.190526,16.6442189 173.122063,13.5264324 172.980653,10.1266864 C172.980653,4.64124493 169.072608,1.22835712 162.7914,1.22835712 L152.625759,1.22835712 L152.625759,26.0493594 L157.631835,26.0493594 L157.631835,19.2608153 C157.631835,19.089462 157.763987,18.9505527 157.927005,18.9505527 L163.062956,18.9505527 C163.158813,18.9521746 163.24928,18.9974568 163.310898,19.0746577 L167.821089,26.0121279 Z M162.413583,14.8426769 L157.867971,14.8426769 C157.704953,14.8426769 157.572802,14.7037676 157.572802,14.5324143 L157.572802,5.73336903 C157.572802,5.56201576 157.704953,5.4231065 157.867971,5.4231065 L162.413583,5.4231065 C165.955617,5.4231065 167.85651,7.09852415 167.85651,10.1515074 C167.85651,13.2044907 165.932004,14.8923189 162.472617,14.8923189 L162.413583,14.8426769 Z M158.163141,14.2221518 L162.413583,14.2221518 C165.54238,14.2221518 167.26617,12.7577127 167.26617,10.1018654 C167.26617,7.44601818 165.589607,5.99398955 162.413583,5.99398955 L158.163141,5.99398955 L158.163141,14.2221518 Z" id="Shape" fill="#76C2BD" fill-rule="nonzero"></path>
            <path d="M195.693761,26.6326531 L176.305994,26.6326531 C176.136998,26.6326531 176,26.4937437 176,26.3223904 L176,0.94291559 C176,0.771562327 176.136998,0.632653061 176.305994,0.632653061 L195.22865,0.632653061 C195.397646,0.632653061 195.534644,0.771562327 195.534644,0.94291559 L195.534644,5.65890603 C195.534644,5.83025929 195.397646,5.96916855 195.22865,5.96916855 L182.376911,5.96916855 L182.376911,10.858906 L193.686442,10.858906 C193.855437,10.858906 193.992435,10.9978153 193.992435,11.1691685 L193.992435,15.736233 C193.992435,15.9075862 193.855437,16.0464955 193.686442,16.0464955 L182.376911,16.0464955 L182.376911,21.2961375 L195.693761,21.2961375 C195.862757,21.2961375 195.999755,21.4350467 195.999755,21.6064 L195.999755,26.3099799 C196.003088,26.3943952 195.972327,26.4765382 195.914576,26.5374362 C195.856826,26.5983342 195.777081,26.6326531 195.693761,26.6326531 L195.693761,26.6326531 Z M176.611988,26.0121279 L195.387767,26.0121279 L195.387767,21.929073 L182.070917,21.929073 C181.901921,21.929073 181.764923,21.7901638 181.764923,21.6188105 L181.764923,15.736233 C181.764923,15.5648797 181.901921,15.4259704 182.070917,15.4259704 L193.380448,15.4259704 L193.380448,11.4794311 L182.070917,11.4794311 C181.901921,11.4794311 181.764923,11.3405218 181.764923,11.1691685 L181.764923,5.65890603 C181.764923,5.48755276 181.901921,5.3486435 182.070917,5.3486435 L194.922657,5.3486435 L194.922657,1.25317812 L176.563029,1.25317812 L176.611988,26.0121279 Z" id="Shape" fill="#76C2BD" fill-rule="nonzero"></path>
            <path d="M209.274252,26.6271407 C205.67056,26.7170248 202.125213,25.7058414 199.111755,23.7286522 C199.004508,23.6423708 198.969902,23.4941444 199.027867,23.3693354 L200.957303,19.093466 C200.99307,19.011842 201.063353,18.9503796 201.149048,18.9257848 C201.229205,18.8904201 201.320557,18.8904201 201.400714,18.9257848 C203.724183,20.538518 206.481411,21.411141 209.310204,21.4290249 C212.174398,21.4290249 213.744312,20.6025964 213.744312,19.1054432 C213.744312,17.60829 211.347497,16.8896565 208.639096,16.2548636 C204.56451,15.3086628 199.495246,14.1229175 199.495246,8.56548495 C199.495246,3.77459484 203.665704,0.636561819 210.125121,0.636561819 C213.161525,0.570751849 216.158008,1.33704834 218.789608,2.8523485 C218.911788,2.93266977 218.961635,3.08710628 218.909449,3.22364248 L217.159774,7.52346635 C217.125388,7.60162581 217.0604,7.66224648 216.980013,7.69114751 C216.901538,7.73374467 216.806822,7.73374467 216.728347,7.69114751 C214.714461,6.50287475 212.427411,5.85511004 210.089169,5.81072314 C207.272911,5.83467759 205.750933,6.67308336 205.750933,8.33791767 C205.750933,10.002752 208.147749,10.5057954 210.832182,11.1286112 C214.918752,12.0628347 220,13.2246256 220,18.722172 C219.976032,22.3632485 217.171758,26.6271407 209.274252,26.6271407 Z M199.686991,23.3932898 C202.556871,25.1881072 205.889653,26.1040984 209.274252,26.0282794 C215.410099,26.0282794 219.376828,23.1537453 219.376828,18.722172 C219.376828,13.7037146 214.762959,12.6497188 210.676389,11.7154952 C207.704338,11.0327934 205.127762,10.4459093 205.127762,8.33791767 C205.127762,7.4036941 205.607125,5.23581633 210.089169,5.23581633 C212.41687,5.27647386 214.698098,5.89378189 216.728347,7.03240012 L218.250325,3.27155138 C215.76193,1.91152868 212.960717,1.22607805 210.125121,1.28333198 C202.718962,1.28333198 200.09445,5.06813517 200.09445,8.61339385 C200.09445,13.6917374 204.708319,14.7696876 208.782905,15.7158884 C211.76694,16.4105675 214.343516,17.0094288 214.343516,19.1533521 C214.343516,20.2432796 213.684392,22.0757951 209.310204,22.0757951 C206.483458,22.0519129 203.722475,21.2207669 201.352778,19.68035 L199.686991,23.3932898 Z" id="Shape" fill="#76C2BD" fill-rule="nonzero"></path>
            <path d="M0.00151577111,36.6153928 C-0.0244146392,35.8071607 0.283324698,35.0249282 0.849759348,34.4592703 C1.416194,33.8936125 2.18931841,33.5964635 2.98077654,33.6402177 C3.77962128,33.5809809 4.56537754,33.8717155 5.14129283,34.4396218 C5.71720812,35.0075282 6.02875019,35.7988324 5.99790927,36.6153928 C6.02288378,37.4245055 5.7179258,38.2079673 5.1556761,38.7791582 C4.5934264,39.3503491 3.82421679,39.6581369 3.03127249,39.6292067 C2.22970878,39.6687517 1.44810145,39.3665819 0.873511114,38.7950152 C0.298920781,38.2234484 -0.0169426692,37.4339224 0.00151577111,36.6153928 Z" id="Path" fill="#76C2BD" fill-rule="nonzero"></path>
            <path d="M9,28.6326531 L17.2520107,28.6326531 C23.0308311,28.6326531 27,32.1032819 27,37.6264333 C27,43.1495846 23.0308311,46.6326531 17.2520107,46.6326531 L9,46.6326531 L9,28.6326531 Z M17.0469169,42.5649267 C18.374329,42.6955261 19.6904586,42.2189244 20.6471738,41.2611886 C21.603889,40.3034527 22.104806,38.9610693 22.0174263,37.5891147 C22.104806,36.2171601 21.603889,34.8747767 20.6471738,33.9170409 C19.6904586,32.959305 18.374329,32.4827033 17.0469169,32.6133027 L13.922252,32.6133027 L13.922252,42.4902896 L17.0469169,42.5649267 Z" id="Shape" fill="#76C2BD" fill-rule="nonzero"></path>
            <polygon id="Path" points="40 41.7765005 41.6133333 41.7765005 41.6133333 42.6326531 47 29.6326531 45.0266667 29.6326531"></polygon>
            <path d="M38.1289753,46.1714342 L39.2773852,42.6935949 L32.639576,42.6935949 L32.639576,39.4027362 L40.0123675,39.4027362 L40.0123675,35.663124 L32.639576,35.663124 L32.639576,32.5717112 L41,32.5717112 L41,28.6326531 L28,28.6326531 L28,46.6326531 L38.4160777,46.6326531 C38.3166282,46.6221472 38.2254073,46.5681388 38.1634276,46.4830686 C38.107134,46.3909706 38.0943544,46.2753741 38.1289753,46.1714342 Z" id="Path" fill="#76C2BD" fill-rule="nonzero"></path>
            <path d="M47.9888909,28.7698099 C47.9271133,28.6827626 47.8287451,28.6317838 47.7244924,28.6327183 L45.2487603,28.6327183 C45.1088544,28.6298739 44.9829058,28.7202508 44.9362893,28.8570065 L40.2372057,42.6963501 L39.0353941,46.1717568 C38.988202,46.2698001 38.988202,46.3851299 39.0353941,46.4831732 C39.1002559,46.5681839 39.1957186,46.6221545 39.2997926,46.6326531 L41.7875428,46.6326531 C41.9238029,46.6216457 42.0412802,46.5291051 42.0879957,46.3959766 L42.328358,45.7108606 L47.9648547,29.0313997 C48.0011625,28.9495254 48.0096352,28.857316 47.9888909,28.7698099 Z M42.4004667,43.7177958 L41.6192891,46.022277 L39.8406079,46.022277 L40.9462746,42.6963501 L45.4771046,29.2680761 L47.2557858,29.2680761 L42.4004667,43.7177958 Z" id="Shape" fill="#76C2BD" fill-rule="nonzero"></path>
        </g>
    </g>
</svg>