<?xml version="1.0" encoding="UTF-8"?>
<svg width="161px" height="108px" viewBox="0 0 161 108" version="1.1" xmlns="http://www.w3.org/2000/svg" xmlns:xlink="http://www.w3.org/1999/xlink">
    <title>Path</title>
    <g id="Criadores" stroke="none" stroke-width="1" fill="none" fill-rule="evenodd">
        <g id="Cadastro" transform="translate(-382.000000, -483.000000)" fill="#5DA1B8" fill-rule="nonzero">
            <g id="cadastroStackGroup" transform="translate(125.000000, 148.000000)">
                <g id="plantas" transform="translate(0.000000, 37.000000)">
                    <path d="M378.186163,325.363949 C379.014399,337.890785 380.819486,350.272764 383.573021,362.315061 C390.973884,363.941038 414.826504,368.946495 415.117686,368.978376 C418.320682,369.647896 417.301547,375.514164 414.413997,375.832983 C413.884652,376.113131 413.293314,376.113131 412.763968,375.832983 C403.397629,373.951951 394.007025,371.91151 384.567891,369.871069 C378.186163,378.351653 366.174925,389.733488 366.708758,402.518126 C366.902879,407.109119 361.46749,407.077237 361.273369,402.518126 C360.715271,389.000204 370.469852,377.777778 377.919246,368.468266 C371.772081,367.129227 365.624915,365.822069 359.47775,364.546793 C359.47775,364.546793 346.350316,378.925527 342.225245,387.788692 C341.428147,389.367075 339.831705,389.85299 338.587571,388.895907 C337.343437,387.938823 336.884607,385.871835 337.542075,384.186039 C341.304757,375.761366 346.463393,368.558464 352.634984,363.112108 C345.08853,361.581778 337.542075,360.115211 329.971356,358.776171 C329.773757,358.962895 329.562401,359.123107 329.340462,359.2544 C322.376371,363.016463 317.571876,375.4504 314.126228,383.70781 C312.427669,387.724929 307.7445,384.090393 309.443058,380.073275 C312.427669,372.995495 316.382885,363.367164 321.575622,357.341486 C315.476987,356.321265 309.38644,355.428573 303.303981,354.663407 C303.303981,354.663407 290.273608,368.946495 284.911015,376.247448 C282.484503,379.435637 278.699143,374.43018 281.125655,371.114463 C285.668381,364.889023 290.532985,359.083327 295.684732,353.738832 C283.964675,352.431675 272.220354,351.602746 260.524563,351.5071 C259.023622,351.5071 257.806869,349.908411 257.806869,347.936328 C257.806869,345.964245 259.023622,344.365556 260.524563,344.365556 C270.473265,344.365556 280.421967,344.918176 290.370669,346.023415 C286.916425,340.926034 283.806815,335.442865 281.077125,329.636122 C277.461621,322.239523 271.637991,310.506987 274.113034,301.197475 C275.253495,296.89342 280.519027,298.710688 279.354301,303.046625 C277.291765,310.793924 283.819085,322.17576 286.87649,328.297083 C290.178078,335.285839 294.268987,341.57463 299.009054,346.947989 C306.094471,347.819428 313.163711,348.882157 320.216775,350.136179 C315.409405,336.085011 313.726892,320.533086 315.363749,305.278357 C315.946112,300.719247 321.18738,302.63216 320.605017,307.127507 C319.523993,316.648468 320.037418,326.364704 322.109455,335.598036 C323.031529,340.093383 324.535967,347.426218 327.350722,351.315809 C335.52807,352.718612 343.705417,354.312706 351.8585,355.970565 C346.110878,346.54968 343.092922,334.755498 343.341441,322.68587 C343.341441,320.713787 344.558194,319.115098 346.059135,319.115098 C347.560076,319.115098 348.776829,320.713787 348.776829,322.68587 C349.523305,335.441767 353.368037,347.545452 359.744666,357.213958 L377.555269,361.007904 C375.160391,349.332082 373.536695,337.40654 372.702244,325.363949 C372.314002,320.804838 377.74939,320.868602 378.186163,325.363949 Z" id="Path"></path>
                </g>
            </g>
        </g>
    </g>
</svg>