<svg xmlns="http://www.w3.org/2000/svg" width="1578" height="631" viewBox="0 0 1578 631">
    <defs>
        <linearGradient id="rv0fkzg0oa" x1="50.001%" x2="50.001%" y1="100.016%" y2=".004%">
            <stop offset="0%" stop-color="#66A8DE"/>
            <stop offset="17%" stop-color="#85B9E5"/>
            <stop offset="57%" stop-color="#C6DFF3"/>
            <stop offset="85%" stop-color="#EFF6FC"/>
            <stop offset="100%" stop-color="#FFF"/>
        </linearGradient>
        <linearGradient id="f00fvhl4bb" x1="49.999%" x2="49.999%" y1="103.833%" y2="-28.847%">
            <stop offset="0%" stop-color="#241469"/>
            <stop offset="100%" stop-color="#7961F7"/>
        </linearGradient>
    </defs>
    <g fill="none">
        <path fill="url(#rv0fkzg0oa)" d="M1578 368.558V630H0V161.895c18.41 10.806 31.392 26.07 45.657 45.316 20.114 27.165 73.24 55.252 101.56 30.128 33.453-29.68 43.174-101.663 67.328-140.53 25.122-40.412 74.292-55.078 112.67-67.054C375.268 14.815 425.386 3.436 475.061.448c101.54-6.15 196.682 51.591 264.894 136.373 42.206 52.438 96.552 65.46 155.696 64.738 39.786-.498 76.101-10.358 115.551 3.038 22.324 7.594 39.114 8.764 60.659-.548l-2.104 4.98c33.832 0 65.371-.498 95.71 19.92 51.191 34.286 69.98 88.815 134.488 89.636 69.916.996 149.616-38.27 218.059-1.792 20.809 11.055 44.352 29.43 59.985 51.765z" opacity=".033"/>
        <path fill="url(#f00fvhl4bb)" d="M1573 309.5V611H6V405.536c22.404-7.79 46.153-12.203 70.241-13.05 83.558-3.223 162.73 31.425 248.193 25.848 79.929-5.188 158.421-29.917 222.578-72.152 55.827-36.75 107.738-88.197 177.56-91.054 99.017-4.068 164.245 89.728 255.897 122.959 66.899 24.272 143.746 14.147 212.499-5.76 68.752-19.906 134.084-49.091 204.665-63.261 57.723-11.607 117.72-11.458 175.367.434z"/>
    </g>
</svg>
