<?xml version="1.0" encoding="UTF-8"?>
<svg width="221px" height="48px" viewBox="0 0 221 48" version="1.1" xmlns="http://www.w3.org/2000/svg" xmlns:xlink="http://www.w3.org/1999/xlink">
    <title>AudioVisualLogo</title>
    <g id="symbols" stroke="none" stroke-width="1" fill="none" fill-rule="evenodd">
        <g id="AudioVisualLogo">
            <path d="M1,13.5054336 C1,5.93664956 6.55607843,0.510152284 14.0784314,0.510152284 C18.227451,0.510152284 21.7,2.08619584 24,4.96459875 L20.3921569,8.40924484 C18.9057383,6.52375266 16.6848799,5.44165928 14.3490196,5.46478023 C12.2844899,5.37007599 10.2768232,6.18676014 8.81557792,7.71568871 C7.35433268,9.24461729 6.57380189,11.345277 6.66431373,13.5054336 C6.57119352,15.6671911 7.35057087,17.7703933 8.81212093,19.3014357 C10.273671,20.8324781 12.282852,21.6504219 14.3490196,21.5555243 C16.6932207,21.5804707 18.9194921,20.4818331 20.3921569,18.5733102 L24,22.0179563 C21.7360784,24.9246713 18.2635294,26.5101523 14.0784314,26.5101523 C6.55607843,26.5101523 1,21.083655 1,13.5054336 Z" id="Path" stroke="#76C2BD" stroke-linecap="round" stroke-linejoin="round"></path>
            <path d="M43.7848369,26.5101523 L39.004659,19.5338454 L33.7399407,19.5338454 L33.7399407,26.5101523 L28,26.5101523 L28,1.51015228 L38.7344346,1.51015228 C45.3689115,1.51015228 49.5154596,4.97950166 49.5154596,10.5925141 C49.6269965,14.0325553 47.5827156,17.1717702 44.4091487,18.4338078 L50,26.4819462 L43.7848369,26.5101523 Z M38.4176197,6.2111677 L33.7585769,6.2111677 L33.7585769,14.9362523 L38.4176197,14.9362523 C41.9305379,14.9362523 43.7009742,13.2908969 43.7009742,10.57371 C43.7009742,7.8565231 41.9212198,6.2111677 38.4176197,6.2111677 Z" id="Shape" stroke="#76C2BD" stroke-linecap="round" stroke-linejoin="round"></path>
            <polygon id="Path" stroke="#76C2BD" stroke-linecap="round" stroke-linejoin="round" points="53 1.51015228 59 1.51015228 59 26.5101523 53 26.5101523"></polygon>
            <path d="M81.6655518,21.112105 L70.109699,21.112105 L67.8996656,26.4726007 L62,26.4726007 L73.1063545,1.51015228 L78.8561873,1.51015228 L90,26.5101523 L83.9036789,26.5101523 L81.6655518,21.112105 Z M79.8769231,16.7185639 L75.9157191,7.14289731 L71.9638796,16.7185639 L79.8769231,16.7185639 Z" id="Shape" stroke="#76C2BD" stroke-linecap="round" stroke-linejoin="round"></path>
            <path d="M92,1.51015228 L103.291527,1.51015228 C111.428891,1.51015228 117,6.43880418 117,14.0054583 C117,21.5721125 111.400896,26.5101523 103.291527,26.5101523 L92,26.5101523 L92,1.51015228 Z M103.011571,21.7598706 C107.948115,21.7598706 111.176932,18.7932916 111.176932,14.0054583 C111.176932,9.21762506 107.948115,6.20410647 103.011571,6.20410647 L97.7577454,6.20410647 L97.7577454,21.722319 L103.011571,21.7598706 Z" id="Shape" stroke="#76C2BD" stroke-linecap="round" stroke-linejoin="round"></path>
            <path d="M119,13.5054336 C119,6.04046081 124.707618,0.510152284 132.5,0.510152284 C140.292382,0.510152284 146,6.00271127 146,13.5054336 C146,21.0081559 140.255319,26.5101523 132.5,26.5101523 C124.744681,26.5101523 119,20.9798438 119,13.5054336 Z M140.218257,13.5054336 C140.218257,10.6968461 138.747165,8.10160422 136.359128,6.69731044 C133.971091,5.29301667 131.028909,5.29301667 128.640872,6.69731044 C126.252835,8.10160422 124.781743,10.6968461 124.781743,13.5054336 C124.781743,16.3140211 126.252835,18.909263 128.640872,20.3135567 C131.028909,21.7178505 133.971091,21.7178505 136.359128,20.3135567 C138.747165,18.909263 140.218257,16.3140211 140.218257,13.5054336 Z" id="Shape" stroke="#76C2BD" stroke-linecap="round" stroke-linejoin="round"></path>
            <path d="M167.800847,26.5101523 L163.037288,19.5338454 L157.751695,19.5338454 L157.751695,26.5101523 L152,26.5101523 L152,1.51015228 L162.748305,1.51015228 C169.385593,1.51015228 173.533898,4.97950166 173.533898,10.5925141 C173.642573,14.0372947 171.589034,17.1779281 168.40678,18.4338078 L174,26.4819462 L167.800847,26.5101523 Z M162.412712,6.2111677 L157.751695,6.2111677 L157.751695,14.9362523 L162.412712,14.9362523 C165.927119,14.9362523 167.698305,13.2908969 167.698305,10.57371 C167.698305,7.8565231 165.927119,6.2111677 162.412712,6.2111677 Z" id="Shape" stroke="#76C2BD" stroke-linecap="round" stroke-linejoin="round"></path>
            <polygon id="Path" stroke="#76C2BD" stroke-linecap="round" stroke-linejoin="round" points="196 21.856147 196 26.5101523 176 26.5101523 176 1.51015228 195.524733 1.51015228 195.524733 6.1171474 181.945684 6.1171474 181.945684 11.5609233 193.934045 11.5609233 193.934045 16.064496 181.945684 16.064496 181.945684 21.856147"></polygon>
            <path d="M199,23.6373631 L200.982385,19.243215 C203.434238,20.9319907 206.339117,21.8472917 209.319783,21.8702541 C212.791328,21.8702541 214.195122,20.7173808 214.195122,19.1770666 C214.195122,14.4521762 199.50271,17.7029008 199.50271,8.34761785 C199.50271,4.07631695 202.974255,0.513749614 210.154472,0.513749614 C213.224939,0.450535269 216.254729,1.22149669 218.918699,2.74389787 L217.116531,7.16639526 C214.994433,5.91478909 212.582236,5.23420347 210.116531,5.19139108 C206.654472,5.19139108 205.317073,6.48601104 205.317073,8.0263253 C205.317073,12.6661676 220,9.46269198 220,18.7045775 C220,22.90973 216.5,26.5101523 209.281843,26.5101523 C205.279133,26.5195462 201.238482,25.3288738 199,23.6373631 Z" id="Path" stroke="#76C2BD" stroke-linecap="round" stroke-linejoin="round"></path>
            <path d="M65.6992032,47.5101523 L61.490669,47.5101523 C61.3645749,47.5101523 61.2515807,47.4362949 61.2068377,47.3244619 L59.7583189,43.9913207 L52.1438082,43.9913207 L50.6561403,47.3244619 C50.6057128,47.4360919 50.4905398,47.5089296 50.3625216,47.5101523 L46.3007968,47.5101523 C46.1938329,47.5081133 46.0948741,47.4559604 46.03654,47.3708845 C45.98782,47.2837909 45.98782,47.1794426 46.03654,47.092349 L53.7391363,30.6866093 C53.7924734,30.5786072 53.9070306,30.5097814 54.0327549,30.5101775 L57.9476705,30.5101775 C58.0713397,30.5086305 58.1836367,30.578425 58.2315019,30.6866093 L65.96346,47.092349 C66.01218,47.1794426 66.01218,47.2837909 65.96346,47.3708845 C65.9063852,47.4572306 65.8066387,47.5097987 65.6992032,47.5101523 Z M61.7059894,46.9066587 L65.2098388,46.9066587 L57.761712,31.1229816 L54.2089261,31.1229816 L46.7412248,46.9066587 L50.1569886,46.9066587 L51.6348692,43.582802 C51.6852967,43.471172 51.8004697,43.3983343 51.9284879,43.3971117 L59.9540647,43.3971117 C60.0820829,43.3983343 60.1972559,43.471172 60.2476833,43.582802 L61.7059894,46.9066587 Z M58.7012917,41.1038362 L53.22041,41.1038362 C53.1148613,41.1055242 53.0155177,41.0566589 52.9561532,40.973853 C52.9074332,40.8867594 52.9074332,40.7824111 52.9561532,40.6953175 L55.696594,34.4097002 C55.7544271,34.3068337 55.8673176,34.2425789 55.9902127,34.2425789 C56.1131078,34.2425789 56.2259984,34.3068337 56.2838314,34.4097002 L59.0242722,40.6953175 C59.0729922,40.7824111 59.0729922,40.8867594 59.0242722,40.973853 C58.957381,41.0792224 58.8289619,41.1345961 58.7012917,41.1131207 L58.7012917,41.1038362 Z M53.6901998,40.5096272 L58.2315019,40.5096272 L55.9608508,35.3010138 L53.6901998,40.5096272 Z" id="Shape" fill="#FFFFFF" fill-rule="nonzero"></path>
            <path d="M74.0142586,47.5101523 C68.9282868,47.5101523 66,44.7223709 66,39.8665296 L66,30.847237 C66,30.6862279 66.1380041,30.5557043 66.3082407,30.5557043 L70.2479423,30.5557043 C70.418179,30.5557043 70.5561831,30.6862279 70.5561831,30.847237 L70.5561831,39.6752112 C70.5561831,42.4083302 71.6928207,43.7111169 74.0431561,43.7111169 C76.3934916,43.7111169 77.5301292,42.426551 77.5301292,39.6752112 L77.5301292,30.801685 C77.5301292,30.6406759 77.6681333,30.5101523 77.8383699,30.5101523 L81.6913789,30.5101523 C81.8616155,30.5101523 81.9996196,30.6406759 81.9996196,30.801685 L81.9996196,39.8209776 C82.0381497,44.676819 79.148393,47.5101523 74.0142586,47.5101523 Z M66.626114,31.1114385 L66.626114,39.8391984 C66.626114,44.3215135 69.3232202,46.8997557 74.0238911,46.8997557 C78.724562,46.8997557 81.4216682,44.3215135 81.4216682,39.8391984 L81.4216682,31.1114385 L78.1851407,31.1114385 L78.1851407,39.6752112 C78.1851407,42.7363045 76.7980575,44.2941823 74.0816862,44.2941823 C71.3653149,44.2941823 69.9782317,42.7363045 69.9782317,39.6752112 L69.9782317,31.1114385 L66.626114,31.1114385 Z" id="Shape" fill="#FFFFFF" fill-rule="nonzero"></path>
            <path d="M92.6911365,47.5101523 L85.2958129,47.5101523 C85.13244,47.5101523 85,47.3771337 85,47.2130469 L85,30.8072577 C85,30.6431709 85.13244,30.5101523 85.2958129,30.5101523 L92.6911365,30.5101523 C98.2376291,30.5101523 102,33.9268645 102,39.00551 C102,44.0841556 98.2561175,47.5101523 92.6911365,47.5101523 Z M85.5454051,46.9066569 L92.663404,46.9066569 C97.8771071,46.9066569 101.380642,43.7313429 101.380642,38.9962255 C101.380642,34.261108 97.9048396,31.1229322 92.6911365,31.1229322 L85.5454051,31.1229322 L85.5454051,46.9066569 Z M92.4785209,44.381261 L89.0581838,44.381261 C88.8948108,44.381261 88.7623709,44.2482423 88.7623709,44.0841556 L88.7623709,33.9082954 C88.7623709,33.7442086 88.8948108,33.61119 89.0581838,33.61119 L92.5062534,33.61119 C95.9450788,33.61119 98.1729201,35.7187814 98.1729201,38.9869409 C98.1729201,42.2551004 95.9450788,44.3905455 92.5062534,44.3905455 L92.4785209,44.381261 Z M89.3262643,43.7870502 L92.4785209,43.7870502 C95.6122893,43.7870502 97.5535617,41.9301414 97.5535617,38.9962255 C97.5535617,36.0623096 95.6122893,34.2146853 92.4785209,34.2146853 L89.3539967,34.2146853 L89.3262643,43.7870502 Z" id="Shape" fill="#FFFFFF" fill-rule="nonzero"></path>
            <path d="M107.729387,47.5101523 L104.270613,47.5101523 C104.121158,47.5101523 104,47.3771337 104,47.2130469 L104,30.8072577 C104,30.6431709 104.121158,30.5101523 104.270613,30.5101523 L107.729387,30.5101523 C107.878842,30.5101523 108,30.6431709 108,30.8072577 L108,47.2130469 C108,47.3771337 107.878842,47.5101523 107.729387,47.5101523 Z M104.541226,46.9066569 L107.458774,46.9066569 L107.458774,31.1229322 L104.541226,31.1229322 L104.541226,46.9066569 Z" id="Shape" fill="#FFFFFF" fill-rule="nonzero"></path>
            <path d="M121,47.5101523 C115.798,47.5101523 112,43.9141713 112,39.0056573 C112,34.0971433 115.78,30.5101523 121,30.5101523 C126.22,30.5101523 130,34.1061332 130,39.0056573 C130,43.9051814 126.211,47.5101523 121,47.5101523 Z M121,31.0855092 C116.131,31.0855092 112.594,34.4207816 112.594,39.0056573 C112.594,43.590533 116.131,46.9347953 121,46.9347953 C125.869,46.9347953 129.415,43.599523 129.415,39.0056573 C129.415,34.4117916 125.878,31.0405595 121,31.0405595 L121,31.0855092 Z M121,44.3816488 C119.569664,44.4158629 118.189591,43.8539479 117.190787,42.8306772 C116.191983,41.8074066 115.664553,40.4150927 115.735,38.9876774 C115.735,36.0831444 118.092221,33.7285552 121,33.7285552 C123.907779,33.7285552 126.265,36.0831444 126.265,38.9876774 C126.322595,40.407478 125.789461,41.7877967 124.792124,42.8010499 C123.794787,43.814303 122.422159,44.3701589 121,44.3366991 L121,44.3816488 Z M121,34.2140127 C119.722294,34.1600547 118.481952,34.6516738 117.588902,35.566028 C116.695852,36.4803822 116.234455,37.7310984 116.32,39.0056573 C116.244477,40.726327 117.120453,42.3495804 118.600945,43.2324332 C120.081437,44.1152859 121.927563,44.1152859 123.408055,43.2324332 C124.888547,42.3495804 125.764523,40.726327 125.689,39.0056573 C125.788264,37.7219714 125.331686,36.4573917 124.435008,35.5324894 C123.53833,34.6075872 122.287645,34.1111639 121,34.1690629 L121,34.2140127 Z" id="Shape" fill="#FFFFFF" fill-rule="nonzero"></path>
            <path d="M139.8142,47.5101523 L136.194848,47.5101523 C136.081898,47.50703 135.98034,47.4387556 135.932445,47.3337468 L129.03758,30.9280374 C128.987473,30.8389857 128.987473,30.7292696 129.03758,30.6402179 C129.092463,30.5574122 129.184306,30.5085469 129.281886,30.5101926 L133.28127,30.5101926 C133.394894,30.5111122 133.497515,30.5801015 133.543673,30.6866404 L138.113105,41.772332 L142.77302,30.6866404 C142.824013,30.5801732 142.928872,30.512029 143.044472,30.5101926 L146.718114,30.5101926 C146.815694,30.5085469 146.907537,30.5574122 146.96242,30.6402179 C147.012527,30.7292696 147.012527,30.8389857 146.96242,30.9280374 L140.049458,47.3337468 C140.003623,47.4282722 139.915891,47.494057 139.8142,47.5101523 Z M136.348671,46.9066599 L139.624184,46.9066599 L146.256647,31.1230118 L143.216391,31.1230118 L138.357411,42.6636439 C138.309941,42.7732926 138.202856,42.8428826 138.08596,42.8400494 L138.08596,42.8400494 C137.973009,42.836927 137.871451,42.7686527 137.823557,42.6636439 L133.073157,31.1230118 L129.70716,31.1230118 L136.348671,46.9066599 Z" id="Shape" fill="#FFFFFF" fill-rule="nonzero"></path>
            <path d="M152.72093,47.5100228 L149.270613,47.5100228 C149.121158,47.5100228 149,47.376861 149,47.2127769 L149,30.8072529 C149,30.6431688 149.121158,30.5101523 149.270613,30.5101523 L152.729387,30.5101523 C152.878842,30.5101523 153,30.6431688 153,30.8072529 L153,47.2127769 C153,47.2932082 152.970367,47.3702187 152.917773,47.4262106 C152.865179,47.4822025 152.794155,47.512391 152.72093,47.5100228 Z M149.53277,46.9063919 L152.450317,46.9063919 L152.450317,31.1229223 L149.53277,31.1229223 L149.53277,46.9063919 Z" id="Shape" fill="#FFFFFF" fill-rule="nonzero"></path>
            <path d="M161.333268,47.5068004 C158.777286,47.5632301 156.263093,46.9059977 154.12498,45.6224897 C154.008315,45.545092 153.967498,45.4030834 154.027439,45.2831352 L155.412523,42.4879254 C155.449462,42.4078798 155.525309,42.3483584 155.617359,42.3271786 C155.701129,42.2927941 155.79695,42.2927941 155.88072,42.3271786 C157.487034,43.3539573 159.393829,43.9140968 161.352777,43.9346474 C162.484254,43.9346474 164.366797,43.7560398 164.366797,42.5325774 C164.366797,41.5323745 162.747615,41.1840896 160.865071,40.7465009 C157.938838,40.1303045 154.349325,39.3622916 154.349325,35.7097651 C154.349325,33.3074922 156.300147,30.5122825 161.928269,30.5122825 C164.08104,30.4732905 166.204972,30.9702355 168.073359,31.9500741 C168.198647,32.0253837 168.247783,32.171592 168.190409,32.298359 L166.961391,35.075708 C166.92856,35.1517096 166.860727,35.2105456 166.776063,35.2364548 C166.695089,35.2682291 166.603429,35.2682291 166.522456,35.2364548 C165.113548,34.5015687 163.520517,34.1138659 161.899007,34.1112266 C159.948185,34.1112266 158.972773,34.6470496 158.972773,35.6293917 C158.972773,36.6117337 160.60171,36.9421579 162.474499,37.3350947 C165.400733,37.9423607 169,38.7014433 169,42.3271786 C168.960984,44.6758692 166.961391,47.5068004 161.333268,47.5068004 Z M154.700473,45.3009959 C156.70041,46.4041354 158.998737,46.9704221 161.333268,46.9352559 C165.586061,46.9352559 168.33672,45.1491794 168.33672,42.3361089 C168.33672,39.1658231 165.127618,38.4960445 162.298925,37.8709177 C160.162775,37.4243986 158.309494,37.0314617 158.309494,35.6026005 C158.309494,34.9774737 158.660642,33.512891 161.899007,33.512891 C163.516302,33.5357165 165.103187,33.9188582 166.522456,34.6291888 L167.497867,32.3876628 C165.780688,31.5458115 163.856279,31.1214812 161.908761,31.15527 C157.616952,31.15527 154.954079,32.9413465 154.954079,35.7812082 C154.954079,38.9782851 158.153428,39.6659246 160.98212,40.2463994 C163.128025,40.7018489 164.971552,41.0947858 164.971552,42.5504381 C164.971552,43.2827295 164.503355,44.5240527 161.333268,44.5240527 C159.375458,44.5077934 157.460949,43.9946194 155.802687,43.0416092 L154.700473,45.3009959 Z" id="Shape" fill="#FFFFFF" fill-rule="nonzero"></path>
            <path d="M178.014343,47.5101523 C172.918685,47.5101523 170,44.7223709 170,39.8665296 L170,30.847237 C170,30.6862279 170.138006,30.5557043 170.308244,30.5557043 L174.247987,30.5557043 C174.418225,30.5557043 174.556231,30.6862279 174.556231,30.847237 L174.556231,39.6752112 C174.556231,42.4083302 175.69288,43.7111169 178.043241,43.7111169 C180.393601,43.7111169 181.53025,42.426551 181.53025,39.6752112 L181.53025,30.801685 C181.53025,30.6406759 181.668256,30.5101523 181.838494,30.5101523 L185.691543,30.5101523 C185.861782,30.5101523 185.999787,30.6406759 185.999787,30.801685 L185.999787,39.8209776 C186.028685,44.676819 183.11,47.5101523 178.014343,47.5101523 Z M170.616488,31.1114385 L170.616488,39.8391984 C170.616488,44.3215135 173.313622,46.8997557 178.014343,46.8997557 C182.715063,46.8997557 185.412197,44.3215135 185.412197,39.8391984 L185.412197,31.1114385 L182.146738,31.1114385 L182.146738,39.6752112 C182.146738,42.7363045 180.75964,44.2941823 178.043241,44.2941823 C175.326841,44.2941823 173.959008,42.7363045 173.959008,39.6752112 L173.959008,31.1114385 L170.616488,31.1114385 Z" id="Shape" fill="#FFFFFF" fill-rule="nonzero"></path>
            <path d="M206.714463,47.5101523 L202.516635,47.5101523 C202.388645,47.5089296 202.273497,47.4360925 202.22308,47.3244634 L200.774879,43.9913479 L193.162034,43.9913479 L191.684477,47.3244634 C191.637538,47.4346366 191.525924,47.5076731 191.400708,47.5101523 L187.300731,47.5101523 C187.19379,47.5081134 187.094853,47.4559609 187.036532,47.3708856 C186.987823,47.2837927 186.987823,47.1794452 187.036532,47.0923523 L194.747228,30.6867392 C194.792808,30.5767802 194.906548,30.5060741 195.030997,30.5103347 L198.945056,30.5103347 C199.069505,30.5060741 199.183245,30.5767802 199.228825,30.6867392 L206.959092,47.0923523 C207.013636,47.1779846 207.013636,47.2852533 206.959092,47.3708856 C206.904754,47.4508215 206.814369,47.5022774 206.714463,47.5101523 L206.714463,47.5101523 Z M202.722123,46.9066634 L206.234991,46.9066634 L198.778709,31.123108 L195.236485,31.123108 L187.770418,46.9066634 L191.175649,46.9066634 L192.662992,43.5828323 C192.705289,43.4692101 192.819796,43.3942806 192.946761,43.3971434 L200.970582,43.3971434 C201.098572,43.3983661 201.21372,43.4712032 201.264136,43.5828323 L202.722123,46.9066634 Z M199.727868,41.1038857 L194.2384,41.1038857 C194.135897,41.1041272 194.040198,41.0552339 193.983987,40.9739035 C193.935277,40.8868106 193.935277,40.782463 193.983987,40.6953701 L196.723828,34.4098013 C196.778588,34.3061665 196.890307,34.2407335 197.01249,34.2407335 C197.134672,34.2407335 197.246391,34.3061665 197.301151,34.4098013 L200.040993,40.6953701 C200.089702,40.782463 200.089702,40.8868106 200.040993,40.9739035 C199.977457,41.077759 199.852642,41.1332723 199.727868,41.1131701 L199.727868,41.1038857 Z M194.708087,40.5096813 L199.258181,40.5096813 L196.978242,35.301108 L194.708087,40.5096813 Z" id="Shape" fill="#FFFFFF" fill-rule="nonzero"></path>
            <path d="M218.760813,47.5101523 L207.282542,47.5101523 C207.126498,47.5101523 207,47.3771337 207,47.2130469 L207,30.8072577 C207,30.6431709 207.126498,30.5101523 207.282542,30.5101523 L210.893783,30.5101523 C211.049826,30.5101523 211.176325,30.6431709 211.176325,30.8072577 L211.176325,43.8056192 L218.716666,43.8056192 C218.872709,43.8056192 218.999208,43.9386379 218.999208,44.1027246 L218.999208,47.1944778 C219.010161,47.3489659 218.90639,47.4863753 218.760813,47.5101523 L218.760813,47.5101523 Z M207.609231,46.9066569 L218.478271,46.9066569 L218.478271,44.4183991 L210.93793,44.4183991 C210.792314,44.403982 210.681232,44.2750912 210.681876,44.1212937 L210.681876,31.1229322 L207.63572,31.1229322 L207.609231,46.9066569 Z" id="Shape" fill="#FFFFFF" fill-rule="nonzero"></path>
            <path d="M0.000899317461,38.5117033 C-0.0190252076,37.698306 0.292874334,36.9131152 0.86179293,36.3444487 C1.43071153,35.7757821 2.20532762,35.4749386 2.99985972,35.5140715 C3.79519282,35.4718879 4.57155065,35.7717317 5.14114795,36.3410766 C5.71074525,36.9104216 6.02170782,37.6974165 5.99882012,38.5117033 C5.999035,39.3189931 5.6809094,40.0922471 5.11643972,40.6564667 C4.55197004,41.2206863 3.78887707,41.5281719 2.99985972,41.5093351 C2.21084237,41.5281719 1.4477494,41.2206863 0.883279718,40.6564667 C0.318810041,40.0922471 0.000684440976,39.3189931 0.000899317461,38.5117033 Z" id="Path" fill="#76C2BD" fill-rule="nonzero"></path>
            <path d="M9,30.5101523 L17.25,30.5101523 C23.037037,30.5101523 27,33.78563 27,39.0101523 C27,44.2346746 23.037037,47.5101523 17.25,47.5101523 L9,47.5101523 L9,30.5101523 Z M17.0833333,43.6662032 C20.0462963,43.6662032 22.037037,41.9427425 22.037037,39.0101523 C22.037037,36.0775621 20.0185185,34.345078 17.0833333,34.345078 L13.9351852,34.345078 L13.9351852,43.6662032 L17.0833333,43.6662032 Z" id="Shape" fill="#76C2BD" fill-rule="nonzero"></path>
            <polygon id="Path" points="41 42.6538649 42.377193 42.6538649 42.377193 43.5101523 47 30.5101523 45.3157895 30.5101523"></polygon>
            <path d="M39.1267797,47.0851523 L40.2461017,43.7936629 L33.6447458,43.7936629 L33.6447458,40.6830246 L41.0040678,40.6830246 L41.0040678,37.0660033 L33.6447458,37.0660033 L33.6447458,34.2266416 L42,34.2266416 L42,30.5101523 L29,30.5101523 L29,47.5101523 L39.4176271,47.5101523 C39.3168749,47.5067093 39.2229935,47.4568883 39.1620339,47.374514 C39.106477,47.2891561 39.0934113,47.1819147 39.1267797,47.0851523 L39.1267797,47.0851523 Z" id="Path" fill="#76C2BD" fill-rule="nonzero"></path>
            <path d="M47.9618745,30.6455975 C47.9034391,30.5575634 47.8019036,30.5061808 47.6946999,30.5103926 L45.1979993,30.5103926 C45.0621364,30.5099317 44.940554,30.5928383 44.893973,30.7177068 L40.2045979,43.8055387 L39.0345574,47.0865103 C38.9884809,47.1773719 38.9884809,47.2840859 39.0345574,47.3749474 C39.0982791,47.4570585 39.1964145,47.5067203 39.301732,47.5101523 L41.7800068,47.5101523 C41.9182739,47.5092759 42.0405797,47.4222501 42.0840331,47.2938245 L42.314356,46.6448411 L47.9618745,30.9340346 C48.0127085,30.8443206 48.0127085,30.7353115 47.9618745,30.6455975 Z M42.3512077,44.6978909 L41.5773226,46.8701825 L39.8084424,46.8701825 L40.9047796,43.8055387 L45.4375351,31.186417 L47.2064153,31.186417 L42.3512077,44.6978909 Z" id="Shape" fill="#76C2BD" fill-rule="nonzero"></path>
        </g>
    </g>
</svg>