<svg xmlns="http://www.w3.org/2000/svg" width="285" height="323" viewBox="0 0 285 323">
    <g fill="none" fill-rule="evenodd" transform="translate(0 .49)">
        <path fill="#FF5458" fill-rule="nonzero" d="M209.893 302.108l6.208 12.194-42.124 7.425c-4.266-9.103 6.257-19.476 17.843-13.115l5.398-6.504 4.043-2.49 8.632 2.49zM276.255 294.717l8.72 15.954-42.442 9.163c-3.506-11.222 8.364-18.997 20.368-12.557l-1.213-9.148 5.663-5.037 8.904 1.625z"/>
        <path fill="#2AA7B2" fill-rule="nonzero" d="M195.158 145.418c-.687 48.912-.089 100.927 2.06 156.69 3.955.89 7.86-1.132 12.66 0 6.836-48.399 12.464-93.351 14.47-127.964v-10.249l-6.905-21.407-22.285 2.93z"/>
        <path fill="#38D2E0" fill-rule="nonzero" d="M253.087 142.224c-1.15 56.22 8.601 108.178 23.168 152.493-5.493 3.337-10.358 4.547-14.578 3.394-12.66-29.16-27.515-59.153-32.372-74.505-7.243-24.208-11.87-56.132-30.207-78.056l5.121-5.739h45.6l3.268 2.413z"/>
        <path fill="#F07553" fill-rule="nonzero" d="M172.128 129.234c-8.314 5.456-15.94 12.85-15.94 12.85-.864 3.282 2.685 5.944 7.972 8.36l12.499-9.358 2.47-6.924-7.001-4.928z"/>
        <path fill="#FD9176" fill-rule="nonzero" d="M175.051 137.518c-9.63 2.429-17.647 5.69-15.346 14.25l1.62 3.447c4.07 5.305 10.787-3.71 18.341-7.421l1.35-5.306-5.965-4.97z"/>
        <path fill="#AE4143" fill-rule="nonzero" d="M198.376 96.59c-3.287 12.87-13.757 24.11-26.248 32.644l2.923 8.296 9.886.995 15.787-14.329 2.425-23.866-4.773-3.74z"/>
        <path fill="#F07553" fill-rule="nonzero" d="M213.937 49.775c.383-3.149 1.17-6.987.913-11.233l12.813-20.683 6.238 2.88.522 22.147 3.257 5.41-16.726 6.151-7.017-4.672z"/>
        <path fill="#FF5458" fill-rule="nonzero" d="M213.937 48.644c-16.075 18.514-16.953 59.865-18.78 96.774 15.262 7.542 42.523 5.027 57.93-3.194 1.316-29.175-4.504-49.33-3.967-76.412 0-8.36-4.569-20.72-14.697-22.911-5.939 5.14-13.182 7.044-20.486 5.743z"/>
        <path fill="#FF5458" fill-rule="nonzero" d="M238.785 46.687c-16.554-1.328-16.427 24.205-18.614 47.47-4.857 12.539-27.818 27.064-47.253 43.365l4.63 10.276c23.71-14.707 53.549-26.913 61.237-34.47 7.965-28.107 22.658-63.99 0-66.641z"/>
        <path fill="#FD9176" fill-rule="nonzero" d="M226.75 27.712c0 9.597-10.12 17.625-13.81 17.625-4.152 0-5.702-3.888-7.393-8.918-1.06-3.138-4.44-.313-4.44-2.425 0-1.957 1.789-5.324 1.574-7.35-1.002-9.426.034-18.001 11.597-18.001 10.466 0 12.472 9.457 12.472 19.069z"/>
        <path fill="#161432" fill-rule="nonzero" d="M199.976 8.643c.572 4.48 6.012 4.464 12.311 3.661l1.005 8.296 4.01-.992v5.913c3.924-1.916 7.453 5.913 14.029 7.647h3.07c-.02-8.812 2.228-23.27-2.782-28.194-10.972-9.838-29.057-1.957-31.643 3.669z"/>
        <ellipse cx="221.364" cy="23.439" fill="#FD9176" fill-rule="nonzero" rx="2.854" ry="4.604"/>
        <path fill="#161432" fill-rule="nonzero" d="M196.976 118.698c-.095.008-.184-.048-.216-.136-.033-.089 0-.187.078-.24l2.624-2.15c8.337-6.807 16.957-13.85 20.498-22.067.54-15.544 2.655-28.907 6.284-39.718.038-.11.16-.17.272-.132.054.017.098.055.124.104.025.05.029.107.01.16-3.617 10.78-5.727 24.133-6.264 39.639-.003.026-.01.05-.02.075-3.571 8.326-12.245 15.411-20.632 22.248-.874.716-1.753 1.43-2.62 2.146-.035.04-.084.065-.138.071zM203.924 22.81c-.06 0-.118-.024-.158-.068-.083-.083-.083-.216 0-.298 1.857-1.652 3.745-2.21 5.617-1.652.055.015.1.051.128.1.027.05.032.108.014.16-.035.11-.153.172-.265.14-1.718-.509-3.453 0-5.206 1.561-.035.033-.081.053-.13.057z"/>
        <ellipse cx="206.512" cy="23.925" fill="#161432" fill-rule="nonzero" rx="1.505" ry="1" transform="rotate(-19.83 206.512 23.925)"/>
        <path fill="#161432" fill-rule="nonzero" d="M207.45 40.514c-.103-.009-.186-.088-.196-.189-.011-.114.072-.216.188-.23 1.96-.215 3.318-.754 5.808-2.372.098-.047.216-.016.276.074.06.089.041.208-.042.277-2.555 1.644-3.955 2.214-5.996 2.436l-.039.004z"/>
        <path stroke="#000" stroke-linecap="round" stroke-linejoin="round" d="M224.364 152.074c3.358 6.42 9.045 10.442 17.06 12.066M232.892 226.82c2.502-2.19 5.003-3.55 7.504-4.08M233.656 228.335c2.744-1.141 5.602-1.997 8.528-2.553M196.7 233.475c2.378-.786 4.953-.786 7.331 0M196.7 234.953c2.302-.332 4.446-.162 6.284 1.022M199.842 135.256c11.893-4.925 23.064-10.607 33.05-17.568"/>
        <path fill="#000" fill-rule="nonzero" d="M3.113 198.895L131.554 198.924 131.554 199.347 3.113 199.318z" transform="rotate(-1.51 67.333 199.12)"/>
        <path fill="#000" fill-rule="nonzero" d="M3.138 212H129.095V213H3.138z"/>
        <path fill="#000" fill-rule="nonzero" d="M64.189 161.682L64.609 161.682 64.628 284.859 64.207 284.858z" transform="rotate(-88.854 64.408 223.27)"/>
        <path fill="#000" fill-rule="nonzero" d="M64.366 173.435L64.79 173.435 64.838 296.472 64.414 296.472z" transform="rotate(-87.53 64.602 234.953)"/>
        <path fill="#000" fill-rule="nonzero" d="M2.215 186.883L134.936 186.957 134.936 187.381 2.215 187.307z" transform="rotate(-3.47 68.575 187.132)"/>
        <path fill="#000" fill-rule="nonzero" d="M69.392 209.64L151.935 209.784 151.935 210.212 69.392 210.068z" transform="rotate(-79.52 110.664 209.926)"/>
        <path fill="#000" fill-rule="nonzero" d="M53.661 211.422L132.664 211.563 132.665 211.992 53.662 211.85z" transform="rotate(-79.19 93.163 211.707)"/>
        <path fill="#000" fill-rule="nonzero" d="M41.338 211.481L114.814 211.623 114.814 212.051 41.339 211.909z" transform="rotate(-78.28 78.076 211.766)"/>
        <path fill="#000" fill-rule="nonzero" d="M28.81 212.143L95.884 212.26 95.884 212.688 28.81 212.571z" transform="rotate(-79.43 62.347 212.415)"/>
        <path fill="#000" fill-rule="nonzero" d="M15.932 213.114L77.428 213.223 77.428 213.651 15.933 213.542z" transform="rotate(-79.19 46.68 213.383)"/>
        <path fill="#000" fill-rule="nonzero" d="M1.52 213.072L62.945 213.178 62.946 213.606 1.521 213.5z" transform="rotate(-79.54 32.233 213.34)"/>
        <path fill="#000" fill-rule="nonzero" d="M-10.359 212.854L46.649 212.942 46.649 213.369 -10.359 213.282z" transform="rotate(-80.68 18.145 213.112)"/>
        <ellipse cx="37.884" cy="312.549" fill="#061432" fill-rule="nonzero" rx="9.054" ry="8.899"/>
        <ellipse cx="174.944" cy="312.485" fill="#061432" fill-rule="nonzero" rx="9.054" ry="8.899"/>
        <path fill="#4D5BB6" fill-rule="nonzero" d="M138.11 298.74H19.447c-1.865 0-3.376-1.485-3.376-3.318s1.511-3.318 3.376-3.318H138.11c7.673 0 13.574-.856 17.525-2.542 2.605-1.112 5.597-2.937 5.597-7.202 0-7.893-10.508-12.237-20.666-16.437-10.573-4.37-21.503-8.892-20.207-18.538 0-.064.02-.128.035-.192l16.964-86.812.035-.143c1.88-7.742 11.172-10.182 20.156-12.508 1.098-.287 2.195-.573 3.273-.867 1.172-.351 2.446-.05 3.328.786.882.837 1.233 2.077.918 3.241-.315 1.164-1.247 2.069-2.435 2.364-1.105.306-2.23.596-3.353.89-7.033 1.833-14.302 3.73-15.308 7.576l-16.926 86.616c-.518 4.581 7.573 7.918 16.136 11.467 11.624 4.807 24.802 10.256 24.802 22.557 0 4.182-1.676 9.883-9.66 13.288-4.868 2.082-11.478 3.092-20.214 3.092z"/>
        <path fill="#4D5BB6" fill-rule="nonzero" d="M161.31 289.671c4.626 2.734 8.27 7.063 9.625 15.121h8.018c-.925-9.23-5.429-15.592-12.277-20.09l-5.367 4.97z"/>
        <path fill="#4D5BB6" fill-rule="nonzero" d="M170.935 304.789L174.034 316.456 176.156 316.456 178.953 304.789 174.944 303.586zM33.396 298.74L36.335 313.567 38.943 313.567 42.369 298.74 41.23 296.568 35.03 296.568zM124.683 255.998L3.261 243.622c-1.722-.172-3.03-1.598-3.03-3.3v-52.078c0-1.637 1.213-3.028 2.857-3.281l136.657-20.838 1.035 6.558L6.982 191.087v46.245l118.38 12.067-.679 6.599z"/>
    </g>
</svg>
