<svg xmlns="http://www.w3.org/2000/svg" width="317" height="34" viewBox="0 0 317 34">
    <g fill="none" fill-rule="evenodd">
        <path fill="#76C2BD" fill-rule="nonzero" d="M16.46 3.09c4.6 0 8.45 1.722 11 4.864l-4 3.76c-1.648-2.058-4.11-3.24-6.7-3.214-2.289-.103-4.515.788-6.135 2.457-1.62 1.67-2.485 3.963-2.385 6.321-.103 2.36.76 4.656 2.381 6.328 1.62 1.671 3.848 2.564 6.139 2.46 2.599.028 5.067-1.172 6.7-3.255l4 3.76c-2.51 3.174-6.36 4.905-11 4.905C8.16 31.476 2 25.552 2 17.278 2 9.005 8.16 3.091 16.46 3.091m0-2.06C6.92 1.03 0 7.86 0 17.277s7.06 16.258 16.42 16.258c5.2 0 9.66-2.009 12.55-5.666l-.2-2.813-3.95-3.76-2.88.175c-1.253 1.625-3.166 2.56-5.18 2.534-1.76.103-3.478-.573-4.724-1.858-1.245-1.285-1.899-3.057-1.796-4.87-.103-1.812.55-3.583 1.797-4.866 1.245-1.284 2.964-1.957 4.723-1.851 2.028-.043 3.961.881 5.24 2.503l2.87.165 3.95-3.76.18-2.834C25.862 2.903 21.249.841 16.46 1.03zM43.08 3.565c7.12 0 11.57 3.802 11.57 9.953.15 3.795-2.05 7.273-5.48 8.664l6 8.82h-6.65l-5.13-7.645h-5.67v7.645h-6.16V3.565h11.52m-5.36 14.733h5c3.77 0 5.67-1.803 5.67-4.78 0-2.978-1.9-4.781-5.67-4.781h-5v9.561m5.36-16.794H31.56l-2 2.06v27.438l2 2.06h6.16l2-2.06v-5.584h2.62l4.54 6.758 1.64.886h6.62l1.64-3.183-4.7-6.955c2.958-2.123 4.677-5.642 4.57-9.355 0-7.387-5.33-12.065-13.57-12.065zm-3.36 9.273h3c3.67 0 3.67 1.834 3.67 2.72 0 .886 0 2.72-3.67 2.72h-3V10.777zM65.67 3.565v27.437h-6.16V3.565h6.16m0-2.06h-6.16l-2 2.06v27.437l2 2.06h6.16l2-2.06V3.565l-2-2.06z"/>
        <path fill="#76C2BD" fill-rule="nonzero" d="M86.45 3.565l11.9 27.437h-6.46l-2.36-5.883H77.16l-2.36 5.883h-6.31L80.36 3.565h6.09m-7.31 16.732h8.45L83.36 9.798l-4.22 10.499m7.31-18.793h-6.09L78.53 2.72 66.66 30.167l1.83 2.895h6.31l1.85-1.277 1.85-4.606h9.69L90 31.785l1.85 1.277h6.46l1.83-2.905L88.27 2.72l-1.82-1.216zm-4.32 16.732l1.23-3.09 1.23 3.09h-2.46z"/>
        <path fill="#76C2BD" fill-rule="nonzero" d="M113.22 3.565c8.72 0 14.69 5.409 14.69 13.713 0 8.304-6 13.724-14.69 13.724h-12.1V3.565h12.1m-5.93 22.193h5.63c5.29 0 8.75-3.256 8.75-8.51 0-5.255-3.46-8.5-8.75-8.5h-5.63v17.01m5.93-24.254h-12.1l-2 2.06v27.438l2 2.06h12.1c10 0 16.69-6.346 16.69-15.784 0-9.437-6.71-15.774-16.69-15.774zm-3.93 9.335h3.63c4.23 0 6.75 2.41 6.75 6.44 0 4.028-2.52 6.418-6.75 6.418h-3.63V10.839z"/>
        <path fill="#76C2BD" fill-rule="nonzero" d="M145.44 3.09c8.37 0 14.56 5.997 14.56 14.188s-6.2 14.198-14.57 14.198c-8.37 0-14.57-6.038-14.57-14.198S137 3.091 145.44 3.091m0 22.976c2.262.06 4.446-.854 6.027-2.522 1.58-1.667 2.415-3.939 2.303-6.267 0-4.74-3.73-8.582-8.33-8.582s-8.33 3.842-8.33 8.582c-.112 2.328.723 4.6 2.303 6.267 1.581 1.668 3.765 2.582 6.027 2.522m0-25.037c-9.44 0-16.57 6.986-16.57 16.248 0 9.263 7.13 16.258 16.57 16.258 9.44 0 16.56-6.985 16.56-16.258S154.89 1.03 145.44 1.03zm0 22.976c-1.73.053-3.4-.647-4.604-1.926-1.204-1.28-1.83-3.023-1.726-4.802 0-3.602 2.834-6.522 6.33-6.522s6.33 2.92 6.33 6.522c.105 1.78-.522 3.522-1.726 4.802-1.204 1.28-2.875 1.979-4.604 1.926zM176.17 3.565c7.12 0 11.57 3.802 11.57 9.953.15 3.795-2.05 7.273-5.48 8.664l6 8.82h-6.62l-5.13-7.645h-5.67v7.645h-6.16V3.565h11.52m-5.36 14.733h5c3.77 0 5.67-1.803 5.67-4.78 0-2.978-1.9-4.781-5.67-4.781h-5v9.561m5.33-16.794h-11.52l-2 2.06v27.438l2 2.06h6.16l2-2.06v-5.584h2.62l4.57 6.758 1.64.886h6.62l1.61-3.183-4.7-6.955c2.958-2.123 4.677-5.642 4.57-9.355 0-7.387-5.33-12.065-13.57-12.065zm-3.36 9.273h3c3.67 0 3.67 1.834 3.67 2.72 0 .886 0 2.72-3.67 2.72h-3V10.777zM212.73 3.565v5.09h-14v5.965h12.36v4.956h-12.36v6.346h14.49v5.1H192.6V3.565h20.13m0-2.06H192.6l-2 2.06v27.437l2 2.06h20.62l2-2.06v-5.1l-2-2.06h-12.49v-2.206h10.36l2-2.06V14.62l-2-2.06h-10.36v-1.845h12l2-2.06v-5.09l-2-2.06z"/>
        <path fill="#76C2BD" fill-rule="nonzero" d="M227.79 3.09c3.227-.062 6.41.778 9.21 2.432l-1.87 4.781c-2.246-1.332-4.789-2.042-7.38-2.06-3.65 0-5.06 1.41-5.06 3.09 0 5.06 15.48 1.566 15.48 11.643 0 4.585-3.69 8.51-11.3 8.51-4.22 0-8.48-1.298-10.84-3.173l2.09-4.791c2.585 1.841 5.648 2.839 8.79 2.864 3.65 0 5.14-1.257 5.14-2.936 0-5.152-15.49-1.608-15.49-11.808 0-4.657 3.66-8.54 11.23-8.54m0-2.061c-9.79-.01-13.23 5.707-13.23 10.591 0 7.604 6.77 9.273 11.25 10.303 1.46.35 3.92.938 4.24 1.494 0 .453-1.17.896-3.14.896-2.717-.03-5.364-.886-7.61-2.462l-3 .814-2.09 4.78.6 2.484c2.74 2.184 7.48 3.606 12.06 3.606 6.62 0 13.3-3.266 13.3-10.571 0-7.542-6.77-9.139-11.25-10.19-1.46-.34-3.9-.917-4.24-1.473 0-.721 1.55-1.03 3.07-1.03 2.253.047 4.455.696 6.39 1.885l2.84-1.03 1.91-4.822-.79-2.514c-3.126-1.878-6.692-2.836-10.31-2.772v.01zM245.14 21.338c-1.264.033-2.488-.465-3.388-1.38-.9-.916-1.399-2.17-1.382-3.473-.035-1.307.46-2.57 1.364-3.486.905-.916 2.139-1.404 3.406-1.346 1.27-.07 2.51.413 3.416 1.333.906.92 1.394 2.19 1.344 3.499.034 1.306-.458 2.57-1.36 3.488-.902.92-2.132 1.413-3.4 1.365z"/>
        <path fill="#76C2BD" fill-rule="nonzero" d="M245.14 11.89c1.206-.068 2.384.392 3.244 1.267.859.876 1.319 2.084 1.266 3.328-.22 2.392-2.168 4.22-4.5 4.22s-4.28-1.828-4.5-4.22c-.038-1.24.43-2.439 1.288-3.307.858-.87 2.03-1.329 3.232-1.268m0-.515c-1.33-.052-2.622.466-3.57 1.43-.946.964-1.464 2.289-1.43 3.66 0 2.845 2.239 5.151 5 5.151s5-2.306 5-5.151c.052-1.377-.46-2.712-1.41-3.68-.952-.969-2.255-1.48-3.59-1.41zM253.53 31.857c-.138 0-.25-.115-.25-.258V3.03c0-.142.112-.257.25-.257h13.12c9.56 0 15.74 5.707 15.74 14.537 0 8.83-6.18 14.548-15.74 14.548h-13.12zm12.8-6.965c4.71 0 7.64-2.905 7.64-7.583 0-4.677-2.97-7.573-7.64-7.573h-4.7v15.156h4.7z"/>
        <path fill="#76C2BD" fill-rule="nonzero" d="M266.65 3.03c9.19 0 15.49 5.511 15.49 14.28 0 8.767-6.3 14.29-15.49 14.29h-13.12V3.03h13.12m-5.27 22.12h4.95c4.72 0 7.89-2.895 7.89-7.84 0-4.946-3.17-7.831-7.89-7.831h-4.95v15.67m5.27-22.666h-13.12c-.276 0-.5.23-.5.515V31.6c0 .285.224.516.5.516h13.12c9.56 0 16-5.945 16-14.806 0-8.86-6.43-14.795-16-14.795v-.031zm-4.77 7.51h4.45c4.56 0 7.39 2.803 7.39 7.316s-2.83 7.326-7.39 7.326h-4.45V9.994z"/>
        <path d="M305.15 25.345L307.47 25.345 307.47 26.839 315.22 4.049 312.39 4.049z"/>
        <path fill="#76C2BD" fill-rule="nonzero" d="M285.25 31.836c-.136-.005-.245-.117-.25-.257V3.09c0-.142.112-.258.25-.258H307c.138 0 .25.116.25.258v6.182c0 .142-.112.257-.25.257h-13.75v4.297h12.05c.138 0 .25.115.25.257v6.028c0 .142-.112.257-.25.257h-12.05v4.698H304c.082 0 .159.038.21.103.04.074.04.163 0 .237l-1.81 5.502c-.04.081-.04.177 0 .258.051.073.132.119.22.123.138 0 .25.116.25.258 0 .142-.112.257-.25.257l-17.37.031z"/>
        <path fill="#76C2BD" fill-rule="nonzero" d="M307 3.09v6.183h-14v4.811h12.3v6.028H293v5.233h11l-1.84 5.564c-.057.167-.031.352.07.495.101.134.255.217.42.226h-17.39V3.09H307m0-.535h-21.7c-.276 0-.5.23-.5.515V31.58c0 .284.224.515.5.515h17.39c.276 0 .5-.23.5-.515.003-.136-.048-.267-.14-.364-.092-.097-.218-.151-.35-.151l1.83-5.512c.032-.064.049-.135.05-.207 0-.284-.224-.515-.5-.515H293.5v-4.224h11.8c.274-.005.495-.233.5-.515v-5.986c0-.285-.224-.515-.5-.515h-11.8V9.808H307c.276 0 .5-.23.5-.515V3.091c0-.285-.224-.515-.5-.515v-.02z"/>
        <path fill="#76C2BD" fill-rule="nonzero" d="M302.66 31.836h-.1c-.207-.024-.394-.14-.51-.319-.142-.215-.179-.485-.1-.732l9.37-27.519c.107-.321.4-.536.73-.536H316c.251.002.488.124.64.33.143.214.177.487.09.732l-9.36 27.53c-.108.315-.395.528-.72.535h-3.95l-.04-.02zm3.39-1.607l8.82-25.922h-2.3l-8.82 25.922h2.3z"/>
        <path fill="#76C2BD" fill-rule="nonzero" d="M316 2.967c.17 0 .33.085.43.227.097.145.122.327.07.494l-9 26.428-.37 1.092c-.076.214-.27.36-.49.37h-4c-.165-.008-.319-.091-.42-.226-.101-.143-.127-.328-.07-.494l1.85-5.513 7.49-22.017c.076-.217.276-.361.5-.36H316m-12.6 27.519h2.83l1.24-3.648 7.75-22.79h-2.83l-7.24 21.296-1.75 5.152M316 2.452h-4c-.448-.024-.857.262-1 .7l-7.49 22.018-1.87 5.512c-.122.316-.085.674.099.956.184.282.491.453.821.456h4c.421-.013.79-.298.92-.711l.37-1.092 9-26.438c.124-.328.076-.7-.126-.983-.203-.284-.533-.442-.874-.418h.15zm-3.21 2.112h1.76l-7.55 22.1-1.13 3.308h-1.77l1.52-4.462 7.13-20.946h.04z"/>
    </g>
</svg>
