<svg id="_x31_px" enable-background="new 0 0 24 24" height="512" viewBox="0 0 24 24" width="512" xmlns="http://www.w3.org/2000/svg"><path d="m12 24c-6.617 0-12-5.383-12-12s5.383-12 12-12 12 5.383 12 12-5.383 12-12 12zm0-23c-6.065 0-11 4.935-11 11s4.935 11 11 11 11-4.935 11-11-4.935-11-11-11z"/><path d="m13 19c-.064 0-.13-.012-.191-.038-.187-.077-.309-.26-.309-.462v-3.5h-6.5c-.552 0-1-.449-1-1v-4c0-.551.448-1 1-1h6.5v-3.5c0-.202.122-.385.309-.462.187-.078.402-.035.545.108l6.5 6.5c.195.195.195.512 0 .707l-6.5 6.5c-.096.096-.224.147-.354.147zm-7-9v4h7c.276 0 .5.224.5.5v2.793l5.293-5.293-5.293-5.293v2.793c0 .276-.224.5-.5.5z"/></svg>