<?xml version="1.0" encoding="UTF-8"?>
<svg width="220px" height="47px" viewBox="0 0 220 47" version="1.1" xmlns="http://www.w3.org/2000/svg" xmlns:xlink="http://www.w3.org/1999/xlink">
    <title>conteudoLogo</title>
    <g id="symbols" stroke="none" stroke-width="1" fill="none" fill-rule="evenodd">
        <g id="conteudoLogo">
            <path d="M60.5620952,46.4417778 C55.0177897,46.4417778 51,42.6607976 51,37.451447 C51,32.2420965 55.0300018,28.4611163 60.5865195,28.4611163 C63.3799918,28.3360646 66.0785453,29.4721618 67.9137955,31.545916 C67.968981,31.599969 68,31.6733934 68,31.7499689 C68,31.8265444 67.968981,31.8999688 67.9137955,31.9540218 L65.3736731,34.2706224 C65.3128756,34.3220869 65.2339093,34.3479585 65.1538549,34.3426411 C65.069639,34.3446519 64.9889514,34.3094045 64.9340366,34.2466162 C63.937602,33.0485231 62.4417304,32.3597484 60.8673984,32.3741307 C59.4736407,32.2928111 58.1110949,32.8015728 57.1238245,33.7719457 C56.1365541,34.7423187 55.6189331,36.081544 55.7016688,37.451447 C55.6189331,38.8213501 56.1365541,40.1605754 57.1238245,41.1309483 C58.1110949,42.1013212 59.4736407,42.6100829 60.8673984,42.5287633 C62.4445638,42.5437431 63.9422767,41.8496998 64.9340366,40.6442748 C64.9880883,40.5852989 65.0616329,40.5470299 65.1416427,40.5362468 C65.2273601,40.5322856 65.311059,40.5625942 65.3736731,40.6202686 L67.9137955,42.924866 C67.968981,42.978919 68,43.0523435 68,43.1289189 C68,43.2054944 67.968981,43.2789189 67.9137955,43.3329718 C66.0800855,45.4253884 63.3686883,46.5719541 60.5620952,46.4417778 L60.5620952,46.4417778 Z M60.5620952,29.0612718 C55.3597292,29.0612718 51.5861821,32.5901867 51.5861821,37.4634501 C51.5861821,42.3367136 55.3475171,45.8656284 60.537671,45.8656284 C63.0383879,45.9744932 65.4620009,45.0005829 67.1688558,43.2009376 L65.0805821,41.2924428 C63.9785437,42.4944305 62.4035853,43.1722282 60.7574892,43.1529252 C59.2039985,43.225678 57.691364,42.6509162 56.5916339,41.5700085 C55.4919039,40.4891007 54.9071336,39.0023554 54.9811533,37.4754533 C54.9109568,35.9495872 55.4969592,34.4650644 56.5958192,33.3850117 C57.6946793,32.304959 59.2050527,31.7289863 60.7574892,31.7979813 C62.3974368,31.7790777 63.9669497,32.4520753 65.06837,33.6464606 L67.1688558,31.7379658 C65.4707801,29.9535809 63.0708928,28.9776715 60.5865195,29.0612718 L60.5620952,29.0612718 Z" id="Shape" fill="#FFFFFF" fill-rule="nonzero"></path>
            <path d="M80.5,46.4517766 C74.9873578,46.4517766 71,42.6667299 71,37.4517766 C71,32.2368234 74.9873578,28.4517766 80.5,28.4517766 C86.0126422,28.4517766 90,32.2368234 90,37.4517766 C90,42.6667299 86.0006321,46.4517766 80.5,46.4517766 Z M80.5,29.0525777 C75.3356511,29.0525777 71.6005057,32.585288 71.6005057,37.4637927 C71.6005057,42.3422973 75.3356511,45.8750076 80.5,45.8750076 C85.6643489,45.8750076 89.3994943,42.3422973 89.3994943,37.4637927 C89.3994943,32.585288 85.6523388,29.0525777 80.5,29.0525777 L80.5,29.0525777 Z M80.5,43.1353548 C78.9926759,43.1737191 77.5373089,42.5831334 76.482576,41.50509 C75.4278431,40.4270467 74.8687765,38.9586783 74.9393173,37.4517766 C74.9393173,34.3791858 77.4289198,31.8883588 80.5,31.8883588 C83.5710802,31.8883588 86.0606827,34.3791858 86.0606827,37.4517766 C86.1276028,38.9576938 85.5673515,40.4239481 84.5134218,41.5011705 C83.459492,42.5783929 82.0062629,43.1701184 80.5,43.1353548 Z M80.5,32.3209355 C79.1496611,32.27472 77.8422934,32.7995572 76.8983968,33.7667841 C75.9545001,34.7340109 75.4613432,36.0542015 75.539823,37.4037126 C75.5398229,39.1766848 76.4852273,40.8149788 78.0199114,41.701465 C79.5545956,42.5879511 81.4454044,42.5879511 82.9800886,41.701465 C84.5147727,40.8149788 85.4601771,39.1766848 85.460177,37.4037126 C85.5246965,36.0623089 85.025343,34.7550749 84.0830659,33.7986383 C83.1407888,32.8422018 81.8415353,32.3238013 80.5,32.3689996 L80.5,32.3209355 Z" id="Shape" fill="#FFFFFF" fill-rule="nonzero"></path>
            <path d="M111.70015,46.45164 L108.509745,46.45164 C108.417427,46.454465 108.328932,46.4133624 108.269865,46.3400738 L100.437781,36.4365183 L100.437781,46.0924849 C100.437781,46.2634094 100.303534,46.401971 100.137931,46.401971 L96.2998501,46.401971 C96.1342475,46.401971 96,46.2634094 96,46.0924849 L96,28.7612628 C96,28.5903383 96.1342475,28.4517766 96.2998501,28.4517766 L99.5142429,28.4517766 C99.602378,28.4525412 99.6857236,28.4932894 99.7421289,28.5631916 L107.562219,38.4667472 L107.562219,28.8107805 C107.562219,28.6398561 107.696466,28.5012944 107.862069,28.5012944 L111.70015,28.5012944 C111.865753,28.5012944 112,28.6398561 112,28.8107805 L112,46.1420027 C112,46.2240835 111.968409,46.3028025 111.912176,46.3608424 C111.855943,46.4188823 111.779675,46.45164 111.70015,46.45164 Z M108.641679,45.8325166 L111.4003,45.8325166 L111.4003,29.1202666 L108.161919,29.1202666 L108.161919,39.3333083 C108.159967,39.4663171 108.078941,39.5843834 107.958021,39.630415 C107.836944,39.6678795 107.705814,39.6292096 107.622189,39.5313794 L99.3703148,29.1202666 L96.6476762,29.1202666 L96.6476762,45.8325166 L99.886057,45.8325166 L99.886057,35.619475 C99.8841428,35.4918773 99.9613872,35.3772701 100.077961,35.3347477 C100.196388,35.2872877 100.330938,35.3220063 100.413793,35.4214039 L108.641679,45.8325166 Z" id="Shape" fill="#FFFFFF" fill-rule="nonzero"></path>
            <path d="M126.040945,46.4517766 L121.959055,46.4517766 C121.785107,46.4517766 121.644094,46.3128305 121.644094,46.1414318 L121.644094,32.4117766 L116.314961,32.4117766 C116.141013,32.4117766 116,32.2728305 116,32.1014318 L116,28.7621215 C116,28.5907228 116.141013,28.4517766 116.314961,28.4517766 L131.685039,28.4517766 C131.858987,28.4517766 132,28.5907228 132,28.7621215 L132,32.0393629 C132,32.2107616 131.858987,32.3497077 131.685039,32.3497077 L126.355906,32.3497077 L126.355906,46.1414318 C126.355906,46.3128305 126.214893,46.4517766 126.040945,46.4517766 Z M122.261417,45.831087 L125.713386,45.831087 L125.713386,32.0393629 C125.713386,31.8679641 125.854399,31.729018 126.028346,31.729018 L131.35748,31.729018 L131.35748,29.0724663 L116.629921,29.0724663 L116.629921,31.729018 L121.959055,31.729018 C122.133003,31.729018 122.274016,31.8679641 122.274016,32.0393629 L122.261417,45.831087 Z" id="Shape" fill="#FFFFFF" fill-rule="nonzero"></path>
            <path d="M148.71416,46.4517766 L136.28584,46.4517766 C136.127975,46.4517766 136,46.3128305 136,46.1414318 L136,28.7621215 C136,28.5907228 136.127975,28.4517766 136.28584,28.4517766 L148.382586,28.4517766 C148.540451,28.4517766 148.668426,28.5907228 148.668426,28.7621215 L148.668426,31.9897077 C148.668426,32.1611064 148.540451,32.3000525 148.382586,32.3000525 L140.287599,32.3000525 L140.287599,35.453156 L147.433597,35.453156 C147.591462,35.453156 147.719437,35.5921021 147.719437,35.7635008 L147.719437,38.8917766 C147.719437,39.0631754 147.591462,39.2021215 147.433597,39.2021215 L140.287599,39.2021215 L140.287599,42.6035008 L148.71416,42.6035008 C148.872025,42.6035008 149,42.7424469 149,42.9138456 L149,46.1414318 C149,46.3128305 148.872025,46.4517766 148.71416,46.4517766 Z M136.605981,45.831087 L148.42832,45.831087 L148.42832,43.2241904 L140.001759,43.2241904 C139.843894,43.2241904 139.715919,43.0852443 139.715919,42.9138456 L139.715919,38.8917766 C139.715919,38.7203779 139.843894,38.5814318 140.001759,38.5814318 L147.147757,38.5814318 L147.147757,36.1359146 L140.001759,36.1359146 C139.843894,36.1359146 139.715919,35.9969685 139.715919,35.8255698 L139.715919,32.1014318 C139.715919,31.9300331 139.843894,31.791087 140.001759,31.791087 L148.131047,31.791087 L148.131047,29.1841904 L136.605981,29.1841904 L136.605981,45.831087 Z" id="Shape" fill="#FFFFFF" fill-rule="nonzero"></path>
            <path d="M162.975794,46.4517766 C157.90469,46.4517766 155,43.4965528 155,38.3310168 L155,28.7570684 C155,28.5884604 155.135466,28.4517766 155.302572,28.4517766 L159.260212,28.4517766 C159.427318,28.4517766 159.562784,28.5884604 159.562784,28.7570684 L159.562784,38.1844768 C159.562784,41.0786423 160.700454,42.4707726 163.036309,42.4707726 C165.372163,42.4707726 166.521936,41.1152773 166.521936,38.1844768 L166.521936,28.7570684 C166.521936,28.5884604 166.657402,28.4517766 166.824508,28.4517766 L170.697428,28.4517766 C170.864534,28.4517766 171,28.5884604 171,28.7570684 L171,38.3310168 C170.951589,43.4965528 168.046899,46.4517766 162.975794,46.4517766 Z M155.629349,29.0623601 L155.629349,38.3310168 C155.629349,43.1057794 158.316188,45.8411932 163,45.8411932 C167.683812,45.8411932 170.370651,43.1057794 170.370651,38.3310168 L170.370651,29.0623601 L167.102874,29.0623601 L167.102874,38.1844768 C167.102874,41.4327807 165.723147,43.0691444 163.024206,43.0691444 C160.325265,43.0691444 158.945537,41.4205691 158.945537,38.1844768 L158.945537,29.0623601 L155.629349,29.0623601 Z" id="Shape" fill="#FFFFFF" fill-rule="nonzero"></path>
            <path d="M185.156057,46.4517766 L177.308008,46.4517766 C177.1379,46.4517766 177,46.3128305 177,46.1414318 L177,28.7621215 C177,28.5907228 177.1379,28.4517766 177.308008,28.4517766 L185.143737,28.4517766 C191.020534,28.4517766 195,32.0766042 195,37.4517766 C195,42.8269491 191.032854,46.4517766 185.156057,46.4517766 Z M177.628337,45.831087 L185.156057,45.831087 C190.663244,45.831087 194.359343,42.4669491 194.359343,37.4517766 C194.359343,32.4366042 190.663244,29.0724663 185.156057,29.0724663 L177.628337,29.0724663 L177.628337,45.831087 Z M185.020534,43.1497077 L181.324435,43.1497077 C181.154327,43.1497077 181.016427,43.0107616 181.016427,42.8393629 L181.016427,32.0641904 C181.016427,31.8927917 181.154327,31.7538456 181.324435,31.7538456 L185.020534,31.7538456 C188.64271,31.7538456 190.995893,33.9883284 190.995893,37.4517766 C190.995893,40.9152249 188.581109,43.1497077 184.958932,43.1497077 L185.020534,43.1497077 Z M181.681725,42.529018 L185.020534,42.529018 C188.322382,42.529018 190.379877,40.5924663 190.379877,37.4517766 C190.379877,34.311087 188.26078,32.4117766 184.958932,32.4117766 L181.620123,32.4117766 L181.681725,42.529018 Z" id="Shape" fill="#FFFFFF" fill-rule="nonzero"></path>
            <path d="M208.5,46.4517766 C202.987358,46.4517766 199,42.6667299 199,37.4517766 C199,32.2368234 202.987358,28.4517766 208.5,28.4517766 C214.012642,28.4517766 218,32.2368234 218,37.4517766 C218,42.6667299 214.000632,46.4517766 208.5,46.4517766 Z M208.5,29.0525777 C203.335651,29.0525777 199.600506,32.585288 199.600506,37.4637927 C199.600506,42.3422973 203.335651,45.8750076 208.5,45.8750076 C213.664349,45.8750076 217.399494,42.3422973 217.399494,37.4637927 C217.399494,32.585288 213.652339,29.0525777 208.5,29.0525777 L208.5,29.0525777 Z M208.5,43.1353548 C206.992676,43.1737191 205.537309,42.5831334 204.482576,41.50509 C203.427843,40.4270467 202.868776,38.9586783 202.939317,37.4517766 C202.939317,34.3791858 205.42892,31.8883588 208.5,31.8883588 C211.57108,31.8883588 214.060683,34.3791858 214.060683,37.4517766 C214.127603,38.9576938 213.567351,40.4239481 212.513422,41.5011705 C211.459492,42.5783929 210.006263,43.1701184 208.5,43.1353548 L208.5,43.1353548 Z M208.5,32.3209355 C207.149661,32.27472 205.842293,32.7995572 204.898397,33.7667841 C203.9545,34.7340109 203.461343,36.0542015 203.539823,37.4037126 C203.539823,40.1444902 205.76057,42.3663294 208.5,42.3663294 C211.23943,42.3663294 213.460177,40.1444902 213.460177,37.4037126 C213.524696,36.0623089 213.025343,34.7550749 212.083066,33.7986383 C211.140789,32.8422018 209.841535,32.3238013 208.5,32.3689996 L208.5,32.3209355 Z" id="Shape" fill="#FFFFFF" fill-rule="nonzero"></path>
            <path d="M14.099619,26.4352476 C5.92881507,26.4352476 0,20.9675842 0,13.449547 C0,5.93150977 5.94127057,0.463846336 14.1369855,0.463846336 C18.2439073,0.29365895 22.2083744,1.93054555 24.9109877,4.91231812 C25.0296708,5.02887873 25.0296708,5.21542466 24.9109877,5.33198527 L21.1743395,8.68932247 C21.1151137,8.74628989 21.0337858,8.77673665 20.9501407,8.7732559 C20.8650209,8.76228716 20.7861289,8.7243138 20.7259418,8.66534149 C19.2105138,6.89341609 16.9445973,5.87546557 14.5604723,5.8955383 C12.4479168,5.79103664 10.3883152,6.55328776 8.89254205,7.9932189 C7.39676886,9.43315004 6.60495684,11.41586 6.71351118,13.449547 C6.60860517,15.4812062 7.40203053,17.4606616 8.89737225,18.8978924 C10.392714,20.3351232 12.4501925,21.095782 14.5604723,20.9915652 C16.954065,21.0169641 19.227133,19.9825389 20.7259418,18.1857905 C20.7819509,18.1230682 20.8642465,18.0878579 20.9501407,18.0898666 C21.0317904,18.0845548 21.1123304,18.1103992 21.1743395,18.1618096 L24.9109877,21.5311372 C24.9672729,21.5851334 24.9989101,21.6584806 24.9989101,21.7349756 C24.9989101,21.8114705 24.9672729,21.8848178 24.9109877,21.9388139 C22.2302518,24.975366 18.2338554,26.6374619 14.099619,26.4352476 Z M14.1369855,1.06337083 C6.30247989,1.06337083 0.622774692,6.26724349 0.622774692,13.449547 C0.622774692,20.6318505 6.29002439,25.8357231 14.099619,25.8357231 C17.926357,26.0097445 21.6313431,24.5170283 24.1885691,21.770947 L20.8629522,18.809296 C19.2491715,20.6004885 16.8987534,21.6178127 14.4359174,21.5910897 C12.1605337,21.6945937 9.94512933,20.8705325 8.33321011,19.3210734 C6.72129089,17.7716143 5.86201233,15.6401331 5.96618155,13.449547 C5.85142403,11.2518734 6.70555064,9.10965181 8.31828276,7.55027883 C9.93101488,5.99090584 12.1525326,5.15924438 14.4359174,5.26004233 C16.890359,5.23555054 19.2351243,6.23730467 20.8629522,8.00586454 L24.1885691,5.04421351 C21.6043587,2.365553 17.9311343,0.910804299 14.1369855,1.06337083 Z" id="Shape" fill="#76C2BD" fill-rule="nonzero"></path>
            <path d="M49.7057015,26.4517766 L43.7072936,26.4517766 C43.6110482,26.4501547 43.5202153,26.4048725 43.4583478,26.3276716 L38.8469235,19.3902015 L34.105099,19.3902015 L34.105099,26.1415141 C34.105099,26.3128674 33.9724123,26.4517766 33.808735,26.4517766 L28.296364,26.4517766 C28.1326867,26.4517766 28,26.3128674 28,26.1415141 L28,0.76203918 C28,0.590685916 28.1326867,0.45177665 28.296364,0.45177665 L38.7283779,0.45177665 C45.4024958,0.45177665 49.5515922,4.100464 49.5515922,9.97063107 C49.690909,13.4671545 47.7722258,16.6967698 44.7149313,18.1119198 L49.9546473,25.9677671 C50.0151176,26.0660096 50.0151176,26.1921976 49.9546473,26.2904401 C49.9064936,26.3882227 49.810776,26.4502552 49.7057015,26.4517766 L49.7057015,26.4517766 Z M43.7784209,25.8312516 L49.0774098,25.8312516 L43.9680939,18.1615619 C43.9279999,18.0797585 43.9279999,17.9827447 43.9680939,17.9009413 C43.9924368,17.8121964 44.0532698,17.7394126 44.1340578,17.7023733 C47.117918,16.4348592 49.0168617,13.3385524 48.8758822,9.97063107 C48.9588642,4.48518954 45.0350044,1.07230171 38.7283779,1.07230171 L28.5334553,1.07230171 L28.5334553,25.8933041 L33.5479346,25.8933041 L33.5479346,19.0799389 C33.5479346,18.9085857 33.6806213,18.7696764 33.8442987,18.7696764 L38.9654691,18.7696764 C39.0620903,18.7695872 39.1535793,18.8151965 39.2144149,18.8937814 L43.7784209,25.8312516 Z M38.3608865,14.6618005 L33.8442987,14.6618005 C33.6806213,14.6618005 33.5479346,14.5228912 33.5479346,14.351538 L33.5479346,5.55249264 C33.5479346,5.38113938 33.6806213,5.24223011 33.8442987,5.24223011 L38.4201593,5.24223011 C41.9765276,5.24223011 43.8732574,6.91764777 43.8732574,9.97063107 C43.8732574,13.0236144 41.8816911,14.7114425 38.4201593,14.7114425 L38.3608865,14.6618005 Z M34.0813899,14.0412755 L38.3608865,14.0412755 C41.4904906,14.0412755 43.2212566,12.5768363 43.2212566,9.92098906 C43.2212566,7.2651418 41.5379089,5.81311317 38.3608865,5.81311317 L34.1406627,5.81311317 L34.0813899,14.0412755 Z" id="Shape" fill="#76C2BD" fill-rule="nonzero"></path>
            <path d="M59.665392,26.4517766 L53.334608,26.4517766 C53.1498091,26.4517766 53,26.3128674 53,26.1415141 L53,0.76203918 C53,0.590685916 53.1498091,0.45177665 53.334608,0.45177665 L59.665392,0.45177665 C59.8501909,0.45177665 60,0.590685916 60,0.76203918 L60,26.1415141 C60,26.2238009 59.9647468,26.3027173 59.9019956,26.3609029 C59.8392444,26.4190884 59.7541355,26.4517766 59.665392,26.4517766 Z M53.6692161,25.8312516 L59.3307839,25.8312516 L59.3307839,1.07230171 L53.6692161,1.07230171 L53.6692161,25.8312516 Z" id="Shape" fill="#76C2BD" fill-rule="nonzero"></path>
            <path d="M88.7004221,26.4461066 L82.7251847,26.4461066 C82.6060127,26.4465375 82.4979922,26.3733935 82.4503238,26.2599897 L80.3948421,21.0114933 L69.4482073,21.0114933 L67.3568743,26.2599897 C67.3092059,26.3733935 67.2011854,26.4465375 67.0820133,26.4461066 L61.2860331,26.4461066 C61.1861081,26.4451588 61.0927205,26.3943695 61.0350731,26.3096209 C60.988309,26.216296 60.988309,26.1051588 61.0350731,26.0118339 L71.9100051,0.637897314 C71.9576735,0.524493578 72.065694,0.451349554 72.184866,0.451778526 L77.7657377,0.451778526 C77.8849098,0.451349554 77.9929302,0.524493578 78.0405986,0.637897314 L88.9633325,26.0738729 C89.0122225,26.1666457 89.0122225,26.2788871 88.9633325,26.3716599 C88.8914108,26.4371822 88.7944244,26.4646452 88.7004221,26.4461066 L88.7004221,26.4461066 Z M82.9641942,25.825717 L88.2343535,25.825717 L77.5745301,1.07217007 L72.3760736,1.07217007 L61.7401512,25.887756 L66.8908057,25.887756 L68.9821388,20.6516673 C69.0260822,20.5333967 69.1349164,20.4547887 69.2569997,20.4531426 L80.6099507,20.4531426 C80.732034,20.4547887 80.8408682,20.5333967 80.8848116,20.6516673 L82.9641942,25.825717 Z M78.8412804,16.5570957 L71.0615214,16.5570957 C70.9615964,16.5561478 70.8682088,16.5053585 70.8105614,16.4206099 C70.7691452,16.3260047 70.7691452,16.2174282 70.8105614,16.1228229 L74.6586143,6.40752103 C74.7123758,6.30163224 74.8181867,6.23535491 74.9334752,6.23535491 C75.0487638,6.23535491 75.1545746,6.30163224 75.2083361,6.40752103 L79.0922404,16.1476385 C79.1336566,16.2422437 79.1336566,16.3508203 79.0922404,16.4454255 C79.0296645,16.5208606 78.9370483,16.5620722 78.8412804,16.5570957 Z M71.5275899,15.936706 L78.3632615,15.936706 L74.9334752,7.33810551 L71.5275899,15.936706 Z" id="Shape" fill="#76C2BD" fill-rule="nonzero"></path>
            <path d="M102.784528,26.4517766 L91.3084955,26.4517766 C91.1381181,26.4517766 91,26.3128674 91,26.1415141 L91,0.76203918 C91,0.590685916 91.1381181,0.45177665 91.3084955,0.45177665 L102.784528,0.45177665 C111.286664,0.45177665 117,5.67659765 117,13.4579819 C117,21.2393661 111.286664,26.4517766 102.784528,26.4517766 Z M91.6786901,25.8312516 L102.784528,25.8312516 C110.916469,25.8312516 116.358329,20.8670511 116.358329,13.4207504 C116.358329,5.97444968 110.891789,1.0102492 102.784528,1.0102492 L91.6786901,1.0102492 L91.6786901,25.8312516 Z M102.550071,21.6365022 L97.15757,21.6365022 C96.9871926,21.6365022 96.8490745,21.4975929 96.8490745,21.3262397 L96.8490745,5.58972414 C96.8490745,5.41837088 96.9871926,5.27946161 97.15757,5.27946161 L102.488372,5.27946161 C107.720456,5.27946161 111.126246,8.48137092 111.126246,13.4579819 C111.126246,18.4345929 107.720456,21.6365022 102.488372,21.6365022 L102.550071,21.6365022 Z M97.5277646,21.0159771 L102.550071,21.0159771 C107.485999,21.0159771 110.533935,18.1119198 110.533935,13.4579819 C110.533935,8.80404395 107.473659,5.89998667 102.550071,5.89998667 L97.4660655,5.89998667 L97.5277646,21.0159771 Z" id="Shape" fill="#76C2BD" fill-rule="nonzero"></path>
            <path d="M132.981619,26.4517766 C124.85733,26.4517766 119,20.9780924 119,13.4517766 C119,5.92546086 124.85733,0.45177665 132.981619,0.45177665 C141.105908,0.45177665 147,5.91345717 147,13.4517766 C147,20.9900961 141.056893,26.4517766 132.981619,26.4517766 Z M132.981619,1.05196132 C125.212691,1.05196132 119.502407,6.26156428 119.502407,13.4517766 C119.502407,20.641989 125.151422,25.851592 132.981619,25.851592 C140.811816,25.851592 146.387309,20.6299853 146.387309,13.4517766 C146.387309,6.27356797 140.750547,1.05196132 132.981619,1.05196132 Z M132.981619,21.6022845 C130.773332,21.6579789 128.64089,20.8114158 127.095232,19.2654333 C125.549575,17.7194509 124.729979,15.6133573 124.832823,13.4517766 C124.717026,10.5282591 126.243186,7.77693817 128.810211,6.28144912 C131.377235,4.78596007 134.573749,4.78596007 137.140774,6.28144912 C139.707798,7.77693817 141.233959,10.5282591 141.118162,13.4517766 C141.220819,15.6112208 140.402863,17.7153556 138.859922,19.2609447 C137.316982,20.8065338 135.187805,21.6545889 132.981619,21.6022845 L132.981619,21.6022845 Z M132.981619,5.88944978 C130.93456,5.83675685 128.957813,6.6227513 127.527374,8.05816818 C126.096934,9.49358506 125.342419,11.4483553 125.445514,13.4517766 C125.334045,16.158041 126.744373,18.7067996 129.120053,20.0924396 C131.495733,21.4780795 134.455252,21.4780795 136.830932,20.0924396 C139.206612,18.7067996 140.61694,16.158041 140.50547,13.4517766 C140.608368,11.4504928 139.85549,9.49768824 138.427771,8.06266776 C137.000052,6.62764727 135.026577,5.84015717 132.981619,5.88944978 L132.981619,5.88944978 Z" id="Shape" fill="#76C2BD" fill-rule="nonzero"></path>
            <path d="M172.724481,26.4517766 L166.726635,26.4517766 C166.630403,26.4517766 166.539283,26.4062564 166.478692,26.3276715 L161.909467,19.3902014 L157.186754,19.3902014 L157.186754,26.141514 C157.186754,26.3128673 157.054602,26.4517766 156.891585,26.4517766 L151.29517,26.4517766 C151.132152,26.4517766 151,26.3128673 151,26.141514 L151,0.762039178 C151,0.590685915 151.132152,0.45177665 151.29517,0.45177665 L161.779593,0.45177665 C168.426812,0.45177665 172.559186,4.10046398 172.559186,9.97063102 C172.694602,13.4662296 170.784725,16.6940302 167.742018,18.1119198 L172.960616,25.967767 C173.013128,26.0682432 173.013128,26.1899638 172.960616,26.29044 C172.912961,26.382768 172.8241,26.4434814 172.724481,26.4517766 Z M166.821089,25.8312515 L172.098721,25.8312515 L167.009998,18.1615618 C166.975136,18.0785525 166.975136,17.9839505 167.009998,17.9009412 C167.038117,17.8144833 167.097501,17.7431458 167.175293,17.7023732 C170.190526,16.4633425 172.122063,13.345556 171.980653,9.94581001 C171.980653,4.46036852 168.072608,1.0474807 161.7914,1.0474807 L151.625759,1.0474807 L151.625759,25.868483 L156.631835,25.868483 L156.631835,19.0799388 C156.631835,18.9085856 156.763987,18.7696763 156.927005,18.7696763 L162.062956,18.7696763 C162.158813,18.7712982 162.24928,18.8165804 162.310898,18.8937813 L166.821089,25.8312515 Z M161.413583,14.6618004 L156.867971,14.6618004 C156.704953,14.6618004 156.572802,14.5228912 156.572802,14.3515379 L156.572802,5.55249261 C156.572802,5.38113935 156.704953,5.24223009 156.867971,5.24223009 L161.413583,5.24223009 C164.955617,5.24223009 166.85651,6.91764774 166.85651,9.97063102 C166.85651,13.0236143 164.932004,14.7114424 161.472617,14.7114424 L161.413583,14.6618004 Z M157.163141,14.0412754 L161.413583,14.0412754 C164.54238,14.0412754 166.26617,12.5768363 166.26617,9.92098901 C166.26617,7.26514177 164.589607,5.81311314 161.413583,5.81311314 L157.163141,5.81311314 L157.163141,14.0412754 Z" id="Shape" fill="#76C2BD" fill-rule="nonzero"></path>
            <path d="M195.693761,26.4517766 L176.305994,26.4517766 C176.136998,26.4517766 176,26.3128673 176,26.141514 L176,0.762039178 C176,0.590685915 176.136998,0.45177665 176.305994,0.45177665 L195.22865,0.45177665 C195.397646,0.45177665 195.534644,0.590685915 195.534644,0.762039178 L195.534644,5.47802961 C195.534644,5.64938288 195.397646,5.78829214 195.22865,5.78829214 L182.376911,5.78829214 L182.376911,10.6780296 L193.686442,10.6780296 C193.855437,10.6780296 193.992435,10.8169389 193.992435,10.9882921 L193.992435,15.5553565 C193.992435,15.7267098 193.855437,15.8656191 193.686442,15.8656191 L182.376911,15.8656191 L182.376911,21.1152611 L195.693761,21.1152611 C195.862757,21.1152611 195.999755,21.2541703 195.999755,21.4255236 L195.999755,26.1291035 C196.003088,26.2135188 195.972327,26.2956617 195.914576,26.3565598 C195.856826,26.4174578 195.777081,26.4517766 195.693761,26.4517766 L195.693761,26.4517766 Z M176.611988,25.8312515 L195.387767,25.8312515 L195.387767,21.7481966 L182.070917,21.7481966 C181.901921,21.7481966 181.764923,21.6092874 181.764923,21.4379341 L181.764923,15.5553565 C181.764923,15.3840033 181.901921,15.245094 182.070917,15.245094 L193.380448,15.245094 L193.380448,11.2985547 L182.070917,11.2985547 C181.901921,11.2985547 181.764923,11.1596454 181.764923,10.9882921 L181.764923,5.47802961 C181.764923,5.30667635 181.901921,5.16776709 182.070917,5.16776709 L194.922657,5.16776709 L194.922657,1.07230171 L176.563029,1.07230171 L176.611988,25.8312515 Z" id="Shape" fill="#76C2BD" fill-rule="nonzero"></path>
            <path d="M209.274252,26.4462643 C205.67056,26.5361483 202.125213,25.524965 199.111755,23.5477757 C199.004508,23.4614944 198.969902,23.313268 199.027867,23.188459 L200.957303,18.9125896 C200.99307,18.8309656 201.063353,18.7695032 201.149048,18.7449084 C201.229205,18.7095436 201.320557,18.7095436 201.400714,18.7449084 C203.724183,20.3576416 206.481411,21.2302646 209.310204,21.2481485 C212.174398,21.2481485 213.744312,20.4217199 213.744312,18.9245668 C213.744312,17.4274136 211.347497,16.7087801 208.639096,16.0739872 C204.56451,15.1277864 199.495246,13.9420411 199.495246,8.38460854 C199.495246,3.59371843 203.665704,0.455685408 210.125121,0.455685408 C213.161525,0.389875438 216.158008,1.15617193 218.789608,2.67147208 C218.911788,2.75179336 218.961635,2.90622987 218.909449,3.04276607 L217.159774,7.34258994 C217.125388,7.42074939 217.0604,7.48137007 216.980013,7.5102711 C216.901538,7.55286826 216.806822,7.55286826 216.728347,7.5102711 C214.714461,6.32199834 212.427411,5.67423363 210.089169,5.62984673 C207.272911,5.65380118 205.750933,6.49220695 205.750933,8.15704126 C205.750933,9.82187558 208.147749,10.324919 210.832182,10.9477348 C214.918752,11.8819583 220,13.0437492 220,18.5412956 C219.976032,22.1823721 217.171758,26.4462643 209.274252,26.4462643 Z M199.686991,23.2124134 C202.556871,25.0072308 205.889653,25.923222 209.274252,25.847403 C215.410099,25.847403 219.376828,22.9728689 219.376828,18.5412956 C219.376828,13.5228382 214.762959,12.4688424 210.676389,11.5346188 C207.704338,10.8519169 205.127762,10.2650329 205.127762,8.15704126 C205.127762,7.22281769 205.607125,5.05493991 210.089169,5.05493991 C212.41687,5.09559744 214.698098,5.71290548 216.728347,6.85152371 L218.250325,3.09067497 C215.76193,1.73065227 212.960717,1.04520164 210.125121,1.10245557 C202.718962,1.10245557 200.09445,4.88725876 200.09445,8.43251744 C200.09445,13.510861 204.708319,14.5888112 208.782905,15.535012 C211.76694,16.2296911 214.343516,16.8285524 214.343516,18.9724757 C214.343516,20.0624032 213.684392,21.8949187 209.310204,21.8949187 C206.483458,21.8710365 203.722475,21.0398905 201.352778,19.4994736 L199.686991,23.2124134 Z" id="Shape" fill="#76C2BD" fill-rule="nonzero"></path>
            <path d="M0.00151577111,37.4345164 C-0.0244146392,36.6262843 0.283324698,35.8440518 0.849759348,35.2783939 C1.416194,34.7127361 2.18931841,34.4155871 2.98077654,34.4593413 C3.77962128,34.4001045 4.56537754,34.6908391 5.14129283,35.2587454 C5.71720812,35.8266518 6.02875019,36.617956 5.99790927,37.4345164 C6.02288378,38.2436291 5.7179258,39.0270909 5.1556761,39.5982818 C4.5934264,40.1694727 3.82421679,40.4772605 3.03127249,40.4483302 C2.22970878,40.4878753 1.44810145,40.1857055 0.873511114,39.6141388 C0.298920781,39.042572 -0.0169426692,38.2530459 0.00151577111,37.4345164 Z" id="Path" fill="#76C2BD" fill-rule="nonzero"></path>
            <path d="M9,28.4517766 L17.2520107,28.4517766 C23.0308311,28.4517766 27,31.9224055 27,37.4455569 C27,42.9687082 23.0308311,46.4517766 17.2520107,46.4517766 L9,46.4517766 L9,28.4517766 Z M17.0469169,42.3840503 C18.374329,42.5146497 19.6904586,42.038048 20.6471738,41.0803121 C21.603889,40.1225763 22.104806,38.7801929 22.0174263,37.4082383 C22.104806,36.0362837 21.603889,34.6939003 20.6471738,33.7361644 C19.6904586,32.7784286 18.374329,32.3018269 17.0469169,32.4324263 L13.922252,32.4324263 L13.922252,42.3094131 L17.0469169,42.3840503 Z" id="Shape" fill="#76C2BD" fill-rule="nonzero"></path>
            <polygon id="Path" points="41 42.5956241 42.6133333 42.5956241 42.6133333 43.4517766 48 30.4517766 46.0266667 30.4517766"></polygon>
            <path d="M39.1289753,45.9905578 L40.2773852,42.5127185 L33.639576,42.5127185 L33.639576,39.2218598 L41.0123675,39.2218598 L41.0123675,35.4822476 L33.639576,35.4822476 L33.639576,32.3908348 L42,32.3908348 L42,28.4517766 L29,28.4517766 L29,46.4517766 L39.4160777,46.4517766 C39.3166282,46.4412708 39.2254073,46.3872624 39.1634276,46.3021922 C39.107134,46.2100942 39.0943544,46.0944977 39.1289753,45.9905578 Z" id="Path" fill="#76C2BD" fill-rule="nonzero"></path>
            <path d="M47.9888909,28.5889335 C47.9271133,28.5018862 47.8287451,28.4509074 47.7244924,28.4518419 L45.2487603,28.4518419 C45.1088544,28.4489975 44.9829058,28.5393744 44.9362893,28.6761301 L40.2372057,42.5154737 L39.0353941,45.9908804 C38.988202,46.0889237 38.988202,46.2042535 39.0353941,46.3022968 C39.1002559,46.3873075 39.1957186,46.4412781 39.2997926,46.4517766 L41.7875428,46.4517766 C41.9238029,46.4407693 42.0412802,46.3482287 42.0879957,46.2151002 L42.328358,45.5299842 L47.9648547,28.8505233 C48.0011625,28.768649 48.0096352,28.6764396 47.9888909,28.5889335 Z M42.4004667,43.5369194 L41.6192891,45.8414006 L39.8406079,45.8414006 L40.9462746,42.5154737 L45.4771046,29.0871997 L47.2557858,29.0871997 L42.4004667,43.5369194 Z" id="Shape" fill="#76C2BD" fill-rule="nonzero"></path>
        </g>
    </g>
</svg>