<?xml version="1.0" encoding="UTF-8"?>
<svg width="327px" height="33px" viewBox="0 0 327 33" version="1.1" xmlns="http://www.w3.org/2000/svg" xmlns:xlink="http://www.w3.org/1999/xlink">
    <title>CriadoresLogoOut</title>
    <defs>
        <rect id="path-1" x="0" y="0" width="327" height="33"></rect>
    </defs>
    <g id="CriadoresLogoOut" stroke="none" stroke-width="1" fill="none" fill-rule="evenodd">
        <mask id="mask-2" fill="white">
            <use xlink:href="#path-1"></use>
        </mask>
        <g id="Background"></g>
        <g id="LogoCriadoresOut" mask="url(#mask-2)">
            <g transform="translate(5.000000, 0.000000)">
                <path d="M16.46,3 C21.06,3 24.91,4.67 27.46,7.72 L23.46,11.37 C21.8120142,9.37210348 19.3497582,8.22550068 16.76,8.25 C14.4710649,8.14964993 12.2451735,9.01502101 10.6250973,10.6350973 C9.00502101,12.2551735 8.13964993,14.4810649 8.24,16.77 C8.13675803,19.0606315 9.00085032,21.2892169 10.6212645,22.911533 C12.2416787,24.5338491 14.469249,25.4005549 16.76,25.3 C19.3590055,25.3264336 21.827263,24.1623002 23.46,22.14 L27.46,25.79 C24.95,28.87 21.1,30.55 16.46,30.55 C8.16,30.55 2,24.8 2,16.77 C2,8.74 8.16,3 16.46,3 M16.46,1 C6.92,1 0,7.63 0,16.77 C0,25.91 7.06,32.55 16.42,32.55 C21.62,32.55 26.08,30.6 28.97,27.05 L28.77,24.32 L24.82,20.67 L21.94,20.84 C20.6869404,22.417278 18.7742762,23.3256089 16.76,23.3 C15.0002781,23.3999614 13.2816034,22.7437888 12.0362415,21.4965169 C10.7908796,20.2492449 10.1373418,18.5295667 10.24,16.77 C10.1370514,15.0112439 10.7908509,13.2923651 12.036608,12.046608 C13.2823651,10.8008509 15.0012439,10.1470514 16.76,10.25 C18.7878313,10.2091107 20.7212009,11.1056923 22,12.68 L24.87,12.84 L28.82,9.19 L29,6.44 C25.8621551,2.81759957 21.2489586,0.816340457 16.46,1 L16.46,1 Z" id="Shape" fill="#76C2BD" fill-rule="nonzero"></path>
                <path d="M43.08,3.46 C50.2,3.46 54.65,7.15 54.65,13.12 C54.7999397,16.8040811 52.6007499,20.179115 49.17,21.53 L55.17,30.09 L48.52,30.09 L43.39,22.67 L37.72,22.67 L37.72,30.09 L31.56,30.09 L31.56,3.46 L43.08,3.46 M37.72,17.76 L42.72,17.76 C46.49,17.76 48.39,16.01 48.39,13.12 C48.39,10.23 46.49,8.48 42.72,8.48 L37.72,8.48 L37.72,17.76 M43.08,1.46 L31.56,1.46 L29.56,3.46 L29.56,30.09 L31.56,32.09 L37.72,32.09 L39.72,30.09 L39.72,24.67 L42.34,24.67 L46.88,31.23 L48.52,32.09 L55.14,32.09 L56.78,29 L52.08,22.25 C55.0384028,20.1888128 56.7570664,16.77405 56.65,13.17 C56.65,6 51.32,1.46 43.08,1.46 Z M39.72,10.46 L42.72,10.46 C46.39,10.46 46.39,12.24 46.39,13.1 C46.39,13.96 46.39,15.74 42.72,15.74 L39.72,15.74 L39.72,10.48 L39.72,10.46 Z" id="Shape" fill="#76C2BD" fill-rule="nonzero"></path>
                <path d="M65.67,3.46 L65.67,30.09 L59.51,30.09 L59.51,3.46 L65.67,3.46 M65.67,1.46 L59.51,1.46 L57.51,3.46 L57.51,30.09 L59.51,32.09 L65.67,32.09 L67.67,30.09 L67.67,3.46 L65.67,1.46 Z" id="Shape" fill="#76C2BD" fill-rule="nonzero"></path>
                <path d="M86.45,3.46 L98.35,30.09 L91.89,30.09 L89.53,24.38 L77.16,24.38 L74.8,30.09 L68.49,30.09 L80.36,3.46 L86.45,3.46 M79.14,19.7 L87.59,19.7 L83.36,9.51 L79.14,19.7 M86.45,1.46 L80.36,1.46 L78.53,2.64 L66.66,29.28 L68.49,32.09 L74.8,32.09 L76.65,30.85 L78.5,26.38 L88.19,26.38 L90,30.85 L91.85,32.09 L98.31,32.09 L100.14,29.27 L88.27,2.64 L86.45,1.46 Z M82.13,17.7 L83.36,14.7 L84.59,17.7 L82.13,17.7 Z" id="Shape" fill="#76C2BD" fill-rule="nonzero"></path>
                <path d="M113.22,3.46 C121.94,3.46 127.91,8.71 127.91,16.77 C127.91,24.83 121.91,30.09 113.22,30.09 L101.12,30.09 L101.12,3.46 L113.22,3.46 M107.29,25 L112.92,25 C118.21,25 121.67,21.84 121.67,16.74 C121.67,11.64 118.21,8.49 112.92,8.49 L107.29,8.49 L107.29,25 M113.22,1.46 L101.12,1.46 L99.12,3.46 L99.12,30.09 L101.12,32.09 L113.22,32.09 C123.22,32.09 129.91,25.93 129.91,16.77 C129.91,7.61 123.2,1.46 113.22,1.46 Z M109.29,10.52 L112.92,10.52 C117.15,10.52 119.67,12.86 119.67,16.77 C119.67,20.68 117.15,23 112.92,23 L109.29,23 L109.29,10.52 L109.29,10.52 Z" id="Shape" fill="#76C2BD" fill-rule="nonzero"></path>
                <path d="M145.44,3 C153.81,3 160,8.82 160,16.77 C160,24.72 153.8,30.55 145.43,30.55 C137.06,30.55 130.86,24.69 130.86,16.77 C130.86,8.85 137,3 145.44,3 M145.44,25.3 C147.701846,25.358438 149.885733,24.4716615 151.466543,22.8528963 C153.047354,21.2341311 153.882076,19.0298234 153.77,16.77 C153.77,12.169468 150.040532,8.44 145.44,8.44 C140.839468,8.44 137.11,12.169468 137.11,16.77 C136.997924,19.0298234 137.832646,21.2341311 139.413457,22.8528963 C140.994267,24.4716615 143.178154,25.358438 145.44,25.3 M145.44,1 C136,1 128.87,7.78 128.87,16.77 C128.87,25.76 136,32.55 145.44,32.55 C154.88,32.55 162,25.77 162,16.77 C162,7.77 154.89,1 145.44,1 L145.44,1 Z M145.44,23.3 C143.710774,23.3509116 142.039839,22.6723373 140.835732,21.4301859 C139.631625,20.1880345 139.00534,18.4968063 139.11,16.77 C139.11,13.2740375 141.944038,10.44 145.44,10.44 C148.935962,10.44 151.77,13.2740375 151.77,16.77 C151.87466,18.4968063 151.248375,20.1880345 150.044268,21.4301859 C148.840161,22.6723373 147.169226,23.3509116 145.44,23.3 L145.44,23.3 Z" id="Shape" fill="#76C2BD" fill-rule="nonzero"></path>
                <path d="M176.17,3.46 C183.29,3.46 187.74,7.15 187.74,13.12 C187.88994,16.8040811 185.69075,20.179115 182.26,21.53 L188.26,30.09 L181.64,30.09 L176.51,22.67 L170.84,22.67 L170.84,30.09 L164.68,30.09 L164.68,3.46 L176.2,3.46 M170.84,17.76 L175.84,17.76 C179.61,17.76 181.51,16.01 181.51,13.12 C181.51,10.23 179.61,8.48 175.84,8.48 L170.84,8.48 L170.84,17.76 M176.17,1.46 L164.65,1.46 L162.65,3.46 L162.65,30.09 L164.65,32.09 L170.81,32.09 L172.81,30.09 L172.81,24.67 L175.43,24.67 L180,31.23 L181.64,32.09 L188.26,32.09 L189.87,29 L185.17,22.25 C188.128403,20.1888128 189.847066,16.77405 189.74,13.17 C189.74,6 184.41,1.46 176.17,1.46 Z M172.81,10.46 L175.81,10.46 C179.48,10.46 179.48,12.24 179.48,13.1 C179.48,13.96 179.48,15.74 175.81,15.74 L172.81,15.74 L172.81,10.48 L172.81,10.46 Z" id="Shape" fill="#76C2BD" fill-rule="nonzero"></path>
                <path d="M212.73,3.46 L212.73,8.4 L198.73,8.4 L198.73,14.19 L211.09,14.19 L211.09,19 L198.73,19 L198.73,25.16 L213.22,25.16 L213.22,30.11 L192.6,30.11 L192.6,3.46 L212.73,3.46 M212.73,1.46 L192.6,1.46 L190.6,3.46 L190.6,30.09 L192.6,32.09 L213.22,32.09 L215.22,30.09 L215.22,25.14 L213.22,23.14 L200.73,23.14 L200.73,21 L211.09,21 L213.09,19 L213.09,14.19 L211.09,12.19 L200.73,12.19 L200.73,10.4 L212.73,10.4 L214.73,8.4 L214.73,3.46 L212.73,1.46 Z" id="Shape" fill="#76C2BD" fill-rule="nonzero"></path>
                <path d="M227.79,3 C231.017017,2.93856546 234.200192,3.7542323 237,5.36 L235.13,10 C232.884072,8.70701099 230.341465,8.01795762 227.75,8 C224.1,8 222.69,9.37 222.69,11 C222.69,15.91 238.17,12.52 238.17,22.3 C238.17,26.75 234.48,30.56 226.87,30.56 C222.65,30.56 218.39,29.3 216.03,27.48 L218.12,22.83 C220.704954,24.6171056 223.767526,25.5857006 226.91,25.61 C230.56,25.61 232.05,24.39 232.05,22.76 C232.05,17.76 216.56,21.2 216.56,11.3 C216.56,6.78 220.22,3.01 227.79,3.01 M227.79,1.01 C218,1 214.56,6.55 214.56,11.29 C214.56,18.67 221.33,20.29 225.81,21.29 C227.27,21.63 229.73,22.2 230.05,22.74 C230.05,23.18 228.88,23.61 226.91,23.61 C224.193188,23.5809762 221.545582,22.7494678 219.3,21.22 L216.3,22.01 L214.21,26.65 L214.81,29.06 C217.55,31.18 222.29,32.56 226.87,32.56 C233.49,32.56 240.17,29.39 240.17,22.3 C240.17,14.98 233.4,13.43 228.92,12.41 C227.46,12.08 225.02,11.52 224.68,10.98 C224.68,10.28 226.23,9.98 227.75,9.98 C230.002593,10.0259603 232.204569,10.6565734 234.14,11.81 L236.98,10.81 L238.89,6.13 L238.1,3.69 C234.973889,1.86762816 231.407965,0.93723655 227.79,1 L227.79,1.01 Z" id="Shape" fill="#76C2BD" fill-rule="nonzero"></path>
                <path d="M245.14,20.71 C243.875606,20.7427513 242.652426,20.2590329 241.752422,19.3703499 C240.852418,18.4816668 240.353256,17.2647072 240.37,16 C240.335451,14.7318064 240.829634,13.5063209 241.734269,12.616858 C242.638904,11.7273951 243.872572,11.2540081 245.14,11.31 C246.409904,11.2415028 247.649911,11.7111523 248.55581,12.6037298 C249.46171,13.4963072 249.949677,14.7292205 249.9,16 C249.934051,17.2680675 249.441799,18.4936878 248.540093,19.3859218 C247.638387,20.2781558 246.407637,20.7574395 245.14,20.71 L245.14,20.71 Z" id="Path" fill="#76C2BD" fill-rule="nonzero"></path>
                <path d="M245.14,11.54 C246.346382,11.4739275 247.524494,11.9208119 248.383562,12.7703557 C249.24263,13.6198995 249.70262,14.7929568 249.65,16 C249.430887,18.321468 247.481786,20.0952648 245.15,20.0952648 C242.818214,20.0952648 240.869113,18.321468 240.65,16 C240.612244,14.7971864 241.079079,13.6333636 241.937579,12.7900583 C242.796079,11.9467529 243.968052,11.5007729 245.17,11.56 M245.17,11.06 C243.839662,11.0098475 242.547824,11.5121536 241.6008,12.4478133 C240.653776,13.383473 240.135911,14.6691539 240.17,16 C240.17,18.7614237 242.408576,21 245.17,21 C247.931424,21 250.17,18.7614237 250.17,16 C250.222316,14.6639135 249.710265,13.3674324 248.759095,12.4276769 C247.807926,11.4879213 246.505358,10.9915588 245.17,11.06 L245.17,11.06 Z" id="Shape" fill="#76C2BD" fill-rule="nonzero"></path>
                <path d="M253.53,30.92 C253.391929,30.92 253.28,30.8080712 253.28,30.67 L253.28,2.94 C253.28,2.80192881 253.391929,2.69 253.53,2.69 L266.65,2.69 C276.21,2.69 282.39,8.23 282.39,16.8 C282.39,25.37 276.21,30.92 266.65,30.92 L253.53,30.92 Z M266.33,24.16 C271.04,24.16 273.97,21.34 273.97,16.8 C273.97,12.26 271,9.45 266.33,9.45 L261.63,9.45 L261.63,24.16 L266.33,24.16 Z" id="Shape" fill="#76C2BD" fill-rule="nonzero"></path>
                <path d="M266.65,2.94 C275.84,2.94 282.14,8.29 282.14,16.8 C282.14,25.31 275.84,30.67 266.65,30.67 L253.53,30.67 L253.53,2.94 L266.65,2.94 M261.38,24.41 L266.33,24.41 C271.05,24.41 274.22,21.6 274.22,16.8 C274.22,12 271.05,9.2 266.33,9.2 L261.38,9.2 L261.38,24.41 M266.65,2.41 L253.53,2.41 C253.253858,2.41 253.03,2.63385763 253.03,2.91 L253.03,30.67 C253.03,30.9461424 253.253858,31.17 253.53,31.17 L266.65,31.17 C276.21,31.17 282.65,25.4 282.65,16.8 C282.65,8.2 276.22,2.44 266.65,2.44 L266.65,2.41 Z M261.88,9.7 L266.33,9.7 C270.89,9.7 273.72,12.42 273.72,16.8 C273.72,21.18 270.89,23.91 266.33,23.91 L261.88,23.91 L261.88,9.7 Z" id="Shape" fill="#76C2BD" fill-rule="nonzero"></path>
                <polygon id="Path" fill="none" points="305.15 24.6 307.47 24.6 307.47 26.05 315.22 3.93 312.39 3.93"></polygon>
                <path d="M285.25,30.9 C285.114112,30.8948667 285.005133,30.7858881 285,30.65 L285,3 C285,2.86192881 285.111929,2.75 285.25,2.75 L307,2.75 C307.138071,2.75 307.25,2.86192881 307.25,3 L307.25,9 C307.25,9.13807119 307.138071,9.25 307,9.25 L293.25,9.25 L293.25,13.42 L305.3,13.42 C305.438071,13.42 305.55,13.5319288 305.55,13.67 L305.55,19.52 C305.55,19.6580712 305.438071,19.77 305.3,19.77 L293.25,19.77 L293.25,24.33 L304,24.33 C304.081505,24.3299281 304.158682,24.3666787 304.21,24.43 C304.249128,24.5016742 304.249128,24.5883258 304.21,24.66 L302.4,30 C302.360733,30.0787075 302.360733,30.1712925 302.4,30.25 C302.451374,30.3212558 302.532277,30.3653848 302.62,30.37 C302.758071,30.37 302.87,30.4819288 302.87,30.62 C302.87,30.7580712 302.758071,30.87 302.62,30.87 L285.25,30.9 Z" id="Path" fill="#76C2BD" fill-rule="nonzero"></path>
                <path d="M307,3 L307,9 L293,9 L293,13.67 L305.3,13.67 L305.3,19.52 L293,19.52 L293,24.6 L304,24.6 L302.16,30 C302.102706,30.1617492 302.128897,30.3413504 302.23,30.48 C302.331411,30.6108432 302.484696,30.6911351 302.65,30.7 L285.26,30.7 L285.26,3 L307,3 M307,2.48 L285.3,2.48 C285.023858,2.48 284.8,2.70385763 284.8,2.98 L284.8,30.65 C284.8,30.9261424 285.023858,31.15 285.3,31.15 L302.69,31.15 C302.966142,31.15 303.19,30.9261424 303.19,30.65 C303.192688,30.51832 303.142252,30.3911021 303.050066,30.297035 C302.957881,30.2029679 302.831707,30.1499726 302.7,30.15 L304.53,24.8 C304.561583,24.7379747 304.578679,24.6695909 304.58,24.6 C304.58,24.3238576 304.356142,24.1 304.08,24.1 L293.5,24.1 L293.5,20 L305.3,20 C305.573908,19.9946799 305.79468,19.7739085 305.8,19.5 L305.8,13.69 C305.8,13.4138576 305.576142,13.19 305.3,13.19 L293.5,13.19 L293.5,9.52 L307,9.52 C307.276142,9.52 307.5,9.29614237 307.5,9.02 L307.5,3 C307.5,2.72385763 307.276142,2.5 307,2.5 L307,2.48 Z" id="Shape" fill="#76C2BD" fill-rule="nonzero"></path>
                <path d="M302.66,30.9 L302.56,30.9 L302.56,30.9 C302.352715,30.8766043 302.166206,30.7632361 302.05,30.59 C301.90803,30.3817768 301.871067,30.1193364 301.95,29.88 L311.32,3.17 C311.426992,2.85831571 311.720464,2.64926659 312.05,2.64999808 L316,2.64999808 C316.251437,2.65154972 316.487898,2.76977985 316.64,2.97 C316.783212,3.17812551 316.816753,3.44272393 316.73,3.68 L307.37,30.4 C307.261747,30.7063884 306.974886,30.9135655 306.65,30.92 L302.7,30.92 L302.66,30.9 Z M306.05,29.34 L314.87,4.18 L312.57,4.18 L303.75,29.34 L306.05,29.34 Z" id="Shape" fill="#76C2BD" fill-rule="nonzero"></path>
                <path d="M316,2.87999786 C316.170361,2.87999786 316.330355,2.96181994 316.43,3.1 C316.526536,3.24051334 316.552294,3.41779618 316.5,3.58 L307.5,29.23 L307.13,30.29 C307.053874,30.4975818 306.860846,30.6393985 306.64,30.65 L302.64,30.65 C302.474696,30.6411351 302.321411,30.5608432 302.22,30.43 C302.118897,30.2913504 302.092706,30.1117492 302.15,29.95 L304,24.6 L311.49,3.23 C311.566026,3.0194474 311.766143,2.87936581 311.99,2.87999786 L316,2.87999786 M303.4,29.59 L306.23,29.59 L307.47,26.05 L315.22,3.93 L312.39,3.93 L305.15,24.6 L303.4,29.6 M316,2.38 L312,2.38 C311.551848,2.35660853 311.142994,2.63462906 311,3.06 L303.51,24.43 L301.64,29.78 C301.517897,30.0865486 301.554877,30.4335984 301.738835,30.7075345 C301.922792,30.9814706 302.230042,31.1470251 302.56,31.15 L306.56,31.15 C306.981472,31.1369737 307.349483,30.8609657 307.48,30.46 L307.85,29.4 L316.85,3.74 C316.973964,3.42109695 316.92628,3.06095195 316.723594,2.78529878 C316.520908,2.50964561 316.191359,2.35675345 315.85,2.38 L316,2.38 Z M312.79,4.43 L314.55,4.43 L307,25.88 L305.87,29.09 L304.1,29.09 L305.62,24.76 L312.75,4.43 L312.79,4.43 Z" id="Shape" fill="#76C2BD" fill-rule="nonzero"></path>
            </g>
        </g>
    </g>
</svg>