<?xml version="1.0" encoding="UTF-8"?>
<svg width="21px" height="23px" viewBox="0 0 21 23" version="1.1" xmlns="http://www.w3.org/2000/svg" xmlns:xlink="http://www.w3.org/1999/xlink">
    <title>shop-2</title>
    <g id="symbols" stroke="none" stroke-width="1" fill="none" fill-rule="evenodd">
        <g id="shopgroup" transform="translate(-232.000000, -6.000000)" fill="#8A8C8E" fill-rule="nonzero">
            <g transform="translate(1.000000, 6.000000)" id="shop-2">
                <g transform="translate(231.000000, 0.000000)">
                    <path d="M17.7028564,22.901526 C16.2876892,22.901526 15.1363037,21.7283967 15.1363037,20.286422 C15.1363037,19.866109 15.2356384,19.4535009 15.424823,19.0848815 L10.1486755,19.0848815 C10.3374756,19.4496963 10.4366821,19.8622645 10.4366821,20.286422 C10.4366821,21.7283967 9.28529663,22.901526 7.87000122,22.901526 C6.45470581,22.901526 5.30344849,21.7283967 5.30344849,20.286422 C5.30344849,19.8552933 5.41060181,19.4279452 5.61452637,19.0434692 C4.38046875,18.8242437 3.46364136,17.7238891 3.46364136,16.4372666 L3.46364136,12.5275719 L3.46364136,9.43240929 L3.46364136,5.9696442 L3.46364136,5.51811236 L3.46364136,2.72121117 L0.525640869,1.45700177 C0.173291016,1.30602854 0.00717773438,0.89078435 0.155474854,0.53140935 C0.263909912,0.26806762 0.515258789,0.0978917209 0.795703125,0.0978917209 C0.889141846,0.0978917209 0.980529785,0.116771351 1.06743164,0.154008172 L4.43173828,1.59695591 L4.43417358,1.59800079 L4.43660889,1.59921317 C4.44481201,1.60340864 4.45404053,1.60755626 4.46326904,1.61175173 C4.47454834,1.61683256 4.48569946,1.62194131 4.49569702,1.6270341 L4.50723267,1.63286868 L4.51018066,1.63587969 C4.51248779,1.63729147 4.51517944,1.63899838 4.51799927,1.64104826 C4.52774048,1.64673927 4.53966064,1.65463569 4.55170898,1.66283122 L4.55811768,1.6671583 L4.5663208,1.67449639 C4.56811523,1.67630698 4.57003784,1.67749942 4.57183228,1.67886734 C4.57811279,1.68367698 4.58426514,1.68861424 4.59067383,1.69465221 C4.59580078,1.69819364 4.60015869,1.70145988 4.60400391,1.70454667 C4.62207642,1.71734047 4.63412476,1.72972748 4.64399414,1.73981736 C4.6486084,1.74437575 4.65373535,1.74954033 4.65860596,1.75473681 L4.67334595,1.76966424 L4.68488159,1.78145703 L4.69692993,1.79364863 L4.70564575,1.80252613 L4.71320801,1.81570677 L4.71538696,1.818311 C4.72153931,1.82667403 4.72717896,1.8352564 4.73140869,1.84361943 C4.73756104,1.85323871 4.74153442,1.85950002 4.74550781,1.86777132 C4.74832764,1.87213828 4.75063477,1.8758153 4.75281372,1.87935673 C4.7631958,1.89174773 4.76973267,1.90345279 4.77434692,1.91258951 C4.77921753,1.92019081 4.78216553,1.92734545 4.78408813,1.93265759 C4.79549561,1.95048835 4.80254517,1.96548358 4.80882568,1.98474607 L4.81254272,1.99644713 L4.81254272,1.99871635 C4.81356812,2.00187492 4.81446533,2.00531266 4.81523438,2.00903754 L4.81690063,2.01423801 L4.82689819,2.04486257 L4.83074341,2.05675905 L4.83074341,2.06155274 C4.83202515,2.06586387 4.83343506,2.07122387 4.83433228,2.07752106 C4.83612671,2.08403761 4.83740845,2.08998784 4.83856201,2.09595403 C4.83907471,2.09888129 4.8395874,2.10182849 4.84074097,2.105342 L4.84458618,2.11725842 L4.84458618,2.12980496 C4.84484253,2.13240918 4.8454834,2.13535638 4.84586792,2.13833549 C4.84676514,2.14363168 4.84753418,2.14894381 4.84804688,2.15424798 C4.85137939,2.16409857 4.85266113,2.17268094 4.853302,2.18028225 C4.85817261,2.20553485 4.85817261,2.23184828 4.85817261,2.25536208 L4.85817261,4.39348221 L20.2986328,6.56633065 C20.3082458,6.56699267 20.3163208,6.56887106 20.3226013,6.57082124 C20.3345215,6.57118416 20.3478516,6.57248826 20.3640015,6.57721415 C20.3687439,6.57816731 20.3727173,6.57931588 20.3757935,6.58021719 C20.3996338,6.58174463 20.4216797,6.59070986 20.4330872,6.59617753 C20.4419312,6.5984348 20.4523132,6.60123444 20.4638489,6.60708896 L20.4692322,6.60983675 L20.4921753,6.62165347 L20.5024292,6.62677418 L20.5189636,6.63522096 L20.5265259,6.63908143 L20.545752,6.64881238 L20.5579285,6.65487827 L20.5672852,6.66464112 C20.5685669,6.66531112 20.570874,6.66630415 20.5731812,6.66745273 C20.5817688,6.67194731 20.5876648,6.67579582 20.5935608,6.67974801 C20.6048401,6.68587373 20.6139404,6.69221878 20.6227844,6.69901449 C20.6380371,6.70741341 20.6480347,6.71680936 20.6539307,6.7228234 L20.6581604,6.72502483 L20.666748,6.73363911 L20.6804626,6.74748178 L20.6898193,6.75694552 C20.6949463,6.76077808 20.7078918,6.77102748 20.7184021,6.78852723 C20.7239136,6.79424615 20.730835,6.80183948 20.7369873,6.81214072 C20.741217,6.81647977 20.7460876,6.82190358 20.7509583,6.82878304 C20.7601868,6.83847809 20.7691589,6.84910636 20.7773621,6.86567289 L20.7792847,6.86802188 C20.7858215,6.87683556 20.7918457,6.88594437 20.7960754,6.89486174 C20.8015869,6.90312108 20.805304,6.90907929 20.8092773,6.91695976 L20.8195313,6.93790522 C20.8265808,6.94787147 20.8318359,6.95832426 20.8365784,6.96788372 L20.83927,6.97320782 L20.8410645,6.97907032 C20.8440125,6.98817912 20.8472168,6.99414531 20.8501648,7.00019126 C20.8565735,7.01366702 20.8592651,7.02431922 20.8608032,7.03068421 C20.8656738,7.04148397 20.8683655,7.0522239 20.8699036,7.05864074 L20.8723389,7.06352217 L20.8727234,7.0666927 C20.8759277,7.0760687 20.8777222,7.08402495 20.8792603,7.09125935 L20.8868225,7.10720374 L20.8860535,7.11993374 C20.8882324,7.12885111 20.8904114,7.13935176 20.8904114,7.15185443 L20.8913086,7.15325425 C20.8920776,7.15750157 20.8928467,7.16175686 20.8933594,7.16589251 C20.8995117,7.18492369 20.8995117,7.20146231 20.8995117,7.21228201 L20.8995117,7.24949889 L20.8995117,7.26821501 L20.8995117,12.5182757 C20.8995117,13.9781848 19.7337708,15.1658866 18.3009155,15.1658866 L6.06223755,15.1658866 C5.63939209,15.1658866 5.22449341,15.063257 4.85355835,14.8679681 L4.85355835,16.4372666 C4.85355835,17.1177868 5.39586182,17.6714297 6.06223755,17.6714297 L17.7028564,17.6714297 C19.1181519,17.6714297 20.2695374,18.8445112 20.2695374,20.286422 C20.2695374,21.7283967 19.1181519,22.901526 17.7028564,22.901526 Z M17.7074707,19.0801676 C17.0586548,19.0801676 16.530835,19.6192221 16.530835,20.2818198 C16.530835,20.9443456 17.0586548,21.4833523 17.7074707,21.4833523 C18.3562866,21.4833523 18.8842346,20.9443456 18.8842346,20.2818198 C18.8842346,19.6192221 18.3562866,19.0801676 17.7074707,19.0801676 Z M7.87461548,19.0801676 C7.22579956,19.0801676 6.69785156,19.6192221 6.69785156,20.2818198 C6.69785156,20.9443456 7.22579956,21.4833523 7.87461548,21.4833523 C8.52330322,21.4833523 9.05112305,20.9443456 9.05112305,20.2818198 C9.05112305,19.6192221 8.52330322,19.0801676 7.87461548,19.0801676 Z M4.85355835,5.81776966 L4.85355835,5.96024427 L4.85355835,9.42310507 L4.85355835,12.5182757 C4.85355835,13.1987919 5.39586182,13.7524348 6.06223755,13.7524348 L18.3009155,13.7524348 C18.9672913,13.7524348 19.5095947,13.196734 19.5095947,12.5136774 L19.5095947,7.8762077 L4.85355835,5.81776966 Z" id="Shape"></path>
                    <path d="M17.7028564,22.8231121 C19.0723938,22.8231121 20.1908386,21.6827171 20.1908386,20.286422 C20.1908386,18.8901111 19.0723938,17.7498356 17.7028564,17.7498356 L6.06223755,17.7498356 C5.35010376,17.7498356 4.77485962,17.1587285 4.77485962,16.4372666 L4.77485962,14.7338007 C5.14925537,14.9572216 5.59196777,15.0874807 6.06223755,15.0874807 L18.3009155,15.0874807 C19.6887817,15.0874807 20.820813,13.9331911 20.820813,12.5182757 L20.820813,7.26821501 C20.820813,7.26350906 20.820813,7.25420484 20.820813,7.24949889 C20.820813,7.2355964 20.820813,7.22629218 20.820813,7.21228201 C20.820813,7.20297779 20.820813,7.19367357 20.8161987,7.18436935 C20.8161987,7.17505316 20.8117126,7.16115865 20.8117126,7.15185443 C20.8117126,7.14244652 20.8070984,7.1331423 20.8070984,7.12394177 C20.8026123,7.11452189 20.8026123,7.10522565 20.797998,7.09132316 C20.7933838,7.08201894 20.7933838,7.07271472 20.7888977,7.0634105 C20.7842834,7.05409431 20.7842834,7.04479009 20.7797974,7.03539016 C20.7751831,7.02608594 20.7705688,7.01688541 20.7660828,7.00286727 C20.7614685,6.99357102 20.7568542,6.9842668 20.7523682,6.97956484 C20.7477539,6.97024866 20.7431396,6.96094444 20.7386536,6.95164819 C20.7340393,6.94234397 20.7295532,6.9377457 20.724939,6.92844148 C20.7204529,6.91902161 20.7112244,6.90983304 20.7067383,6.90042114 C20.702124,6.89111692 20.6975098,6.88651865 20.6884094,6.87721443 C20.6839233,6.86791021 20.6746948,6.86320426 20.6702087,6.85390004 C20.6655945,6.84459582 20.6564941,6.83988987 20.6518799,6.83068934 C20.6472656,6.82138512 20.6381653,6.81668316 20.6336792,6.81197721 C20.6245789,6.80277668 20.6199646,6.79806276 20.6107361,6.78876651 C20.6017639,6.78406455 20.5972778,6.77486402 20.5879211,6.77015807 C20.5788208,6.76544415 20.5698486,6.75613993 20.5606201,6.75154963 C20.5513916,6.74684368 20.5469055,6.74224541 20.5378052,6.73753946 C20.5287048,6.7328375 20.5194763,6.72823524 20.5105042,6.71893102 C20.5012756,6.71433275 20.4921753,6.7096268 20.4829468,6.70492086 C20.4739746,6.70032258 20.4647461,6.69571235 20.4555176,6.69101836 C20.4465454,6.68631242 20.4374451,6.68171414 20.4282166,6.6770082 C20.4191162,6.67240992 20.4100159,6.67240992 20.4009155,6.66780767 C20.391687,6.6631057 20.3779724,6.65839976 20.3688721,6.65839976 C20.3597717,6.65839976 20.3506714,6.65378952 20.3460571,6.65378952 C20.3323425,6.64909554 20.3232422,6.64909554 20.3095276,6.64909554 C20.3050415,6.64909554 20.3004272,6.6444853 20.2913269,6.6444853 L4.77947388,4.46158687 L4.77947388,2.25536208 C4.77947388,2.23215537 4.77947388,2.20884098 4.77485962,2.19023254 C4.77485962,2.18563028 4.77485962,2.18092832 4.77037354,2.1716241 C4.77037354,2.15771762 4.76588745,2.14370745 4.76588745,2.12980496 C4.76127319,2.11579479 4.76127319,2.10649057 4.75665894,2.0924804 C4.75665894,2.08317618 4.75204468,2.07857791 4.75204468,2.06927369 C4.74743042,2.05526352 4.74294434,2.04125335 4.73845825,2.02735086 C4.73845825,2.0227486 4.73384399,2.01334069 4.73384399,2.00873045 C4.72935791,1.99483594 4.72474365,1.98542803 4.71551514,1.97152155 C4.71090088,1.96681959 4.71090088,1.95750341 4.70654297,1.95280942 C4.70192871,1.94360889 4.69731445,1.93430467 4.68808594,1.92489676 C4.68359985,1.91569623 4.6789856,1.91099028 4.67449951,1.90168606 C4.67001343,1.89238184 4.66539917,1.88767589 4.66078491,1.87837167 C4.65617065,1.86906745 4.64719849,1.85976323 4.64258423,1.85045901 C4.63796997,1.84575306 4.63348389,1.84115479 4.62886963,1.83655253 C4.61964111,1.82724831 4.61066895,1.8178404 4.60144043,1.80863987 C4.59695435,1.80392595 4.59234009,1.79923196 4.58772583,1.79462173 C4.57862549,1.78532548 4.56952515,1.77602126 4.55581055,1.76671704 C4.55119629,1.76200312 4.54209595,1.75741282 4.53760986,1.7526989 C4.52838135,1.74340265 4.51928101,1.73870069 4.51018066,1.72950016 C4.49646606,1.72019594 4.48275146,1.71077607 4.47365112,1.70618577 C4.46903687,1.7015875 4.46455078,1.7015875 4.45993652,1.69688155 C4.44160767,1.68757733 4.41879272,1.67827311 4.40059204,1.66896889 L1.0362854,0.226033124 C0.95758667,0.192297849 0.875939941,0.176297621 0.795703125,0.176297621 C0.55512085,0.176297621 0.327484131,0.320311633 0.228277588,0.56120439 C0.0957458496,0.882369475 0.241864014,1.25005566 0.556915283,1.38502069 L3.54234009,2.66967704 L3.54234009,5.51811236 L3.54234009,5.9696442 L3.54234009,9.43240929 L3.54234009,12.5275719 L3.54234009,16.4372666 C3.54234009,17.7405274 4.50108032,18.8202796 5.73808594,18.983249 C5.51455078,19.3649573 5.38214722,19.8116795 5.38214722,20.286422 C5.38214722,21.687439 6.50046387,22.8231121 7.87000122,22.8231121 C9.23953857,22.8231121 10.3579834,21.6827171 10.3579834,20.286422 C10.3579834,19.8209717 10.2346802,19.3788598 10.0155029,19.0064756 L15.5573547,19.0064756 C15.3383057,19.383462 15.2150024,19.8209717 15.2150024,20.286422 C15.2150024,21.687439 16.3334473,22.8231121 17.7028564,22.8231121 L17.7028564,22.8231121 Z M17.7074707,19.0017537 C18.3967896,19.0017537 18.9629333,19.5743561 18.9629333,20.2818198 C18.9629333,20.9892675 18.3967896,21.5617582 17.7074707,21.5617582 C17.0181519,21.5617582 16.4521362,20.9845695 16.4521362,20.2818198 C16.4521362,19.5789663 17.0181519,19.0017537 17.7074707,19.0017537 L17.7074707,19.0017537 Z M7.87461548,19.0017537 C8.56393433,19.0017537 9.12982178,19.5743561 9.12982178,20.2818198 C9.12982178,20.9892675 8.56393433,21.5617582 7.87461548,21.5617582 C7.18529663,21.5617582 6.61915283,20.9845695 6.61915283,20.2818198 C6.61915283,19.5789663 7.18529663,19.0017537 7.87461548,19.0017537 L7.87461548,19.0017537 Z M4.77485962,5.7275271 L19.5882935,7.80808709 L19.5882935,12.5136774 C19.5882935,13.2443438 19.0084351,13.8308487 18.3009155,13.8308487 L6.06223755,13.8308487 C5.35010376,13.8308487 4.77485962,13.2397416 4.77485962,12.5182757 L4.77485962,9.42310507 L4.77485962,5.96024427 L4.77485962,5.7275271 L4.77485962,5.7275271 Z M17.7028564,22.9799319 C16.2442383,22.9799319 15.0574768,21.7716276 15.0574768,20.286422 C15.0574768,19.8965461 15.1406616,19.513075 15.2995972,19.1632874 L10.2742859,19.1632874 C10.4327087,19.5100601 10.515509,19.8934513 10.515509,20.286422 C10.515509,21.7716276 9.32874756,22.9799319 7.87000122,22.9799319 C6.41138306,22.9799319 5.22462158,21.7716276 5.22462158,20.286422 C5.22462158,19.8771321 5.31844482,19.47124 5.49763184,19.1002118 C4.27869873,18.8330175 3.38481445,17.7258353 3.38481445,16.4372666 L3.38481445,12.5275719 L3.38481445,9.43240929 L3.38481445,5.9696442 L3.38481445,5.51811236 L3.38481445,2.77274132 L0.494366455,1.52897089 C0.102923584,1.36124767 -0.0819030762,0.900327856 0.0825439453,0.501602346 C0.203155518,0.208760695 0.483215332,0.0194818323 0.795703125,0.0194818323 C0.899908447,0.0194818323 1.00167847,0.0405030684 1.09857788,0.0819872076 L4.46288452,1.52494691 L4.46775513,1.52704863 L4.47249756,1.52947339 C4.47967529,1.53313047 4.48775024,1.53672773 4.4958252,1.54037684 C4.50825806,1.54596017 4.52043457,1.55160332 4.53145752,1.55718665 L4.55452881,1.56886378 L4.56029663,1.57483396 C4.5604248,1.57483794 4.5604248,1.57484193 4.5604248,1.57484592 C4.57260132,1.58203645 4.58452148,1.59013228 4.59605713,1.59804466 L4.60887451,1.60669084 L4.61797485,1.61532506 C4.62617798,1.62162625 4.63322754,1.62726541 4.64002075,1.63335922 C4.64399414,1.63609904 4.64848022,1.6393932 4.65335083,1.6433454 C4.67514038,1.65928979 4.69013672,1.6745602 4.70039063,1.68506882 C4.70487671,1.68951954 4.71038818,1.69516667 4.71577148,1.70082179 L4.72987061,1.71506327 L4.74089355,1.72636153 L4.75332642,1.73892004 L4.77075806,1.75665907 L4.77896118,1.77204912 C4.78536987,1.78075912 4.79280396,1.79136744 4.79985352,1.80471958 C4.80510864,1.81280743 4.80959473,1.82021731 4.81408081,1.82905891 C4.81523438,1.83078176 4.81625977,1.83247271 4.81741333,1.83415569 C4.8293335,1.84932639 4.83740845,1.86332859 4.84291992,1.87385715 C4.84817505,1.88258709 4.85202026,1.89075071 4.85496826,1.89767005 C4.8675293,1.91834831 4.87637329,1.93788598 4.88380737,1.96076567 L4.89136963,1.98415184 L4.89136963,1.98839517 C4.89136963,1.98850684 4.89136963,1.98862249 4.89136963,1.98873815 L4.89188232,1.99027755 L4.90175171,2.02045146 L4.90957031,2.04424442 L4.90957031,2.05160644 C4.91021118,2.05460947 4.91085205,2.05785578 4.91149292,2.06131744 C4.91315918,2.0680653 4.91456909,2.07441833 4.91585083,2.0807913 L4.92366943,2.10462813 L4.92341309,2.12454865 C4.92418213,2.12904323 4.924823,2.13362555 4.92546387,2.13837138 C4.92866821,2.14992489 4.93046265,2.16038964 4.93135986,2.16960213 C4.93699951,2.20073318 4.93699951,2.23061197 4.93699951,2.25536208 L4.93699951,4.32537755 L20.3074768,6.48838737 C20.3177307,6.48929665 20.3269592,6.49098362 20.334906,6.49292183 C20.3484924,6.49381117 20.364386,6.49593683 20.3827148,6.5010017 C20.3854065,6.50159593 20.38797,6.50220611 20.3901489,6.50279635 C20.4180908,6.50591902 20.442572,6.51452134 20.4597473,6.52211068 C20.469873,6.52486246 20.4839722,6.52930121 20.4994812,6.53716972 L20.5051208,6.5400212 L20.5289612,6.55228459 L20.5379333,6.55684298 L20.5551086,6.56552107 L20.5625427,6.56933767 L20.5809998,6.5787057 L20.6053528,6.59082153 L20.6149658,6.60088747 C20.6243225,6.60599223 20.630603,6.61007205 20.6367554,6.6142077 C20.6508545,6.62170532 20.6621338,6.63017204 20.6694397,6.63586304 C20.6823853,6.64332477 20.6926392,6.65161601 20.7004578,6.65854333 L20.7055847,6.66128315 L20.72276,6.67851569 L20.7366028,6.6925458 L20.7410889,6.69711217 C20.7508301,6.70503651 20.7665955,6.71903073 20.7808228,6.74011577 C20.7862061,6.74609392 20.7928711,6.75403422 20.7995361,6.76396457 C20.8032532,6.76805236 20.8074829,6.77303748 20.8118408,6.77893985 C20.8218384,6.78972764 20.8332458,6.80373781 20.8437561,6.8229006 C20.8499084,6.83134738 20.8572144,6.84180416 20.8641357,6.85504064 C20.8699036,6.86394605 20.8747742,6.87195015 20.8799011,6.88227133 L20.8878479,6.89838722 C20.8961792,6.91112518 20.9022034,6.92319714 20.9072021,6.93310356 L20.9124573,6.94375576 L20.9161743,6.95528932 C20.9175842,6.95970015 20.9192505,6.96249979 20.9207886,6.96542705 C20.9296326,6.98385204 20.9338623,6.9986678 20.9361694,7.0077128 C20.9405273,7.01844475 20.943219,7.02752564 20.9448853,7.03408207 L20.9475769,7.04207022 C20.9506531,7.05164563 20.9529602,7.06010437 20.9547546,7.06786919 L20.964624,7.08866709 L20.964624,7.11005922 C20.9662903,7.11793171 20.9679565,7.12783016 20.9687256,7.13926003 C20.9693665,7.14245848 20.9700073,7.14584437 20.9706482,7.1494177 C20.9783386,7.17717084 20.9783386,7.20043338 20.9783386,7.21228201 L20.9783386,7.24949889 L20.9783386,7.26821501 L20.9783386,12.5182757 C20.9783386,14.0214077 19.7772217,15.2443005 18.3009155,15.2443005 L6.06223755,15.2443005 C5.67002563,15.2443005 5.28422241,15.1585645 4.93238525,14.9945901 L4.93238525,16.4372666 C4.93238525,17.0745479 5.43918457,17.5930158 6.06223755,17.5930158 L17.7028564,17.5930158 C19.1616028,17.5930158 20.3483643,18.8012723 20.3483643,20.286422 C20.3483643,21.7716276 19.1616028,22.9799319 17.7028564,22.9799319 Z M17.7074707,19.1585735 C17.1021057,19.1585735 16.6096619,19.662461 16.6096619,20.2818198 C16.6096619,20.9011147 17.1021057,21.4049464 17.7074707,21.4049464 C18.3128357,21.4049464 18.8054077,20.9011147 18.8054077,20.2818198 C18.8054077,19.662461 18.3128357,19.1585735 17.7074707,19.1585735 Z M7.87461548,19.1585735 C7.26925049,19.1585735 6.77667847,19.662461 6.77667847,20.2818198 C6.77667847,20.9011147 7.26925049,21.4049464 7.87461548,21.4049464 C8.47985229,21.4049464 8.97229614,20.9011147 8.97229614,20.2818198 C8.97229614,19.662461 8.47985229,19.1585735 7.87461548,19.1585735 Z M4.93238525,5.90802019 L4.93238525,5.96024427 L4.93238525,9.42310507 L4.93238525,12.5182757 C4.93238525,13.155553 5.43918457,13.6740289 6.06223755,13.6740289 L18.3009155,13.6740289 C18.9239685,13.6740289 19.4307678,13.1534951 19.4307678,12.5136774 L19.4307678,7.94433628 L4.93238525,5.90802019 Z" id="Shape"></path>
                </g>
            </g>
        </g>
    </g>
</svg>